G75*
%MOIN*%
%OFA0B0*%
%FSLAX25Y25*%
%IPPOS*%
%LPD*%
%AMOC8*
5,1,8,0,0,1.08239X$1,22.5*
%
%ADD10C,0.00000*%
D10*
X0155667Y0078296D02*
X0155667Y0139496D01*
X0148467Y0139496D01*
X0148467Y0159896D01*
X0155667Y0159896D01*
X0155667Y0302696D01*
X0316467Y0302696D01*
X0316467Y0305096D01*
X0275667Y0305096D01*
X0275667Y0337496D01*
X0183667Y0337496D01*
X0171667Y0348496D01*
X0166667Y0372496D01*
X0166667Y0400496D01*
X0171667Y0404496D01*
X0509667Y0404496D01*
X0514667Y0401496D01*
X0514667Y0373496D01*
X0509667Y0348496D01*
X0497667Y0337496D01*
X0406467Y0337496D01*
X0406467Y0305096D01*
X0364467Y0305096D01*
X0364467Y0302696D01*
X0524067Y0302696D01*
X0524067Y0159896D01*
X0533667Y0159896D01*
X0533667Y0139496D01*
X0524067Y0139496D01*
X0524067Y0078296D01*
X0155667Y0078296D01*
X0168572Y0098378D02*
X0168574Y0098531D01*
X0168580Y0098685D01*
X0168590Y0098838D01*
X0168604Y0098990D01*
X0168622Y0099143D01*
X0168644Y0099294D01*
X0168669Y0099445D01*
X0168699Y0099596D01*
X0168733Y0099746D01*
X0168770Y0099894D01*
X0168811Y0100042D01*
X0168856Y0100188D01*
X0168905Y0100334D01*
X0168958Y0100478D01*
X0169014Y0100620D01*
X0169074Y0100761D01*
X0169138Y0100901D01*
X0169205Y0101039D01*
X0169276Y0101175D01*
X0169351Y0101309D01*
X0169428Y0101441D01*
X0169510Y0101571D01*
X0169594Y0101699D01*
X0169682Y0101825D01*
X0169773Y0101948D01*
X0169867Y0102069D01*
X0169965Y0102187D01*
X0170065Y0102303D01*
X0170169Y0102416D01*
X0170275Y0102527D01*
X0170384Y0102635D01*
X0170496Y0102740D01*
X0170610Y0102841D01*
X0170728Y0102940D01*
X0170847Y0103036D01*
X0170969Y0103129D01*
X0171094Y0103218D01*
X0171221Y0103305D01*
X0171350Y0103387D01*
X0171481Y0103467D01*
X0171614Y0103543D01*
X0171749Y0103616D01*
X0171886Y0103685D01*
X0172025Y0103750D01*
X0172165Y0103812D01*
X0172307Y0103870D01*
X0172450Y0103925D01*
X0172595Y0103976D01*
X0172741Y0104023D01*
X0172888Y0104066D01*
X0173036Y0104105D01*
X0173185Y0104141D01*
X0173335Y0104172D01*
X0173486Y0104200D01*
X0173637Y0104224D01*
X0173790Y0104244D01*
X0173942Y0104260D01*
X0174095Y0104272D01*
X0174248Y0104280D01*
X0174401Y0104284D01*
X0174555Y0104284D01*
X0174708Y0104280D01*
X0174861Y0104272D01*
X0175014Y0104260D01*
X0175166Y0104244D01*
X0175319Y0104224D01*
X0175470Y0104200D01*
X0175621Y0104172D01*
X0175771Y0104141D01*
X0175920Y0104105D01*
X0176068Y0104066D01*
X0176215Y0104023D01*
X0176361Y0103976D01*
X0176506Y0103925D01*
X0176649Y0103870D01*
X0176791Y0103812D01*
X0176931Y0103750D01*
X0177070Y0103685D01*
X0177207Y0103616D01*
X0177342Y0103543D01*
X0177475Y0103467D01*
X0177606Y0103387D01*
X0177735Y0103305D01*
X0177862Y0103218D01*
X0177987Y0103129D01*
X0178109Y0103036D01*
X0178228Y0102940D01*
X0178346Y0102841D01*
X0178460Y0102740D01*
X0178572Y0102635D01*
X0178681Y0102527D01*
X0178787Y0102416D01*
X0178891Y0102303D01*
X0178991Y0102187D01*
X0179089Y0102069D01*
X0179183Y0101948D01*
X0179274Y0101825D01*
X0179362Y0101699D01*
X0179446Y0101571D01*
X0179528Y0101441D01*
X0179605Y0101309D01*
X0179680Y0101175D01*
X0179751Y0101039D01*
X0179818Y0100901D01*
X0179882Y0100761D01*
X0179942Y0100620D01*
X0179998Y0100478D01*
X0180051Y0100334D01*
X0180100Y0100188D01*
X0180145Y0100042D01*
X0180186Y0099894D01*
X0180223Y0099746D01*
X0180257Y0099596D01*
X0180287Y0099445D01*
X0180312Y0099294D01*
X0180334Y0099143D01*
X0180352Y0098990D01*
X0180366Y0098838D01*
X0180376Y0098685D01*
X0180382Y0098531D01*
X0180384Y0098378D01*
X0180382Y0098225D01*
X0180376Y0098071D01*
X0180366Y0097918D01*
X0180352Y0097766D01*
X0180334Y0097613D01*
X0180312Y0097462D01*
X0180287Y0097311D01*
X0180257Y0097160D01*
X0180223Y0097010D01*
X0180186Y0096862D01*
X0180145Y0096714D01*
X0180100Y0096568D01*
X0180051Y0096422D01*
X0179998Y0096278D01*
X0179942Y0096136D01*
X0179882Y0095995D01*
X0179818Y0095855D01*
X0179751Y0095717D01*
X0179680Y0095581D01*
X0179605Y0095447D01*
X0179528Y0095315D01*
X0179446Y0095185D01*
X0179362Y0095057D01*
X0179274Y0094931D01*
X0179183Y0094808D01*
X0179089Y0094687D01*
X0178991Y0094569D01*
X0178891Y0094453D01*
X0178787Y0094340D01*
X0178681Y0094229D01*
X0178572Y0094121D01*
X0178460Y0094016D01*
X0178346Y0093915D01*
X0178228Y0093816D01*
X0178109Y0093720D01*
X0177987Y0093627D01*
X0177862Y0093538D01*
X0177735Y0093451D01*
X0177606Y0093369D01*
X0177475Y0093289D01*
X0177342Y0093213D01*
X0177207Y0093140D01*
X0177070Y0093071D01*
X0176931Y0093006D01*
X0176791Y0092944D01*
X0176649Y0092886D01*
X0176506Y0092831D01*
X0176361Y0092780D01*
X0176215Y0092733D01*
X0176068Y0092690D01*
X0175920Y0092651D01*
X0175771Y0092615D01*
X0175621Y0092584D01*
X0175470Y0092556D01*
X0175319Y0092532D01*
X0175166Y0092512D01*
X0175014Y0092496D01*
X0174861Y0092484D01*
X0174708Y0092476D01*
X0174555Y0092472D01*
X0174401Y0092472D01*
X0174248Y0092476D01*
X0174095Y0092484D01*
X0173942Y0092496D01*
X0173790Y0092512D01*
X0173637Y0092532D01*
X0173486Y0092556D01*
X0173335Y0092584D01*
X0173185Y0092615D01*
X0173036Y0092651D01*
X0172888Y0092690D01*
X0172741Y0092733D01*
X0172595Y0092780D01*
X0172450Y0092831D01*
X0172307Y0092886D01*
X0172165Y0092944D01*
X0172025Y0093006D01*
X0171886Y0093071D01*
X0171749Y0093140D01*
X0171614Y0093213D01*
X0171481Y0093289D01*
X0171350Y0093369D01*
X0171221Y0093451D01*
X0171094Y0093538D01*
X0170969Y0093627D01*
X0170847Y0093720D01*
X0170728Y0093816D01*
X0170610Y0093915D01*
X0170496Y0094016D01*
X0170384Y0094121D01*
X0170275Y0094229D01*
X0170169Y0094340D01*
X0170065Y0094453D01*
X0169965Y0094569D01*
X0169867Y0094687D01*
X0169773Y0094808D01*
X0169682Y0094931D01*
X0169594Y0095057D01*
X0169510Y0095185D01*
X0169428Y0095315D01*
X0169351Y0095447D01*
X0169276Y0095581D01*
X0169205Y0095717D01*
X0169138Y0095855D01*
X0169074Y0095995D01*
X0169014Y0096136D01*
X0168958Y0096278D01*
X0168905Y0096422D01*
X0168856Y0096568D01*
X0168811Y0096714D01*
X0168770Y0096862D01*
X0168733Y0097010D01*
X0168699Y0097160D01*
X0168669Y0097311D01*
X0168644Y0097462D01*
X0168622Y0097613D01*
X0168604Y0097766D01*
X0168590Y0097918D01*
X0168580Y0098071D01*
X0168574Y0098225D01*
X0168572Y0098378D01*
X0196131Y0098378D02*
X0196133Y0098531D01*
X0196139Y0098685D01*
X0196149Y0098838D01*
X0196163Y0098990D01*
X0196181Y0099143D01*
X0196203Y0099294D01*
X0196228Y0099445D01*
X0196258Y0099596D01*
X0196292Y0099746D01*
X0196329Y0099894D01*
X0196370Y0100042D01*
X0196415Y0100188D01*
X0196464Y0100334D01*
X0196517Y0100478D01*
X0196573Y0100620D01*
X0196633Y0100761D01*
X0196697Y0100901D01*
X0196764Y0101039D01*
X0196835Y0101175D01*
X0196910Y0101309D01*
X0196987Y0101441D01*
X0197069Y0101571D01*
X0197153Y0101699D01*
X0197241Y0101825D01*
X0197332Y0101948D01*
X0197426Y0102069D01*
X0197524Y0102187D01*
X0197624Y0102303D01*
X0197728Y0102416D01*
X0197834Y0102527D01*
X0197943Y0102635D01*
X0198055Y0102740D01*
X0198169Y0102841D01*
X0198287Y0102940D01*
X0198406Y0103036D01*
X0198528Y0103129D01*
X0198653Y0103218D01*
X0198780Y0103305D01*
X0198909Y0103387D01*
X0199040Y0103467D01*
X0199173Y0103543D01*
X0199308Y0103616D01*
X0199445Y0103685D01*
X0199584Y0103750D01*
X0199724Y0103812D01*
X0199866Y0103870D01*
X0200009Y0103925D01*
X0200154Y0103976D01*
X0200300Y0104023D01*
X0200447Y0104066D01*
X0200595Y0104105D01*
X0200744Y0104141D01*
X0200894Y0104172D01*
X0201045Y0104200D01*
X0201196Y0104224D01*
X0201349Y0104244D01*
X0201501Y0104260D01*
X0201654Y0104272D01*
X0201807Y0104280D01*
X0201960Y0104284D01*
X0202114Y0104284D01*
X0202267Y0104280D01*
X0202420Y0104272D01*
X0202573Y0104260D01*
X0202725Y0104244D01*
X0202878Y0104224D01*
X0203029Y0104200D01*
X0203180Y0104172D01*
X0203330Y0104141D01*
X0203479Y0104105D01*
X0203627Y0104066D01*
X0203774Y0104023D01*
X0203920Y0103976D01*
X0204065Y0103925D01*
X0204208Y0103870D01*
X0204350Y0103812D01*
X0204490Y0103750D01*
X0204629Y0103685D01*
X0204766Y0103616D01*
X0204901Y0103543D01*
X0205034Y0103467D01*
X0205165Y0103387D01*
X0205294Y0103305D01*
X0205421Y0103218D01*
X0205546Y0103129D01*
X0205668Y0103036D01*
X0205787Y0102940D01*
X0205905Y0102841D01*
X0206019Y0102740D01*
X0206131Y0102635D01*
X0206240Y0102527D01*
X0206346Y0102416D01*
X0206450Y0102303D01*
X0206550Y0102187D01*
X0206648Y0102069D01*
X0206742Y0101948D01*
X0206833Y0101825D01*
X0206921Y0101699D01*
X0207005Y0101571D01*
X0207087Y0101441D01*
X0207164Y0101309D01*
X0207239Y0101175D01*
X0207310Y0101039D01*
X0207377Y0100901D01*
X0207441Y0100761D01*
X0207501Y0100620D01*
X0207557Y0100478D01*
X0207610Y0100334D01*
X0207659Y0100188D01*
X0207704Y0100042D01*
X0207745Y0099894D01*
X0207782Y0099746D01*
X0207816Y0099596D01*
X0207846Y0099445D01*
X0207871Y0099294D01*
X0207893Y0099143D01*
X0207911Y0098990D01*
X0207925Y0098838D01*
X0207935Y0098685D01*
X0207941Y0098531D01*
X0207943Y0098378D01*
X0207941Y0098225D01*
X0207935Y0098071D01*
X0207925Y0097918D01*
X0207911Y0097766D01*
X0207893Y0097613D01*
X0207871Y0097462D01*
X0207846Y0097311D01*
X0207816Y0097160D01*
X0207782Y0097010D01*
X0207745Y0096862D01*
X0207704Y0096714D01*
X0207659Y0096568D01*
X0207610Y0096422D01*
X0207557Y0096278D01*
X0207501Y0096136D01*
X0207441Y0095995D01*
X0207377Y0095855D01*
X0207310Y0095717D01*
X0207239Y0095581D01*
X0207164Y0095447D01*
X0207087Y0095315D01*
X0207005Y0095185D01*
X0206921Y0095057D01*
X0206833Y0094931D01*
X0206742Y0094808D01*
X0206648Y0094687D01*
X0206550Y0094569D01*
X0206450Y0094453D01*
X0206346Y0094340D01*
X0206240Y0094229D01*
X0206131Y0094121D01*
X0206019Y0094016D01*
X0205905Y0093915D01*
X0205787Y0093816D01*
X0205668Y0093720D01*
X0205546Y0093627D01*
X0205421Y0093538D01*
X0205294Y0093451D01*
X0205165Y0093369D01*
X0205034Y0093289D01*
X0204901Y0093213D01*
X0204766Y0093140D01*
X0204629Y0093071D01*
X0204490Y0093006D01*
X0204350Y0092944D01*
X0204208Y0092886D01*
X0204065Y0092831D01*
X0203920Y0092780D01*
X0203774Y0092733D01*
X0203627Y0092690D01*
X0203479Y0092651D01*
X0203330Y0092615D01*
X0203180Y0092584D01*
X0203029Y0092556D01*
X0202878Y0092532D01*
X0202725Y0092512D01*
X0202573Y0092496D01*
X0202420Y0092484D01*
X0202267Y0092476D01*
X0202114Y0092472D01*
X0201960Y0092472D01*
X0201807Y0092476D01*
X0201654Y0092484D01*
X0201501Y0092496D01*
X0201349Y0092512D01*
X0201196Y0092532D01*
X0201045Y0092556D01*
X0200894Y0092584D01*
X0200744Y0092615D01*
X0200595Y0092651D01*
X0200447Y0092690D01*
X0200300Y0092733D01*
X0200154Y0092780D01*
X0200009Y0092831D01*
X0199866Y0092886D01*
X0199724Y0092944D01*
X0199584Y0093006D01*
X0199445Y0093071D01*
X0199308Y0093140D01*
X0199173Y0093213D01*
X0199040Y0093289D01*
X0198909Y0093369D01*
X0198780Y0093451D01*
X0198653Y0093538D01*
X0198528Y0093627D01*
X0198406Y0093720D01*
X0198287Y0093816D01*
X0198169Y0093915D01*
X0198055Y0094016D01*
X0197943Y0094121D01*
X0197834Y0094229D01*
X0197728Y0094340D01*
X0197624Y0094453D01*
X0197524Y0094569D01*
X0197426Y0094687D01*
X0197332Y0094808D01*
X0197241Y0094931D01*
X0197153Y0095057D01*
X0197069Y0095185D01*
X0196987Y0095315D01*
X0196910Y0095447D01*
X0196835Y0095581D01*
X0196764Y0095717D01*
X0196697Y0095855D01*
X0196633Y0095995D01*
X0196573Y0096136D01*
X0196517Y0096278D01*
X0196464Y0096422D01*
X0196415Y0096568D01*
X0196370Y0096714D01*
X0196329Y0096862D01*
X0196292Y0097010D01*
X0196258Y0097160D01*
X0196228Y0097311D01*
X0196203Y0097462D01*
X0196181Y0097613D01*
X0196163Y0097766D01*
X0196149Y0097918D01*
X0196139Y0098071D01*
X0196133Y0098225D01*
X0196131Y0098378D01*
X0196131Y0200740D02*
X0196133Y0200893D01*
X0196139Y0201047D01*
X0196149Y0201200D01*
X0196163Y0201352D01*
X0196181Y0201505D01*
X0196203Y0201656D01*
X0196228Y0201807D01*
X0196258Y0201958D01*
X0196292Y0202108D01*
X0196329Y0202256D01*
X0196370Y0202404D01*
X0196415Y0202550D01*
X0196464Y0202696D01*
X0196517Y0202840D01*
X0196573Y0202982D01*
X0196633Y0203123D01*
X0196697Y0203263D01*
X0196764Y0203401D01*
X0196835Y0203537D01*
X0196910Y0203671D01*
X0196987Y0203803D01*
X0197069Y0203933D01*
X0197153Y0204061D01*
X0197241Y0204187D01*
X0197332Y0204310D01*
X0197426Y0204431D01*
X0197524Y0204549D01*
X0197624Y0204665D01*
X0197728Y0204778D01*
X0197834Y0204889D01*
X0197943Y0204997D01*
X0198055Y0205102D01*
X0198169Y0205203D01*
X0198287Y0205302D01*
X0198406Y0205398D01*
X0198528Y0205491D01*
X0198653Y0205580D01*
X0198780Y0205667D01*
X0198909Y0205749D01*
X0199040Y0205829D01*
X0199173Y0205905D01*
X0199308Y0205978D01*
X0199445Y0206047D01*
X0199584Y0206112D01*
X0199724Y0206174D01*
X0199866Y0206232D01*
X0200009Y0206287D01*
X0200154Y0206338D01*
X0200300Y0206385D01*
X0200447Y0206428D01*
X0200595Y0206467D01*
X0200744Y0206503D01*
X0200894Y0206534D01*
X0201045Y0206562D01*
X0201196Y0206586D01*
X0201349Y0206606D01*
X0201501Y0206622D01*
X0201654Y0206634D01*
X0201807Y0206642D01*
X0201960Y0206646D01*
X0202114Y0206646D01*
X0202267Y0206642D01*
X0202420Y0206634D01*
X0202573Y0206622D01*
X0202725Y0206606D01*
X0202878Y0206586D01*
X0203029Y0206562D01*
X0203180Y0206534D01*
X0203330Y0206503D01*
X0203479Y0206467D01*
X0203627Y0206428D01*
X0203774Y0206385D01*
X0203920Y0206338D01*
X0204065Y0206287D01*
X0204208Y0206232D01*
X0204350Y0206174D01*
X0204490Y0206112D01*
X0204629Y0206047D01*
X0204766Y0205978D01*
X0204901Y0205905D01*
X0205034Y0205829D01*
X0205165Y0205749D01*
X0205294Y0205667D01*
X0205421Y0205580D01*
X0205546Y0205491D01*
X0205668Y0205398D01*
X0205787Y0205302D01*
X0205905Y0205203D01*
X0206019Y0205102D01*
X0206131Y0204997D01*
X0206240Y0204889D01*
X0206346Y0204778D01*
X0206450Y0204665D01*
X0206550Y0204549D01*
X0206648Y0204431D01*
X0206742Y0204310D01*
X0206833Y0204187D01*
X0206921Y0204061D01*
X0207005Y0203933D01*
X0207087Y0203803D01*
X0207164Y0203671D01*
X0207239Y0203537D01*
X0207310Y0203401D01*
X0207377Y0203263D01*
X0207441Y0203123D01*
X0207501Y0202982D01*
X0207557Y0202840D01*
X0207610Y0202696D01*
X0207659Y0202550D01*
X0207704Y0202404D01*
X0207745Y0202256D01*
X0207782Y0202108D01*
X0207816Y0201958D01*
X0207846Y0201807D01*
X0207871Y0201656D01*
X0207893Y0201505D01*
X0207911Y0201352D01*
X0207925Y0201200D01*
X0207935Y0201047D01*
X0207941Y0200893D01*
X0207943Y0200740D01*
X0207941Y0200587D01*
X0207935Y0200433D01*
X0207925Y0200280D01*
X0207911Y0200128D01*
X0207893Y0199975D01*
X0207871Y0199824D01*
X0207846Y0199673D01*
X0207816Y0199522D01*
X0207782Y0199372D01*
X0207745Y0199224D01*
X0207704Y0199076D01*
X0207659Y0198930D01*
X0207610Y0198784D01*
X0207557Y0198640D01*
X0207501Y0198498D01*
X0207441Y0198357D01*
X0207377Y0198217D01*
X0207310Y0198079D01*
X0207239Y0197943D01*
X0207164Y0197809D01*
X0207087Y0197677D01*
X0207005Y0197547D01*
X0206921Y0197419D01*
X0206833Y0197293D01*
X0206742Y0197170D01*
X0206648Y0197049D01*
X0206550Y0196931D01*
X0206450Y0196815D01*
X0206346Y0196702D01*
X0206240Y0196591D01*
X0206131Y0196483D01*
X0206019Y0196378D01*
X0205905Y0196277D01*
X0205787Y0196178D01*
X0205668Y0196082D01*
X0205546Y0195989D01*
X0205421Y0195900D01*
X0205294Y0195813D01*
X0205165Y0195731D01*
X0205034Y0195651D01*
X0204901Y0195575D01*
X0204766Y0195502D01*
X0204629Y0195433D01*
X0204490Y0195368D01*
X0204350Y0195306D01*
X0204208Y0195248D01*
X0204065Y0195193D01*
X0203920Y0195142D01*
X0203774Y0195095D01*
X0203627Y0195052D01*
X0203479Y0195013D01*
X0203330Y0194977D01*
X0203180Y0194946D01*
X0203029Y0194918D01*
X0202878Y0194894D01*
X0202725Y0194874D01*
X0202573Y0194858D01*
X0202420Y0194846D01*
X0202267Y0194838D01*
X0202114Y0194834D01*
X0201960Y0194834D01*
X0201807Y0194838D01*
X0201654Y0194846D01*
X0201501Y0194858D01*
X0201349Y0194874D01*
X0201196Y0194894D01*
X0201045Y0194918D01*
X0200894Y0194946D01*
X0200744Y0194977D01*
X0200595Y0195013D01*
X0200447Y0195052D01*
X0200300Y0195095D01*
X0200154Y0195142D01*
X0200009Y0195193D01*
X0199866Y0195248D01*
X0199724Y0195306D01*
X0199584Y0195368D01*
X0199445Y0195433D01*
X0199308Y0195502D01*
X0199173Y0195575D01*
X0199040Y0195651D01*
X0198909Y0195731D01*
X0198780Y0195813D01*
X0198653Y0195900D01*
X0198528Y0195989D01*
X0198406Y0196082D01*
X0198287Y0196178D01*
X0198169Y0196277D01*
X0198055Y0196378D01*
X0197943Y0196483D01*
X0197834Y0196591D01*
X0197728Y0196702D01*
X0197624Y0196815D01*
X0197524Y0196931D01*
X0197426Y0197049D01*
X0197332Y0197170D01*
X0197241Y0197293D01*
X0197153Y0197419D01*
X0197069Y0197547D01*
X0196987Y0197677D01*
X0196910Y0197809D01*
X0196835Y0197943D01*
X0196764Y0198079D01*
X0196697Y0198217D01*
X0196633Y0198357D01*
X0196573Y0198498D01*
X0196517Y0198640D01*
X0196464Y0198784D01*
X0196415Y0198930D01*
X0196370Y0199076D01*
X0196329Y0199224D01*
X0196292Y0199372D01*
X0196258Y0199522D01*
X0196228Y0199673D01*
X0196203Y0199824D01*
X0196181Y0199975D01*
X0196163Y0200128D01*
X0196149Y0200280D01*
X0196139Y0200433D01*
X0196133Y0200587D01*
X0196131Y0200740D01*
X0168572Y0200740D02*
X0168574Y0200893D01*
X0168580Y0201047D01*
X0168590Y0201200D01*
X0168604Y0201352D01*
X0168622Y0201505D01*
X0168644Y0201656D01*
X0168669Y0201807D01*
X0168699Y0201958D01*
X0168733Y0202108D01*
X0168770Y0202256D01*
X0168811Y0202404D01*
X0168856Y0202550D01*
X0168905Y0202696D01*
X0168958Y0202840D01*
X0169014Y0202982D01*
X0169074Y0203123D01*
X0169138Y0203263D01*
X0169205Y0203401D01*
X0169276Y0203537D01*
X0169351Y0203671D01*
X0169428Y0203803D01*
X0169510Y0203933D01*
X0169594Y0204061D01*
X0169682Y0204187D01*
X0169773Y0204310D01*
X0169867Y0204431D01*
X0169965Y0204549D01*
X0170065Y0204665D01*
X0170169Y0204778D01*
X0170275Y0204889D01*
X0170384Y0204997D01*
X0170496Y0205102D01*
X0170610Y0205203D01*
X0170728Y0205302D01*
X0170847Y0205398D01*
X0170969Y0205491D01*
X0171094Y0205580D01*
X0171221Y0205667D01*
X0171350Y0205749D01*
X0171481Y0205829D01*
X0171614Y0205905D01*
X0171749Y0205978D01*
X0171886Y0206047D01*
X0172025Y0206112D01*
X0172165Y0206174D01*
X0172307Y0206232D01*
X0172450Y0206287D01*
X0172595Y0206338D01*
X0172741Y0206385D01*
X0172888Y0206428D01*
X0173036Y0206467D01*
X0173185Y0206503D01*
X0173335Y0206534D01*
X0173486Y0206562D01*
X0173637Y0206586D01*
X0173790Y0206606D01*
X0173942Y0206622D01*
X0174095Y0206634D01*
X0174248Y0206642D01*
X0174401Y0206646D01*
X0174555Y0206646D01*
X0174708Y0206642D01*
X0174861Y0206634D01*
X0175014Y0206622D01*
X0175166Y0206606D01*
X0175319Y0206586D01*
X0175470Y0206562D01*
X0175621Y0206534D01*
X0175771Y0206503D01*
X0175920Y0206467D01*
X0176068Y0206428D01*
X0176215Y0206385D01*
X0176361Y0206338D01*
X0176506Y0206287D01*
X0176649Y0206232D01*
X0176791Y0206174D01*
X0176931Y0206112D01*
X0177070Y0206047D01*
X0177207Y0205978D01*
X0177342Y0205905D01*
X0177475Y0205829D01*
X0177606Y0205749D01*
X0177735Y0205667D01*
X0177862Y0205580D01*
X0177987Y0205491D01*
X0178109Y0205398D01*
X0178228Y0205302D01*
X0178346Y0205203D01*
X0178460Y0205102D01*
X0178572Y0204997D01*
X0178681Y0204889D01*
X0178787Y0204778D01*
X0178891Y0204665D01*
X0178991Y0204549D01*
X0179089Y0204431D01*
X0179183Y0204310D01*
X0179274Y0204187D01*
X0179362Y0204061D01*
X0179446Y0203933D01*
X0179528Y0203803D01*
X0179605Y0203671D01*
X0179680Y0203537D01*
X0179751Y0203401D01*
X0179818Y0203263D01*
X0179882Y0203123D01*
X0179942Y0202982D01*
X0179998Y0202840D01*
X0180051Y0202696D01*
X0180100Y0202550D01*
X0180145Y0202404D01*
X0180186Y0202256D01*
X0180223Y0202108D01*
X0180257Y0201958D01*
X0180287Y0201807D01*
X0180312Y0201656D01*
X0180334Y0201505D01*
X0180352Y0201352D01*
X0180366Y0201200D01*
X0180376Y0201047D01*
X0180382Y0200893D01*
X0180384Y0200740D01*
X0180382Y0200587D01*
X0180376Y0200433D01*
X0180366Y0200280D01*
X0180352Y0200128D01*
X0180334Y0199975D01*
X0180312Y0199824D01*
X0180287Y0199673D01*
X0180257Y0199522D01*
X0180223Y0199372D01*
X0180186Y0199224D01*
X0180145Y0199076D01*
X0180100Y0198930D01*
X0180051Y0198784D01*
X0179998Y0198640D01*
X0179942Y0198498D01*
X0179882Y0198357D01*
X0179818Y0198217D01*
X0179751Y0198079D01*
X0179680Y0197943D01*
X0179605Y0197809D01*
X0179528Y0197677D01*
X0179446Y0197547D01*
X0179362Y0197419D01*
X0179274Y0197293D01*
X0179183Y0197170D01*
X0179089Y0197049D01*
X0178991Y0196931D01*
X0178891Y0196815D01*
X0178787Y0196702D01*
X0178681Y0196591D01*
X0178572Y0196483D01*
X0178460Y0196378D01*
X0178346Y0196277D01*
X0178228Y0196178D01*
X0178109Y0196082D01*
X0177987Y0195989D01*
X0177862Y0195900D01*
X0177735Y0195813D01*
X0177606Y0195731D01*
X0177475Y0195651D01*
X0177342Y0195575D01*
X0177207Y0195502D01*
X0177070Y0195433D01*
X0176931Y0195368D01*
X0176791Y0195306D01*
X0176649Y0195248D01*
X0176506Y0195193D01*
X0176361Y0195142D01*
X0176215Y0195095D01*
X0176068Y0195052D01*
X0175920Y0195013D01*
X0175771Y0194977D01*
X0175621Y0194946D01*
X0175470Y0194918D01*
X0175319Y0194894D01*
X0175166Y0194874D01*
X0175014Y0194858D01*
X0174861Y0194846D01*
X0174708Y0194838D01*
X0174555Y0194834D01*
X0174401Y0194834D01*
X0174248Y0194838D01*
X0174095Y0194846D01*
X0173942Y0194858D01*
X0173790Y0194874D01*
X0173637Y0194894D01*
X0173486Y0194918D01*
X0173335Y0194946D01*
X0173185Y0194977D01*
X0173036Y0195013D01*
X0172888Y0195052D01*
X0172741Y0195095D01*
X0172595Y0195142D01*
X0172450Y0195193D01*
X0172307Y0195248D01*
X0172165Y0195306D01*
X0172025Y0195368D01*
X0171886Y0195433D01*
X0171749Y0195502D01*
X0171614Y0195575D01*
X0171481Y0195651D01*
X0171350Y0195731D01*
X0171221Y0195813D01*
X0171094Y0195900D01*
X0170969Y0195989D01*
X0170847Y0196082D01*
X0170728Y0196178D01*
X0170610Y0196277D01*
X0170496Y0196378D01*
X0170384Y0196483D01*
X0170275Y0196591D01*
X0170169Y0196702D01*
X0170065Y0196815D01*
X0169965Y0196931D01*
X0169867Y0197049D01*
X0169773Y0197170D01*
X0169682Y0197293D01*
X0169594Y0197419D01*
X0169510Y0197547D01*
X0169428Y0197677D01*
X0169351Y0197809D01*
X0169276Y0197943D01*
X0169205Y0198079D01*
X0169138Y0198217D01*
X0169074Y0198357D01*
X0169014Y0198498D01*
X0168958Y0198640D01*
X0168905Y0198784D01*
X0168856Y0198930D01*
X0168811Y0199076D01*
X0168770Y0199224D01*
X0168733Y0199372D01*
X0168699Y0199522D01*
X0168669Y0199673D01*
X0168644Y0199824D01*
X0168622Y0199975D01*
X0168604Y0200128D01*
X0168590Y0200280D01*
X0168580Y0200433D01*
X0168574Y0200587D01*
X0168572Y0200740D01*
X0171895Y0252835D02*
X0171897Y0252919D01*
X0171903Y0253002D01*
X0171913Y0253085D01*
X0171927Y0253168D01*
X0171944Y0253250D01*
X0171966Y0253331D01*
X0171991Y0253410D01*
X0172020Y0253489D01*
X0172053Y0253566D01*
X0172089Y0253641D01*
X0172129Y0253715D01*
X0172172Y0253787D01*
X0172219Y0253856D01*
X0172269Y0253923D01*
X0172322Y0253988D01*
X0172378Y0254050D01*
X0172436Y0254110D01*
X0172498Y0254167D01*
X0172562Y0254220D01*
X0172629Y0254271D01*
X0172698Y0254318D01*
X0172769Y0254363D01*
X0172842Y0254403D01*
X0172917Y0254440D01*
X0172994Y0254474D01*
X0173072Y0254504D01*
X0173151Y0254530D01*
X0173232Y0254553D01*
X0173314Y0254571D01*
X0173396Y0254586D01*
X0173479Y0254597D01*
X0173562Y0254604D01*
X0173646Y0254607D01*
X0173730Y0254606D01*
X0173813Y0254601D01*
X0173897Y0254592D01*
X0173979Y0254579D01*
X0174061Y0254563D01*
X0174142Y0254542D01*
X0174223Y0254518D01*
X0174301Y0254490D01*
X0174379Y0254458D01*
X0174455Y0254422D01*
X0174529Y0254383D01*
X0174601Y0254341D01*
X0174671Y0254295D01*
X0174739Y0254246D01*
X0174804Y0254194D01*
X0174867Y0254139D01*
X0174927Y0254081D01*
X0174985Y0254020D01*
X0175039Y0253956D01*
X0175091Y0253890D01*
X0175139Y0253822D01*
X0175184Y0253751D01*
X0175225Y0253678D01*
X0175264Y0253604D01*
X0175298Y0253528D01*
X0175329Y0253450D01*
X0175356Y0253371D01*
X0175380Y0253290D01*
X0175399Y0253209D01*
X0175415Y0253127D01*
X0175427Y0253044D01*
X0175435Y0252960D01*
X0175439Y0252877D01*
X0175439Y0252793D01*
X0175435Y0252710D01*
X0175427Y0252626D01*
X0175415Y0252543D01*
X0175399Y0252461D01*
X0175380Y0252380D01*
X0175356Y0252299D01*
X0175329Y0252220D01*
X0175298Y0252142D01*
X0175264Y0252066D01*
X0175225Y0251992D01*
X0175184Y0251919D01*
X0175139Y0251848D01*
X0175091Y0251780D01*
X0175039Y0251714D01*
X0174985Y0251650D01*
X0174927Y0251589D01*
X0174867Y0251531D01*
X0174804Y0251476D01*
X0174739Y0251424D01*
X0174671Y0251375D01*
X0174601Y0251329D01*
X0174529Y0251287D01*
X0174455Y0251248D01*
X0174379Y0251212D01*
X0174301Y0251180D01*
X0174223Y0251152D01*
X0174142Y0251128D01*
X0174061Y0251107D01*
X0173979Y0251091D01*
X0173897Y0251078D01*
X0173813Y0251069D01*
X0173730Y0251064D01*
X0173646Y0251063D01*
X0173562Y0251066D01*
X0173479Y0251073D01*
X0173396Y0251084D01*
X0173314Y0251099D01*
X0173232Y0251117D01*
X0173151Y0251140D01*
X0173072Y0251166D01*
X0172994Y0251196D01*
X0172917Y0251230D01*
X0172842Y0251267D01*
X0172769Y0251307D01*
X0172698Y0251352D01*
X0172629Y0251399D01*
X0172562Y0251450D01*
X0172498Y0251503D01*
X0172436Y0251560D01*
X0172378Y0251620D01*
X0172322Y0251682D01*
X0172269Y0251747D01*
X0172219Y0251814D01*
X0172172Y0251883D01*
X0172129Y0251955D01*
X0172089Y0252029D01*
X0172053Y0252104D01*
X0172020Y0252181D01*
X0171991Y0252260D01*
X0171966Y0252339D01*
X0171944Y0252420D01*
X0171927Y0252502D01*
X0171913Y0252585D01*
X0171903Y0252668D01*
X0171897Y0252751D01*
X0171895Y0252835D01*
X0171895Y0270158D02*
X0171897Y0270242D01*
X0171903Y0270325D01*
X0171913Y0270408D01*
X0171927Y0270491D01*
X0171944Y0270573D01*
X0171966Y0270654D01*
X0171991Y0270733D01*
X0172020Y0270812D01*
X0172053Y0270889D01*
X0172089Y0270964D01*
X0172129Y0271038D01*
X0172172Y0271110D01*
X0172219Y0271179D01*
X0172269Y0271246D01*
X0172322Y0271311D01*
X0172378Y0271373D01*
X0172436Y0271433D01*
X0172498Y0271490D01*
X0172562Y0271543D01*
X0172629Y0271594D01*
X0172698Y0271641D01*
X0172769Y0271686D01*
X0172842Y0271726D01*
X0172917Y0271763D01*
X0172994Y0271797D01*
X0173072Y0271827D01*
X0173151Y0271853D01*
X0173232Y0271876D01*
X0173314Y0271894D01*
X0173396Y0271909D01*
X0173479Y0271920D01*
X0173562Y0271927D01*
X0173646Y0271930D01*
X0173730Y0271929D01*
X0173813Y0271924D01*
X0173897Y0271915D01*
X0173979Y0271902D01*
X0174061Y0271886D01*
X0174142Y0271865D01*
X0174223Y0271841D01*
X0174301Y0271813D01*
X0174379Y0271781D01*
X0174455Y0271745D01*
X0174529Y0271706D01*
X0174601Y0271664D01*
X0174671Y0271618D01*
X0174739Y0271569D01*
X0174804Y0271517D01*
X0174867Y0271462D01*
X0174927Y0271404D01*
X0174985Y0271343D01*
X0175039Y0271279D01*
X0175091Y0271213D01*
X0175139Y0271145D01*
X0175184Y0271074D01*
X0175225Y0271001D01*
X0175264Y0270927D01*
X0175298Y0270851D01*
X0175329Y0270773D01*
X0175356Y0270694D01*
X0175380Y0270613D01*
X0175399Y0270532D01*
X0175415Y0270450D01*
X0175427Y0270367D01*
X0175435Y0270283D01*
X0175439Y0270200D01*
X0175439Y0270116D01*
X0175435Y0270033D01*
X0175427Y0269949D01*
X0175415Y0269866D01*
X0175399Y0269784D01*
X0175380Y0269703D01*
X0175356Y0269622D01*
X0175329Y0269543D01*
X0175298Y0269465D01*
X0175264Y0269389D01*
X0175225Y0269315D01*
X0175184Y0269242D01*
X0175139Y0269171D01*
X0175091Y0269103D01*
X0175039Y0269037D01*
X0174985Y0268973D01*
X0174927Y0268912D01*
X0174867Y0268854D01*
X0174804Y0268799D01*
X0174739Y0268747D01*
X0174671Y0268698D01*
X0174601Y0268652D01*
X0174529Y0268610D01*
X0174455Y0268571D01*
X0174379Y0268535D01*
X0174301Y0268503D01*
X0174223Y0268475D01*
X0174142Y0268451D01*
X0174061Y0268430D01*
X0173979Y0268414D01*
X0173897Y0268401D01*
X0173813Y0268392D01*
X0173730Y0268387D01*
X0173646Y0268386D01*
X0173562Y0268389D01*
X0173479Y0268396D01*
X0173396Y0268407D01*
X0173314Y0268422D01*
X0173232Y0268440D01*
X0173151Y0268463D01*
X0173072Y0268489D01*
X0172994Y0268519D01*
X0172917Y0268553D01*
X0172842Y0268590D01*
X0172769Y0268630D01*
X0172698Y0268675D01*
X0172629Y0268722D01*
X0172562Y0268773D01*
X0172498Y0268826D01*
X0172436Y0268883D01*
X0172378Y0268943D01*
X0172322Y0269005D01*
X0172269Y0269070D01*
X0172219Y0269137D01*
X0172172Y0269206D01*
X0172129Y0269278D01*
X0172089Y0269352D01*
X0172053Y0269427D01*
X0172020Y0269504D01*
X0171991Y0269583D01*
X0171966Y0269662D01*
X0171944Y0269743D01*
X0171927Y0269825D01*
X0171913Y0269908D01*
X0171903Y0269991D01*
X0171897Y0270074D01*
X0171895Y0270158D01*
X0285761Y0285496D02*
X0285763Y0285649D01*
X0285769Y0285803D01*
X0285779Y0285956D01*
X0285793Y0286108D01*
X0285811Y0286261D01*
X0285833Y0286412D01*
X0285858Y0286563D01*
X0285888Y0286714D01*
X0285922Y0286864D01*
X0285959Y0287012D01*
X0286000Y0287160D01*
X0286045Y0287306D01*
X0286094Y0287452D01*
X0286147Y0287596D01*
X0286203Y0287738D01*
X0286263Y0287879D01*
X0286327Y0288019D01*
X0286394Y0288157D01*
X0286465Y0288293D01*
X0286540Y0288427D01*
X0286617Y0288559D01*
X0286699Y0288689D01*
X0286783Y0288817D01*
X0286871Y0288943D01*
X0286962Y0289066D01*
X0287056Y0289187D01*
X0287154Y0289305D01*
X0287254Y0289421D01*
X0287358Y0289534D01*
X0287464Y0289645D01*
X0287573Y0289753D01*
X0287685Y0289858D01*
X0287799Y0289959D01*
X0287917Y0290058D01*
X0288036Y0290154D01*
X0288158Y0290247D01*
X0288283Y0290336D01*
X0288410Y0290423D01*
X0288539Y0290505D01*
X0288670Y0290585D01*
X0288803Y0290661D01*
X0288938Y0290734D01*
X0289075Y0290803D01*
X0289214Y0290868D01*
X0289354Y0290930D01*
X0289496Y0290988D01*
X0289639Y0291043D01*
X0289784Y0291094D01*
X0289930Y0291141D01*
X0290077Y0291184D01*
X0290225Y0291223D01*
X0290374Y0291259D01*
X0290524Y0291290D01*
X0290675Y0291318D01*
X0290826Y0291342D01*
X0290979Y0291362D01*
X0291131Y0291378D01*
X0291284Y0291390D01*
X0291437Y0291398D01*
X0291590Y0291402D01*
X0291744Y0291402D01*
X0291897Y0291398D01*
X0292050Y0291390D01*
X0292203Y0291378D01*
X0292355Y0291362D01*
X0292508Y0291342D01*
X0292659Y0291318D01*
X0292810Y0291290D01*
X0292960Y0291259D01*
X0293109Y0291223D01*
X0293257Y0291184D01*
X0293404Y0291141D01*
X0293550Y0291094D01*
X0293695Y0291043D01*
X0293838Y0290988D01*
X0293980Y0290930D01*
X0294120Y0290868D01*
X0294259Y0290803D01*
X0294396Y0290734D01*
X0294531Y0290661D01*
X0294664Y0290585D01*
X0294795Y0290505D01*
X0294924Y0290423D01*
X0295051Y0290336D01*
X0295176Y0290247D01*
X0295298Y0290154D01*
X0295417Y0290058D01*
X0295535Y0289959D01*
X0295649Y0289858D01*
X0295761Y0289753D01*
X0295870Y0289645D01*
X0295976Y0289534D01*
X0296080Y0289421D01*
X0296180Y0289305D01*
X0296278Y0289187D01*
X0296372Y0289066D01*
X0296463Y0288943D01*
X0296551Y0288817D01*
X0296635Y0288689D01*
X0296717Y0288559D01*
X0296794Y0288427D01*
X0296869Y0288293D01*
X0296940Y0288157D01*
X0297007Y0288019D01*
X0297071Y0287879D01*
X0297131Y0287738D01*
X0297187Y0287596D01*
X0297240Y0287452D01*
X0297289Y0287306D01*
X0297334Y0287160D01*
X0297375Y0287012D01*
X0297412Y0286864D01*
X0297446Y0286714D01*
X0297476Y0286563D01*
X0297501Y0286412D01*
X0297523Y0286261D01*
X0297541Y0286108D01*
X0297555Y0285956D01*
X0297565Y0285803D01*
X0297571Y0285649D01*
X0297573Y0285496D01*
X0297571Y0285343D01*
X0297565Y0285189D01*
X0297555Y0285036D01*
X0297541Y0284884D01*
X0297523Y0284731D01*
X0297501Y0284580D01*
X0297476Y0284429D01*
X0297446Y0284278D01*
X0297412Y0284128D01*
X0297375Y0283980D01*
X0297334Y0283832D01*
X0297289Y0283686D01*
X0297240Y0283540D01*
X0297187Y0283396D01*
X0297131Y0283254D01*
X0297071Y0283113D01*
X0297007Y0282973D01*
X0296940Y0282835D01*
X0296869Y0282699D01*
X0296794Y0282565D01*
X0296717Y0282433D01*
X0296635Y0282303D01*
X0296551Y0282175D01*
X0296463Y0282049D01*
X0296372Y0281926D01*
X0296278Y0281805D01*
X0296180Y0281687D01*
X0296080Y0281571D01*
X0295976Y0281458D01*
X0295870Y0281347D01*
X0295761Y0281239D01*
X0295649Y0281134D01*
X0295535Y0281033D01*
X0295417Y0280934D01*
X0295298Y0280838D01*
X0295176Y0280745D01*
X0295051Y0280656D01*
X0294924Y0280569D01*
X0294795Y0280487D01*
X0294664Y0280407D01*
X0294531Y0280331D01*
X0294396Y0280258D01*
X0294259Y0280189D01*
X0294120Y0280124D01*
X0293980Y0280062D01*
X0293838Y0280004D01*
X0293695Y0279949D01*
X0293550Y0279898D01*
X0293404Y0279851D01*
X0293257Y0279808D01*
X0293109Y0279769D01*
X0292960Y0279733D01*
X0292810Y0279702D01*
X0292659Y0279674D01*
X0292508Y0279650D01*
X0292355Y0279630D01*
X0292203Y0279614D01*
X0292050Y0279602D01*
X0291897Y0279594D01*
X0291744Y0279590D01*
X0291590Y0279590D01*
X0291437Y0279594D01*
X0291284Y0279602D01*
X0291131Y0279614D01*
X0290979Y0279630D01*
X0290826Y0279650D01*
X0290675Y0279674D01*
X0290524Y0279702D01*
X0290374Y0279733D01*
X0290225Y0279769D01*
X0290077Y0279808D01*
X0289930Y0279851D01*
X0289784Y0279898D01*
X0289639Y0279949D01*
X0289496Y0280004D01*
X0289354Y0280062D01*
X0289214Y0280124D01*
X0289075Y0280189D01*
X0288938Y0280258D01*
X0288803Y0280331D01*
X0288670Y0280407D01*
X0288539Y0280487D01*
X0288410Y0280569D01*
X0288283Y0280656D01*
X0288158Y0280745D01*
X0288036Y0280838D01*
X0287917Y0280934D01*
X0287799Y0281033D01*
X0287685Y0281134D01*
X0287573Y0281239D01*
X0287464Y0281347D01*
X0287358Y0281458D01*
X0287254Y0281571D01*
X0287154Y0281687D01*
X0287056Y0281805D01*
X0286962Y0281926D01*
X0286871Y0282049D01*
X0286783Y0282175D01*
X0286699Y0282303D01*
X0286617Y0282433D01*
X0286540Y0282565D01*
X0286465Y0282699D01*
X0286394Y0282835D01*
X0286327Y0282973D01*
X0286263Y0283113D01*
X0286203Y0283254D01*
X0286147Y0283396D01*
X0286094Y0283540D01*
X0286045Y0283686D01*
X0286000Y0283832D01*
X0285959Y0283980D01*
X0285922Y0284128D01*
X0285888Y0284278D01*
X0285858Y0284429D01*
X0285833Y0284580D01*
X0285811Y0284731D01*
X0285793Y0284884D01*
X0285779Y0285036D01*
X0285769Y0285189D01*
X0285763Y0285343D01*
X0285761Y0285496D01*
X0285761Y0321496D02*
X0285763Y0321649D01*
X0285769Y0321803D01*
X0285779Y0321956D01*
X0285793Y0322108D01*
X0285811Y0322261D01*
X0285833Y0322412D01*
X0285858Y0322563D01*
X0285888Y0322714D01*
X0285922Y0322864D01*
X0285959Y0323012D01*
X0286000Y0323160D01*
X0286045Y0323306D01*
X0286094Y0323452D01*
X0286147Y0323596D01*
X0286203Y0323738D01*
X0286263Y0323879D01*
X0286327Y0324019D01*
X0286394Y0324157D01*
X0286465Y0324293D01*
X0286540Y0324427D01*
X0286617Y0324559D01*
X0286699Y0324689D01*
X0286783Y0324817D01*
X0286871Y0324943D01*
X0286962Y0325066D01*
X0287056Y0325187D01*
X0287154Y0325305D01*
X0287254Y0325421D01*
X0287358Y0325534D01*
X0287464Y0325645D01*
X0287573Y0325753D01*
X0287685Y0325858D01*
X0287799Y0325959D01*
X0287917Y0326058D01*
X0288036Y0326154D01*
X0288158Y0326247D01*
X0288283Y0326336D01*
X0288410Y0326423D01*
X0288539Y0326505D01*
X0288670Y0326585D01*
X0288803Y0326661D01*
X0288938Y0326734D01*
X0289075Y0326803D01*
X0289214Y0326868D01*
X0289354Y0326930D01*
X0289496Y0326988D01*
X0289639Y0327043D01*
X0289784Y0327094D01*
X0289930Y0327141D01*
X0290077Y0327184D01*
X0290225Y0327223D01*
X0290374Y0327259D01*
X0290524Y0327290D01*
X0290675Y0327318D01*
X0290826Y0327342D01*
X0290979Y0327362D01*
X0291131Y0327378D01*
X0291284Y0327390D01*
X0291437Y0327398D01*
X0291590Y0327402D01*
X0291744Y0327402D01*
X0291897Y0327398D01*
X0292050Y0327390D01*
X0292203Y0327378D01*
X0292355Y0327362D01*
X0292508Y0327342D01*
X0292659Y0327318D01*
X0292810Y0327290D01*
X0292960Y0327259D01*
X0293109Y0327223D01*
X0293257Y0327184D01*
X0293404Y0327141D01*
X0293550Y0327094D01*
X0293695Y0327043D01*
X0293838Y0326988D01*
X0293980Y0326930D01*
X0294120Y0326868D01*
X0294259Y0326803D01*
X0294396Y0326734D01*
X0294531Y0326661D01*
X0294664Y0326585D01*
X0294795Y0326505D01*
X0294924Y0326423D01*
X0295051Y0326336D01*
X0295176Y0326247D01*
X0295298Y0326154D01*
X0295417Y0326058D01*
X0295535Y0325959D01*
X0295649Y0325858D01*
X0295761Y0325753D01*
X0295870Y0325645D01*
X0295976Y0325534D01*
X0296080Y0325421D01*
X0296180Y0325305D01*
X0296278Y0325187D01*
X0296372Y0325066D01*
X0296463Y0324943D01*
X0296551Y0324817D01*
X0296635Y0324689D01*
X0296717Y0324559D01*
X0296794Y0324427D01*
X0296869Y0324293D01*
X0296940Y0324157D01*
X0297007Y0324019D01*
X0297071Y0323879D01*
X0297131Y0323738D01*
X0297187Y0323596D01*
X0297240Y0323452D01*
X0297289Y0323306D01*
X0297334Y0323160D01*
X0297375Y0323012D01*
X0297412Y0322864D01*
X0297446Y0322714D01*
X0297476Y0322563D01*
X0297501Y0322412D01*
X0297523Y0322261D01*
X0297541Y0322108D01*
X0297555Y0321956D01*
X0297565Y0321803D01*
X0297571Y0321649D01*
X0297573Y0321496D01*
X0297571Y0321343D01*
X0297565Y0321189D01*
X0297555Y0321036D01*
X0297541Y0320884D01*
X0297523Y0320731D01*
X0297501Y0320580D01*
X0297476Y0320429D01*
X0297446Y0320278D01*
X0297412Y0320128D01*
X0297375Y0319980D01*
X0297334Y0319832D01*
X0297289Y0319686D01*
X0297240Y0319540D01*
X0297187Y0319396D01*
X0297131Y0319254D01*
X0297071Y0319113D01*
X0297007Y0318973D01*
X0296940Y0318835D01*
X0296869Y0318699D01*
X0296794Y0318565D01*
X0296717Y0318433D01*
X0296635Y0318303D01*
X0296551Y0318175D01*
X0296463Y0318049D01*
X0296372Y0317926D01*
X0296278Y0317805D01*
X0296180Y0317687D01*
X0296080Y0317571D01*
X0295976Y0317458D01*
X0295870Y0317347D01*
X0295761Y0317239D01*
X0295649Y0317134D01*
X0295535Y0317033D01*
X0295417Y0316934D01*
X0295298Y0316838D01*
X0295176Y0316745D01*
X0295051Y0316656D01*
X0294924Y0316569D01*
X0294795Y0316487D01*
X0294664Y0316407D01*
X0294531Y0316331D01*
X0294396Y0316258D01*
X0294259Y0316189D01*
X0294120Y0316124D01*
X0293980Y0316062D01*
X0293838Y0316004D01*
X0293695Y0315949D01*
X0293550Y0315898D01*
X0293404Y0315851D01*
X0293257Y0315808D01*
X0293109Y0315769D01*
X0292960Y0315733D01*
X0292810Y0315702D01*
X0292659Y0315674D01*
X0292508Y0315650D01*
X0292355Y0315630D01*
X0292203Y0315614D01*
X0292050Y0315602D01*
X0291897Y0315594D01*
X0291744Y0315590D01*
X0291590Y0315590D01*
X0291437Y0315594D01*
X0291284Y0315602D01*
X0291131Y0315614D01*
X0290979Y0315630D01*
X0290826Y0315650D01*
X0290675Y0315674D01*
X0290524Y0315702D01*
X0290374Y0315733D01*
X0290225Y0315769D01*
X0290077Y0315808D01*
X0289930Y0315851D01*
X0289784Y0315898D01*
X0289639Y0315949D01*
X0289496Y0316004D01*
X0289354Y0316062D01*
X0289214Y0316124D01*
X0289075Y0316189D01*
X0288938Y0316258D01*
X0288803Y0316331D01*
X0288670Y0316407D01*
X0288539Y0316487D01*
X0288410Y0316569D01*
X0288283Y0316656D01*
X0288158Y0316745D01*
X0288036Y0316838D01*
X0287917Y0316934D01*
X0287799Y0317033D01*
X0287685Y0317134D01*
X0287573Y0317239D01*
X0287464Y0317347D01*
X0287358Y0317458D01*
X0287254Y0317571D01*
X0287154Y0317687D01*
X0287056Y0317805D01*
X0286962Y0317926D01*
X0286871Y0318049D01*
X0286783Y0318175D01*
X0286699Y0318303D01*
X0286617Y0318433D01*
X0286540Y0318565D01*
X0286465Y0318699D01*
X0286394Y0318835D01*
X0286327Y0318973D01*
X0286263Y0319113D01*
X0286203Y0319254D01*
X0286147Y0319396D01*
X0286094Y0319540D01*
X0286045Y0319686D01*
X0286000Y0319832D01*
X0285959Y0319980D01*
X0285922Y0320128D01*
X0285888Y0320278D01*
X0285858Y0320429D01*
X0285833Y0320580D01*
X0285811Y0320731D01*
X0285793Y0320884D01*
X0285779Y0321036D01*
X0285769Y0321189D01*
X0285763Y0321343D01*
X0285761Y0321496D01*
X0383761Y0321496D02*
X0383763Y0321649D01*
X0383769Y0321803D01*
X0383779Y0321956D01*
X0383793Y0322108D01*
X0383811Y0322261D01*
X0383833Y0322412D01*
X0383858Y0322563D01*
X0383888Y0322714D01*
X0383922Y0322864D01*
X0383959Y0323012D01*
X0384000Y0323160D01*
X0384045Y0323306D01*
X0384094Y0323452D01*
X0384147Y0323596D01*
X0384203Y0323738D01*
X0384263Y0323879D01*
X0384327Y0324019D01*
X0384394Y0324157D01*
X0384465Y0324293D01*
X0384540Y0324427D01*
X0384617Y0324559D01*
X0384699Y0324689D01*
X0384783Y0324817D01*
X0384871Y0324943D01*
X0384962Y0325066D01*
X0385056Y0325187D01*
X0385154Y0325305D01*
X0385254Y0325421D01*
X0385358Y0325534D01*
X0385464Y0325645D01*
X0385573Y0325753D01*
X0385685Y0325858D01*
X0385799Y0325959D01*
X0385917Y0326058D01*
X0386036Y0326154D01*
X0386158Y0326247D01*
X0386283Y0326336D01*
X0386410Y0326423D01*
X0386539Y0326505D01*
X0386670Y0326585D01*
X0386803Y0326661D01*
X0386938Y0326734D01*
X0387075Y0326803D01*
X0387214Y0326868D01*
X0387354Y0326930D01*
X0387496Y0326988D01*
X0387639Y0327043D01*
X0387784Y0327094D01*
X0387930Y0327141D01*
X0388077Y0327184D01*
X0388225Y0327223D01*
X0388374Y0327259D01*
X0388524Y0327290D01*
X0388675Y0327318D01*
X0388826Y0327342D01*
X0388979Y0327362D01*
X0389131Y0327378D01*
X0389284Y0327390D01*
X0389437Y0327398D01*
X0389590Y0327402D01*
X0389744Y0327402D01*
X0389897Y0327398D01*
X0390050Y0327390D01*
X0390203Y0327378D01*
X0390355Y0327362D01*
X0390508Y0327342D01*
X0390659Y0327318D01*
X0390810Y0327290D01*
X0390960Y0327259D01*
X0391109Y0327223D01*
X0391257Y0327184D01*
X0391404Y0327141D01*
X0391550Y0327094D01*
X0391695Y0327043D01*
X0391838Y0326988D01*
X0391980Y0326930D01*
X0392120Y0326868D01*
X0392259Y0326803D01*
X0392396Y0326734D01*
X0392531Y0326661D01*
X0392664Y0326585D01*
X0392795Y0326505D01*
X0392924Y0326423D01*
X0393051Y0326336D01*
X0393176Y0326247D01*
X0393298Y0326154D01*
X0393417Y0326058D01*
X0393535Y0325959D01*
X0393649Y0325858D01*
X0393761Y0325753D01*
X0393870Y0325645D01*
X0393976Y0325534D01*
X0394080Y0325421D01*
X0394180Y0325305D01*
X0394278Y0325187D01*
X0394372Y0325066D01*
X0394463Y0324943D01*
X0394551Y0324817D01*
X0394635Y0324689D01*
X0394717Y0324559D01*
X0394794Y0324427D01*
X0394869Y0324293D01*
X0394940Y0324157D01*
X0395007Y0324019D01*
X0395071Y0323879D01*
X0395131Y0323738D01*
X0395187Y0323596D01*
X0395240Y0323452D01*
X0395289Y0323306D01*
X0395334Y0323160D01*
X0395375Y0323012D01*
X0395412Y0322864D01*
X0395446Y0322714D01*
X0395476Y0322563D01*
X0395501Y0322412D01*
X0395523Y0322261D01*
X0395541Y0322108D01*
X0395555Y0321956D01*
X0395565Y0321803D01*
X0395571Y0321649D01*
X0395573Y0321496D01*
X0395571Y0321343D01*
X0395565Y0321189D01*
X0395555Y0321036D01*
X0395541Y0320884D01*
X0395523Y0320731D01*
X0395501Y0320580D01*
X0395476Y0320429D01*
X0395446Y0320278D01*
X0395412Y0320128D01*
X0395375Y0319980D01*
X0395334Y0319832D01*
X0395289Y0319686D01*
X0395240Y0319540D01*
X0395187Y0319396D01*
X0395131Y0319254D01*
X0395071Y0319113D01*
X0395007Y0318973D01*
X0394940Y0318835D01*
X0394869Y0318699D01*
X0394794Y0318565D01*
X0394717Y0318433D01*
X0394635Y0318303D01*
X0394551Y0318175D01*
X0394463Y0318049D01*
X0394372Y0317926D01*
X0394278Y0317805D01*
X0394180Y0317687D01*
X0394080Y0317571D01*
X0393976Y0317458D01*
X0393870Y0317347D01*
X0393761Y0317239D01*
X0393649Y0317134D01*
X0393535Y0317033D01*
X0393417Y0316934D01*
X0393298Y0316838D01*
X0393176Y0316745D01*
X0393051Y0316656D01*
X0392924Y0316569D01*
X0392795Y0316487D01*
X0392664Y0316407D01*
X0392531Y0316331D01*
X0392396Y0316258D01*
X0392259Y0316189D01*
X0392120Y0316124D01*
X0391980Y0316062D01*
X0391838Y0316004D01*
X0391695Y0315949D01*
X0391550Y0315898D01*
X0391404Y0315851D01*
X0391257Y0315808D01*
X0391109Y0315769D01*
X0390960Y0315733D01*
X0390810Y0315702D01*
X0390659Y0315674D01*
X0390508Y0315650D01*
X0390355Y0315630D01*
X0390203Y0315614D01*
X0390050Y0315602D01*
X0389897Y0315594D01*
X0389744Y0315590D01*
X0389590Y0315590D01*
X0389437Y0315594D01*
X0389284Y0315602D01*
X0389131Y0315614D01*
X0388979Y0315630D01*
X0388826Y0315650D01*
X0388675Y0315674D01*
X0388524Y0315702D01*
X0388374Y0315733D01*
X0388225Y0315769D01*
X0388077Y0315808D01*
X0387930Y0315851D01*
X0387784Y0315898D01*
X0387639Y0315949D01*
X0387496Y0316004D01*
X0387354Y0316062D01*
X0387214Y0316124D01*
X0387075Y0316189D01*
X0386938Y0316258D01*
X0386803Y0316331D01*
X0386670Y0316407D01*
X0386539Y0316487D01*
X0386410Y0316569D01*
X0386283Y0316656D01*
X0386158Y0316745D01*
X0386036Y0316838D01*
X0385917Y0316934D01*
X0385799Y0317033D01*
X0385685Y0317134D01*
X0385573Y0317239D01*
X0385464Y0317347D01*
X0385358Y0317458D01*
X0385254Y0317571D01*
X0385154Y0317687D01*
X0385056Y0317805D01*
X0384962Y0317926D01*
X0384871Y0318049D01*
X0384783Y0318175D01*
X0384699Y0318303D01*
X0384617Y0318433D01*
X0384540Y0318565D01*
X0384465Y0318699D01*
X0384394Y0318835D01*
X0384327Y0318973D01*
X0384263Y0319113D01*
X0384203Y0319254D01*
X0384147Y0319396D01*
X0384094Y0319540D01*
X0384045Y0319686D01*
X0384000Y0319832D01*
X0383959Y0319980D01*
X0383922Y0320128D01*
X0383888Y0320278D01*
X0383858Y0320429D01*
X0383833Y0320580D01*
X0383811Y0320731D01*
X0383793Y0320884D01*
X0383779Y0321036D01*
X0383769Y0321189D01*
X0383763Y0321343D01*
X0383761Y0321496D01*
X0383761Y0285496D02*
X0383763Y0285649D01*
X0383769Y0285803D01*
X0383779Y0285956D01*
X0383793Y0286108D01*
X0383811Y0286261D01*
X0383833Y0286412D01*
X0383858Y0286563D01*
X0383888Y0286714D01*
X0383922Y0286864D01*
X0383959Y0287012D01*
X0384000Y0287160D01*
X0384045Y0287306D01*
X0384094Y0287452D01*
X0384147Y0287596D01*
X0384203Y0287738D01*
X0384263Y0287879D01*
X0384327Y0288019D01*
X0384394Y0288157D01*
X0384465Y0288293D01*
X0384540Y0288427D01*
X0384617Y0288559D01*
X0384699Y0288689D01*
X0384783Y0288817D01*
X0384871Y0288943D01*
X0384962Y0289066D01*
X0385056Y0289187D01*
X0385154Y0289305D01*
X0385254Y0289421D01*
X0385358Y0289534D01*
X0385464Y0289645D01*
X0385573Y0289753D01*
X0385685Y0289858D01*
X0385799Y0289959D01*
X0385917Y0290058D01*
X0386036Y0290154D01*
X0386158Y0290247D01*
X0386283Y0290336D01*
X0386410Y0290423D01*
X0386539Y0290505D01*
X0386670Y0290585D01*
X0386803Y0290661D01*
X0386938Y0290734D01*
X0387075Y0290803D01*
X0387214Y0290868D01*
X0387354Y0290930D01*
X0387496Y0290988D01*
X0387639Y0291043D01*
X0387784Y0291094D01*
X0387930Y0291141D01*
X0388077Y0291184D01*
X0388225Y0291223D01*
X0388374Y0291259D01*
X0388524Y0291290D01*
X0388675Y0291318D01*
X0388826Y0291342D01*
X0388979Y0291362D01*
X0389131Y0291378D01*
X0389284Y0291390D01*
X0389437Y0291398D01*
X0389590Y0291402D01*
X0389744Y0291402D01*
X0389897Y0291398D01*
X0390050Y0291390D01*
X0390203Y0291378D01*
X0390355Y0291362D01*
X0390508Y0291342D01*
X0390659Y0291318D01*
X0390810Y0291290D01*
X0390960Y0291259D01*
X0391109Y0291223D01*
X0391257Y0291184D01*
X0391404Y0291141D01*
X0391550Y0291094D01*
X0391695Y0291043D01*
X0391838Y0290988D01*
X0391980Y0290930D01*
X0392120Y0290868D01*
X0392259Y0290803D01*
X0392396Y0290734D01*
X0392531Y0290661D01*
X0392664Y0290585D01*
X0392795Y0290505D01*
X0392924Y0290423D01*
X0393051Y0290336D01*
X0393176Y0290247D01*
X0393298Y0290154D01*
X0393417Y0290058D01*
X0393535Y0289959D01*
X0393649Y0289858D01*
X0393761Y0289753D01*
X0393870Y0289645D01*
X0393976Y0289534D01*
X0394080Y0289421D01*
X0394180Y0289305D01*
X0394278Y0289187D01*
X0394372Y0289066D01*
X0394463Y0288943D01*
X0394551Y0288817D01*
X0394635Y0288689D01*
X0394717Y0288559D01*
X0394794Y0288427D01*
X0394869Y0288293D01*
X0394940Y0288157D01*
X0395007Y0288019D01*
X0395071Y0287879D01*
X0395131Y0287738D01*
X0395187Y0287596D01*
X0395240Y0287452D01*
X0395289Y0287306D01*
X0395334Y0287160D01*
X0395375Y0287012D01*
X0395412Y0286864D01*
X0395446Y0286714D01*
X0395476Y0286563D01*
X0395501Y0286412D01*
X0395523Y0286261D01*
X0395541Y0286108D01*
X0395555Y0285956D01*
X0395565Y0285803D01*
X0395571Y0285649D01*
X0395573Y0285496D01*
X0395571Y0285343D01*
X0395565Y0285189D01*
X0395555Y0285036D01*
X0395541Y0284884D01*
X0395523Y0284731D01*
X0395501Y0284580D01*
X0395476Y0284429D01*
X0395446Y0284278D01*
X0395412Y0284128D01*
X0395375Y0283980D01*
X0395334Y0283832D01*
X0395289Y0283686D01*
X0395240Y0283540D01*
X0395187Y0283396D01*
X0395131Y0283254D01*
X0395071Y0283113D01*
X0395007Y0282973D01*
X0394940Y0282835D01*
X0394869Y0282699D01*
X0394794Y0282565D01*
X0394717Y0282433D01*
X0394635Y0282303D01*
X0394551Y0282175D01*
X0394463Y0282049D01*
X0394372Y0281926D01*
X0394278Y0281805D01*
X0394180Y0281687D01*
X0394080Y0281571D01*
X0393976Y0281458D01*
X0393870Y0281347D01*
X0393761Y0281239D01*
X0393649Y0281134D01*
X0393535Y0281033D01*
X0393417Y0280934D01*
X0393298Y0280838D01*
X0393176Y0280745D01*
X0393051Y0280656D01*
X0392924Y0280569D01*
X0392795Y0280487D01*
X0392664Y0280407D01*
X0392531Y0280331D01*
X0392396Y0280258D01*
X0392259Y0280189D01*
X0392120Y0280124D01*
X0391980Y0280062D01*
X0391838Y0280004D01*
X0391695Y0279949D01*
X0391550Y0279898D01*
X0391404Y0279851D01*
X0391257Y0279808D01*
X0391109Y0279769D01*
X0390960Y0279733D01*
X0390810Y0279702D01*
X0390659Y0279674D01*
X0390508Y0279650D01*
X0390355Y0279630D01*
X0390203Y0279614D01*
X0390050Y0279602D01*
X0389897Y0279594D01*
X0389744Y0279590D01*
X0389590Y0279590D01*
X0389437Y0279594D01*
X0389284Y0279602D01*
X0389131Y0279614D01*
X0388979Y0279630D01*
X0388826Y0279650D01*
X0388675Y0279674D01*
X0388524Y0279702D01*
X0388374Y0279733D01*
X0388225Y0279769D01*
X0388077Y0279808D01*
X0387930Y0279851D01*
X0387784Y0279898D01*
X0387639Y0279949D01*
X0387496Y0280004D01*
X0387354Y0280062D01*
X0387214Y0280124D01*
X0387075Y0280189D01*
X0386938Y0280258D01*
X0386803Y0280331D01*
X0386670Y0280407D01*
X0386539Y0280487D01*
X0386410Y0280569D01*
X0386283Y0280656D01*
X0386158Y0280745D01*
X0386036Y0280838D01*
X0385917Y0280934D01*
X0385799Y0281033D01*
X0385685Y0281134D01*
X0385573Y0281239D01*
X0385464Y0281347D01*
X0385358Y0281458D01*
X0385254Y0281571D01*
X0385154Y0281687D01*
X0385056Y0281805D01*
X0384962Y0281926D01*
X0384871Y0282049D01*
X0384783Y0282175D01*
X0384699Y0282303D01*
X0384617Y0282433D01*
X0384540Y0282565D01*
X0384465Y0282699D01*
X0384394Y0282835D01*
X0384327Y0282973D01*
X0384263Y0283113D01*
X0384203Y0283254D01*
X0384147Y0283396D01*
X0384094Y0283540D01*
X0384045Y0283686D01*
X0384000Y0283832D01*
X0383959Y0283980D01*
X0383922Y0284128D01*
X0383888Y0284278D01*
X0383858Y0284429D01*
X0383833Y0284580D01*
X0383811Y0284731D01*
X0383793Y0284884D01*
X0383779Y0285036D01*
X0383769Y0285189D01*
X0383763Y0285343D01*
X0383761Y0285496D01*
X0474202Y0200638D02*
X0474204Y0200791D01*
X0474210Y0200945D01*
X0474220Y0201098D01*
X0474234Y0201250D01*
X0474252Y0201403D01*
X0474274Y0201554D01*
X0474299Y0201705D01*
X0474329Y0201856D01*
X0474363Y0202006D01*
X0474400Y0202154D01*
X0474441Y0202302D01*
X0474486Y0202448D01*
X0474535Y0202594D01*
X0474588Y0202738D01*
X0474644Y0202880D01*
X0474704Y0203021D01*
X0474768Y0203161D01*
X0474835Y0203299D01*
X0474906Y0203435D01*
X0474981Y0203569D01*
X0475058Y0203701D01*
X0475140Y0203831D01*
X0475224Y0203959D01*
X0475312Y0204085D01*
X0475403Y0204208D01*
X0475497Y0204329D01*
X0475595Y0204447D01*
X0475695Y0204563D01*
X0475799Y0204676D01*
X0475905Y0204787D01*
X0476014Y0204895D01*
X0476126Y0205000D01*
X0476240Y0205101D01*
X0476358Y0205200D01*
X0476477Y0205296D01*
X0476599Y0205389D01*
X0476724Y0205478D01*
X0476851Y0205565D01*
X0476980Y0205647D01*
X0477111Y0205727D01*
X0477244Y0205803D01*
X0477379Y0205876D01*
X0477516Y0205945D01*
X0477655Y0206010D01*
X0477795Y0206072D01*
X0477937Y0206130D01*
X0478080Y0206185D01*
X0478225Y0206236D01*
X0478371Y0206283D01*
X0478518Y0206326D01*
X0478666Y0206365D01*
X0478815Y0206401D01*
X0478965Y0206432D01*
X0479116Y0206460D01*
X0479267Y0206484D01*
X0479420Y0206504D01*
X0479572Y0206520D01*
X0479725Y0206532D01*
X0479878Y0206540D01*
X0480031Y0206544D01*
X0480185Y0206544D01*
X0480338Y0206540D01*
X0480491Y0206532D01*
X0480644Y0206520D01*
X0480796Y0206504D01*
X0480949Y0206484D01*
X0481100Y0206460D01*
X0481251Y0206432D01*
X0481401Y0206401D01*
X0481550Y0206365D01*
X0481698Y0206326D01*
X0481845Y0206283D01*
X0481991Y0206236D01*
X0482136Y0206185D01*
X0482279Y0206130D01*
X0482421Y0206072D01*
X0482561Y0206010D01*
X0482700Y0205945D01*
X0482837Y0205876D01*
X0482972Y0205803D01*
X0483105Y0205727D01*
X0483236Y0205647D01*
X0483365Y0205565D01*
X0483492Y0205478D01*
X0483617Y0205389D01*
X0483739Y0205296D01*
X0483858Y0205200D01*
X0483976Y0205101D01*
X0484090Y0205000D01*
X0484202Y0204895D01*
X0484311Y0204787D01*
X0484417Y0204676D01*
X0484521Y0204563D01*
X0484621Y0204447D01*
X0484719Y0204329D01*
X0484813Y0204208D01*
X0484904Y0204085D01*
X0484992Y0203959D01*
X0485076Y0203831D01*
X0485158Y0203701D01*
X0485235Y0203569D01*
X0485310Y0203435D01*
X0485381Y0203299D01*
X0485448Y0203161D01*
X0485512Y0203021D01*
X0485572Y0202880D01*
X0485628Y0202738D01*
X0485681Y0202594D01*
X0485730Y0202448D01*
X0485775Y0202302D01*
X0485816Y0202154D01*
X0485853Y0202006D01*
X0485887Y0201856D01*
X0485917Y0201705D01*
X0485942Y0201554D01*
X0485964Y0201403D01*
X0485982Y0201250D01*
X0485996Y0201098D01*
X0486006Y0200945D01*
X0486012Y0200791D01*
X0486014Y0200638D01*
X0486012Y0200485D01*
X0486006Y0200331D01*
X0485996Y0200178D01*
X0485982Y0200026D01*
X0485964Y0199873D01*
X0485942Y0199722D01*
X0485917Y0199571D01*
X0485887Y0199420D01*
X0485853Y0199270D01*
X0485816Y0199122D01*
X0485775Y0198974D01*
X0485730Y0198828D01*
X0485681Y0198682D01*
X0485628Y0198538D01*
X0485572Y0198396D01*
X0485512Y0198255D01*
X0485448Y0198115D01*
X0485381Y0197977D01*
X0485310Y0197841D01*
X0485235Y0197707D01*
X0485158Y0197575D01*
X0485076Y0197445D01*
X0484992Y0197317D01*
X0484904Y0197191D01*
X0484813Y0197068D01*
X0484719Y0196947D01*
X0484621Y0196829D01*
X0484521Y0196713D01*
X0484417Y0196600D01*
X0484311Y0196489D01*
X0484202Y0196381D01*
X0484090Y0196276D01*
X0483976Y0196175D01*
X0483858Y0196076D01*
X0483739Y0195980D01*
X0483617Y0195887D01*
X0483492Y0195798D01*
X0483365Y0195711D01*
X0483236Y0195629D01*
X0483105Y0195549D01*
X0482972Y0195473D01*
X0482837Y0195400D01*
X0482700Y0195331D01*
X0482561Y0195266D01*
X0482421Y0195204D01*
X0482279Y0195146D01*
X0482136Y0195091D01*
X0481991Y0195040D01*
X0481845Y0194993D01*
X0481698Y0194950D01*
X0481550Y0194911D01*
X0481401Y0194875D01*
X0481251Y0194844D01*
X0481100Y0194816D01*
X0480949Y0194792D01*
X0480796Y0194772D01*
X0480644Y0194756D01*
X0480491Y0194744D01*
X0480338Y0194736D01*
X0480185Y0194732D01*
X0480031Y0194732D01*
X0479878Y0194736D01*
X0479725Y0194744D01*
X0479572Y0194756D01*
X0479420Y0194772D01*
X0479267Y0194792D01*
X0479116Y0194816D01*
X0478965Y0194844D01*
X0478815Y0194875D01*
X0478666Y0194911D01*
X0478518Y0194950D01*
X0478371Y0194993D01*
X0478225Y0195040D01*
X0478080Y0195091D01*
X0477937Y0195146D01*
X0477795Y0195204D01*
X0477655Y0195266D01*
X0477516Y0195331D01*
X0477379Y0195400D01*
X0477244Y0195473D01*
X0477111Y0195549D01*
X0476980Y0195629D01*
X0476851Y0195711D01*
X0476724Y0195798D01*
X0476599Y0195887D01*
X0476477Y0195980D01*
X0476358Y0196076D01*
X0476240Y0196175D01*
X0476126Y0196276D01*
X0476014Y0196381D01*
X0475905Y0196489D01*
X0475799Y0196600D01*
X0475695Y0196713D01*
X0475595Y0196829D01*
X0475497Y0196947D01*
X0475403Y0197068D01*
X0475312Y0197191D01*
X0475224Y0197317D01*
X0475140Y0197445D01*
X0475058Y0197575D01*
X0474981Y0197707D01*
X0474906Y0197841D01*
X0474835Y0197977D01*
X0474768Y0198115D01*
X0474704Y0198255D01*
X0474644Y0198396D01*
X0474588Y0198538D01*
X0474535Y0198682D01*
X0474486Y0198828D01*
X0474441Y0198974D01*
X0474400Y0199122D01*
X0474363Y0199270D01*
X0474329Y0199420D01*
X0474299Y0199571D01*
X0474274Y0199722D01*
X0474252Y0199873D01*
X0474234Y0200026D01*
X0474220Y0200178D01*
X0474210Y0200331D01*
X0474204Y0200485D01*
X0474202Y0200638D01*
X0501761Y0200638D02*
X0501763Y0200791D01*
X0501769Y0200945D01*
X0501779Y0201098D01*
X0501793Y0201250D01*
X0501811Y0201403D01*
X0501833Y0201554D01*
X0501858Y0201705D01*
X0501888Y0201856D01*
X0501922Y0202006D01*
X0501959Y0202154D01*
X0502000Y0202302D01*
X0502045Y0202448D01*
X0502094Y0202594D01*
X0502147Y0202738D01*
X0502203Y0202880D01*
X0502263Y0203021D01*
X0502327Y0203161D01*
X0502394Y0203299D01*
X0502465Y0203435D01*
X0502540Y0203569D01*
X0502617Y0203701D01*
X0502699Y0203831D01*
X0502783Y0203959D01*
X0502871Y0204085D01*
X0502962Y0204208D01*
X0503056Y0204329D01*
X0503154Y0204447D01*
X0503254Y0204563D01*
X0503358Y0204676D01*
X0503464Y0204787D01*
X0503573Y0204895D01*
X0503685Y0205000D01*
X0503799Y0205101D01*
X0503917Y0205200D01*
X0504036Y0205296D01*
X0504158Y0205389D01*
X0504283Y0205478D01*
X0504410Y0205565D01*
X0504539Y0205647D01*
X0504670Y0205727D01*
X0504803Y0205803D01*
X0504938Y0205876D01*
X0505075Y0205945D01*
X0505214Y0206010D01*
X0505354Y0206072D01*
X0505496Y0206130D01*
X0505639Y0206185D01*
X0505784Y0206236D01*
X0505930Y0206283D01*
X0506077Y0206326D01*
X0506225Y0206365D01*
X0506374Y0206401D01*
X0506524Y0206432D01*
X0506675Y0206460D01*
X0506826Y0206484D01*
X0506979Y0206504D01*
X0507131Y0206520D01*
X0507284Y0206532D01*
X0507437Y0206540D01*
X0507590Y0206544D01*
X0507744Y0206544D01*
X0507897Y0206540D01*
X0508050Y0206532D01*
X0508203Y0206520D01*
X0508355Y0206504D01*
X0508508Y0206484D01*
X0508659Y0206460D01*
X0508810Y0206432D01*
X0508960Y0206401D01*
X0509109Y0206365D01*
X0509257Y0206326D01*
X0509404Y0206283D01*
X0509550Y0206236D01*
X0509695Y0206185D01*
X0509838Y0206130D01*
X0509980Y0206072D01*
X0510120Y0206010D01*
X0510259Y0205945D01*
X0510396Y0205876D01*
X0510531Y0205803D01*
X0510664Y0205727D01*
X0510795Y0205647D01*
X0510924Y0205565D01*
X0511051Y0205478D01*
X0511176Y0205389D01*
X0511298Y0205296D01*
X0511417Y0205200D01*
X0511535Y0205101D01*
X0511649Y0205000D01*
X0511761Y0204895D01*
X0511870Y0204787D01*
X0511976Y0204676D01*
X0512080Y0204563D01*
X0512180Y0204447D01*
X0512278Y0204329D01*
X0512372Y0204208D01*
X0512463Y0204085D01*
X0512551Y0203959D01*
X0512635Y0203831D01*
X0512717Y0203701D01*
X0512794Y0203569D01*
X0512869Y0203435D01*
X0512940Y0203299D01*
X0513007Y0203161D01*
X0513071Y0203021D01*
X0513131Y0202880D01*
X0513187Y0202738D01*
X0513240Y0202594D01*
X0513289Y0202448D01*
X0513334Y0202302D01*
X0513375Y0202154D01*
X0513412Y0202006D01*
X0513446Y0201856D01*
X0513476Y0201705D01*
X0513501Y0201554D01*
X0513523Y0201403D01*
X0513541Y0201250D01*
X0513555Y0201098D01*
X0513565Y0200945D01*
X0513571Y0200791D01*
X0513573Y0200638D01*
X0513571Y0200485D01*
X0513565Y0200331D01*
X0513555Y0200178D01*
X0513541Y0200026D01*
X0513523Y0199873D01*
X0513501Y0199722D01*
X0513476Y0199571D01*
X0513446Y0199420D01*
X0513412Y0199270D01*
X0513375Y0199122D01*
X0513334Y0198974D01*
X0513289Y0198828D01*
X0513240Y0198682D01*
X0513187Y0198538D01*
X0513131Y0198396D01*
X0513071Y0198255D01*
X0513007Y0198115D01*
X0512940Y0197977D01*
X0512869Y0197841D01*
X0512794Y0197707D01*
X0512717Y0197575D01*
X0512635Y0197445D01*
X0512551Y0197317D01*
X0512463Y0197191D01*
X0512372Y0197068D01*
X0512278Y0196947D01*
X0512180Y0196829D01*
X0512080Y0196713D01*
X0511976Y0196600D01*
X0511870Y0196489D01*
X0511761Y0196381D01*
X0511649Y0196276D01*
X0511535Y0196175D01*
X0511417Y0196076D01*
X0511298Y0195980D01*
X0511176Y0195887D01*
X0511051Y0195798D01*
X0510924Y0195711D01*
X0510795Y0195629D01*
X0510664Y0195549D01*
X0510531Y0195473D01*
X0510396Y0195400D01*
X0510259Y0195331D01*
X0510120Y0195266D01*
X0509980Y0195204D01*
X0509838Y0195146D01*
X0509695Y0195091D01*
X0509550Y0195040D01*
X0509404Y0194993D01*
X0509257Y0194950D01*
X0509109Y0194911D01*
X0508960Y0194875D01*
X0508810Y0194844D01*
X0508659Y0194816D01*
X0508508Y0194792D01*
X0508355Y0194772D01*
X0508203Y0194756D01*
X0508050Y0194744D01*
X0507897Y0194736D01*
X0507744Y0194732D01*
X0507590Y0194732D01*
X0507437Y0194736D01*
X0507284Y0194744D01*
X0507131Y0194756D01*
X0506979Y0194772D01*
X0506826Y0194792D01*
X0506675Y0194816D01*
X0506524Y0194844D01*
X0506374Y0194875D01*
X0506225Y0194911D01*
X0506077Y0194950D01*
X0505930Y0194993D01*
X0505784Y0195040D01*
X0505639Y0195091D01*
X0505496Y0195146D01*
X0505354Y0195204D01*
X0505214Y0195266D01*
X0505075Y0195331D01*
X0504938Y0195400D01*
X0504803Y0195473D01*
X0504670Y0195549D01*
X0504539Y0195629D01*
X0504410Y0195711D01*
X0504283Y0195798D01*
X0504158Y0195887D01*
X0504036Y0195980D01*
X0503917Y0196076D01*
X0503799Y0196175D01*
X0503685Y0196276D01*
X0503573Y0196381D01*
X0503464Y0196489D01*
X0503358Y0196600D01*
X0503254Y0196713D01*
X0503154Y0196829D01*
X0503056Y0196947D01*
X0502962Y0197068D01*
X0502871Y0197191D01*
X0502783Y0197317D01*
X0502699Y0197445D01*
X0502617Y0197575D01*
X0502540Y0197707D01*
X0502465Y0197841D01*
X0502394Y0197977D01*
X0502327Y0198115D01*
X0502263Y0198255D01*
X0502203Y0198396D01*
X0502147Y0198538D01*
X0502094Y0198682D01*
X0502045Y0198828D01*
X0502000Y0198974D01*
X0501959Y0199122D01*
X0501922Y0199270D01*
X0501888Y0199420D01*
X0501858Y0199571D01*
X0501833Y0199722D01*
X0501811Y0199873D01*
X0501793Y0200026D01*
X0501779Y0200178D01*
X0501769Y0200331D01*
X0501763Y0200485D01*
X0501761Y0200638D01*
X0501761Y0098276D02*
X0501763Y0098429D01*
X0501769Y0098583D01*
X0501779Y0098736D01*
X0501793Y0098888D01*
X0501811Y0099041D01*
X0501833Y0099192D01*
X0501858Y0099343D01*
X0501888Y0099494D01*
X0501922Y0099644D01*
X0501959Y0099792D01*
X0502000Y0099940D01*
X0502045Y0100086D01*
X0502094Y0100232D01*
X0502147Y0100376D01*
X0502203Y0100518D01*
X0502263Y0100659D01*
X0502327Y0100799D01*
X0502394Y0100937D01*
X0502465Y0101073D01*
X0502540Y0101207D01*
X0502617Y0101339D01*
X0502699Y0101469D01*
X0502783Y0101597D01*
X0502871Y0101723D01*
X0502962Y0101846D01*
X0503056Y0101967D01*
X0503154Y0102085D01*
X0503254Y0102201D01*
X0503358Y0102314D01*
X0503464Y0102425D01*
X0503573Y0102533D01*
X0503685Y0102638D01*
X0503799Y0102739D01*
X0503917Y0102838D01*
X0504036Y0102934D01*
X0504158Y0103027D01*
X0504283Y0103116D01*
X0504410Y0103203D01*
X0504539Y0103285D01*
X0504670Y0103365D01*
X0504803Y0103441D01*
X0504938Y0103514D01*
X0505075Y0103583D01*
X0505214Y0103648D01*
X0505354Y0103710D01*
X0505496Y0103768D01*
X0505639Y0103823D01*
X0505784Y0103874D01*
X0505930Y0103921D01*
X0506077Y0103964D01*
X0506225Y0104003D01*
X0506374Y0104039D01*
X0506524Y0104070D01*
X0506675Y0104098D01*
X0506826Y0104122D01*
X0506979Y0104142D01*
X0507131Y0104158D01*
X0507284Y0104170D01*
X0507437Y0104178D01*
X0507590Y0104182D01*
X0507744Y0104182D01*
X0507897Y0104178D01*
X0508050Y0104170D01*
X0508203Y0104158D01*
X0508355Y0104142D01*
X0508508Y0104122D01*
X0508659Y0104098D01*
X0508810Y0104070D01*
X0508960Y0104039D01*
X0509109Y0104003D01*
X0509257Y0103964D01*
X0509404Y0103921D01*
X0509550Y0103874D01*
X0509695Y0103823D01*
X0509838Y0103768D01*
X0509980Y0103710D01*
X0510120Y0103648D01*
X0510259Y0103583D01*
X0510396Y0103514D01*
X0510531Y0103441D01*
X0510664Y0103365D01*
X0510795Y0103285D01*
X0510924Y0103203D01*
X0511051Y0103116D01*
X0511176Y0103027D01*
X0511298Y0102934D01*
X0511417Y0102838D01*
X0511535Y0102739D01*
X0511649Y0102638D01*
X0511761Y0102533D01*
X0511870Y0102425D01*
X0511976Y0102314D01*
X0512080Y0102201D01*
X0512180Y0102085D01*
X0512278Y0101967D01*
X0512372Y0101846D01*
X0512463Y0101723D01*
X0512551Y0101597D01*
X0512635Y0101469D01*
X0512717Y0101339D01*
X0512794Y0101207D01*
X0512869Y0101073D01*
X0512940Y0100937D01*
X0513007Y0100799D01*
X0513071Y0100659D01*
X0513131Y0100518D01*
X0513187Y0100376D01*
X0513240Y0100232D01*
X0513289Y0100086D01*
X0513334Y0099940D01*
X0513375Y0099792D01*
X0513412Y0099644D01*
X0513446Y0099494D01*
X0513476Y0099343D01*
X0513501Y0099192D01*
X0513523Y0099041D01*
X0513541Y0098888D01*
X0513555Y0098736D01*
X0513565Y0098583D01*
X0513571Y0098429D01*
X0513573Y0098276D01*
X0513571Y0098123D01*
X0513565Y0097969D01*
X0513555Y0097816D01*
X0513541Y0097664D01*
X0513523Y0097511D01*
X0513501Y0097360D01*
X0513476Y0097209D01*
X0513446Y0097058D01*
X0513412Y0096908D01*
X0513375Y0096760D01*
X0513334Y0096612D01*
X0513289Y0096466D01*
X0513240Y0096320D01*
X0513187Y0096176D01*
X0513131Y0096034D01*
X0513071Y0095893D01*
X0513007Y0095753D01*
X0512940Y0095615D01*
X0512869Y0095479D01*
X0512794Y0095345D01*
X0512717Y0095213D01*
X0512635Y0095083D01*
X0512551Y0094955D01*
X0512463Y0094829D01*
X0512372Y0094706D01*
X0512278Y0094585D01*
X0512180Y0094467D01*
X0512080Y0094351D01*
X0511976Y0094238D01*
X0511870Y0094127D01*
X0511761Y0094019D01*
X0511649Y0093914D01*
X0511535Y0093813D01*
X0511417Y0093714D01*
X0511298Y0093618D01*
X0511176Y0093525D01*
X0511051Y0093436D01*
X0510924Y0093349D01*
X0510795Y0093267D01*
X0510664Y0093187D01*
X0510531Y0093111D01*
X0510396Y0093038D01*
X0510259Y0092969D01*
X0510120Y0092904D01*
X0509980Y0092842D01*
X0509838Y0092784D01*
X0509695Y0092729D01*
X0509550Y0092678D01*
X0509404Y0092631D01*
X0509257Y0092588D01*
X0509109Y0092549D01*
X0508960Y0092513D01*
X0508810Y0092482D01*
X0508659Y0092454D01*
X0508508Y0092430D01*
X0508355Y0092410D01*
X0508203Y0092394D01*
X0508050Y0092382D01*
X0507897Y0092374D01*
X0507744Y0092370D01*
X0507590Y0092370D01*
X0507437Y0092374D01*
X0507284Y0092382D01*
X0507131Y0092394D01*
X0506979Y0092410D01*
X0506826Y0092430D01*
X0506675Y0092454D01*
X0506524Y0092482D01*
X0506374Y0092513D01*
X0506225Y0092549D01*
X0506077Y0092588D01*
X0505930Y0092631D01*
X0505784Y0092678D01*
X0505639Y0092729D01*
X0505496Y0092784D01*
X0505354Y0092842D01*
X0505214Y0092904D01*
X0505075Y0092969D01*
X0504938Y0093038D01*
X0504803Y0093111D01*
X0504670Y0093187D01*
X0504539Y0093267D01*
X0504410Y0093349D01*
X0504283Y0093436D01*
X0504158Y0093525D01*
X0504036Y0093618D01*
X0503917Y0093714D01*
X0503799Y0093813D01*
X0503685Y0093914D01*
X0503573Y0094019D01*
X0503464Y0094127D01*
X0503358Y0094238D01*
X0503254Y0094351D01*
X0503154Y0094467D01*
X0503056Y0094585D01*
X0502962Y0094706D01*
X0502871Y0094829D01*
X0502783Y0094955D01*
X0502699Y0095083D01*
X0502617Y0095213D01*
X0502540Y0095345D01*
X0502465Y0095479D01*
X0502394Y0095615D01*
X0502327Y0095753D01*
X0502263Y0095893D01*
X0502203Y0096034D01*
X0502147Y0096176D01*
X0502094Y0096320D01*
X0502045Y0096466D01*
X0502000Y0096612D01*
X0501959Y0096760D01*
X0501922Y0096908D01*
X0501888Y0097058D01*
X0501858Y0097209D01*
X0501833Y0097360D01*
X0501811Y0097511D01*
X0501793Y0097664D01*
X0501779Y0097816D01*
X0501769Y0097969D01*
X0501763Y0098123D01*
X0501761Y0098276D01*
X0474202Y0098276D02*
X0474204Y0098429D01*
X0474210Y0098583D01*
X0474220Y0098736D01*
X0474234Y0098888D01*
X0474252Y0099041D01*
X0474274Y0099192D01*
X0474299Y0099343D01*
X0474329Y0099494D01*
X0474363Y0099644D01*
X0474400Y0099792D01*
X0474441Y0099940D01*
X0474486Y0100086D01*
X0474535Y0100232D01*
X0474588Y0100376D01*
X0474644Y0100518D01*
X0474704Y0100659D01*
X0474768Y0100799D01*
X0474835Y0100937D01*
X0474906Y0101073D01*
X0474981Y0101207D01*
X0475058Y0101339D01*
X0475140Y0101469D01*
X0475224Y0101597D01*
X0475312Y0101723D01*
X0475403Y0101846D01*
X0475497Y0101967D01*
X0475595Y0102085D01*
X0475695Y0102201D01*
X0475799Y0102314D01*
X0475905Y0102425D01*
X0476014Y0102533D01*
X0476126Y0102638D01*
X0476240Y0102739D01*
X0476358Y0102838D01*
X0476477Y0102934D01*
X0476599Y0103027D01*
X0476724Y0103116D01*
X0476851Y0103203D01*
X0476980Y0103285D01*
X0477111Y0103365D01*
X0477244Y0103441D01*
X0477379Y0103514D01*
X0477516Y0103583D01*
X0477655Y0103648D01*
X0477795Y0103710D01*
X0477937Y0103768D01*
X0478080Y0103823D01*
X0478225Y0103874D01*
X0478371Y0103921D01*
X0478518Y0103964D01*
X0478666Y0104003D01*
X0478815Y0104039D01*
X0478965Y0104070D01*
X0479116Y0104098D01*
X0479267Y0104122D01*
X0479420Y0104142D01*
X0479572Y0104158D01*
X0479725Y0104170D01*
X0479878Y0104178D01*
X0480031Y0104182D01*
X0480185Y0104182D01*
X0480338Y0104178D01*
X0480491Y0104170D01*
X0480644Y0104158D01*
X0480796Y0104142D01*
X0480949Y0104122D01*
X0481100Y0104098D01*
X0481251Y0104070D01*
X0481401Y0104039D01*
X0481550Y0104003D01*
X0481698Y0103964D01*
X0481845Y0103921D01*
X0481991Y0103874D01*
X0482136Y0103823D01*
X0482279Y0103768D01*
X0482421Y0103710D01*
X0482561Y0103648D01*
X0482700Y0103583D01*
X0482837Y0103514D01*
X0482972Y0103441D01*
X0483105Y0103365D01*
X0483236Y0103285D01*
X0483365Y0103203D01*
X0483492Y0103116D01*
X0483617Y0103027D01*
X0483739Y0102934D01*
X0483858Y0102838D01*
X0483976Y0102739D01*
X0484090Y0102638D01*
X0484202Y0102533D01*
X0484311Y0102425D01*
X0484417Y0102314D01*
X0484521Y0102201D01*
X0484621Y0102085D01*
X0484719Y0101967D01*
X0484813Y0101846D01*
X0484904Y0101723D01*
X0484992Y0101597D01*
X0485076Y0101469D01*
X0485158Y0101339D01*
X0485235Y0101207D01*
X0485310Y0101073D01*
X0485381Y0100937D01*
X0485448Y0100799D01*
X0485512Y0100659D01*
X0485572Y0100518D01*
X0485628Y0100376D01*
X0485681Y0100232D01*
X0485730Y0100086D01*
X0485775Y0099940D01*
X0485816Y0099792D01*
X0485853Y0099644D01*
X0485887Y0099494D01*
X0485917Y0099343D01*
X0485942Y0099192D01*
X0485964Y0099041D01*
X0485982Y0098888D01*
X0485996Y0098736D01*
X0486006Y0098583D01*
X0486012Y0098429D01*
X0486014Y0098276D01*
X0486012Y0098123D01*
X0486006Y0097969D01*
X0485996Y0097816D01*
X0485982Y0097664D01*
X0485964Y0097511D01*
X0485942Y0097360D01*
X0485917Y0097209D01*
X0485887Y0097058D01*
X0485853Y0096908D01*
X0485816Y0096760D01*
X0485775Y0096612D01*
X0485730Y0096466D01*
X0485681Y0096320D01*
X0485628Y0096176D01*
X0485572Y0096034D01*
X0485512Y0095893D01*
X0485448Y0095753D01*
X0485381Y0095615D01*
X0485310Y0095479D01*
X0485235Y0095345D01*
X0485158Y0095213D01*
X0485076Y0095083D01*
X0484992Y0094955D01*
X0484904Y0094829D01*
X0484813Y0094706D01*
X0484719Y0094585D01*
X0484621Y0094467D01*
X0484521Y0094351D01*
X0484417Y0094238D01*
X0484311Y0094127D01*
X0484202Y0094019D01*
X0484090Y0093914D01*
X0483976Y0093813D01*
X0483858Y0093714D01*
X0483739Y0093618D01*
X0483617Y0093525D01*
X0483492Y0093436D01*
X0483365Y0093349D01*
X0483236Y0093267D01*
X0483105Y0093187D01*
X0482972Y0093111D01*
X0482837Y0093038D01*
X0482700Y0092969D01*
X0482561Y0092904D01*
X0482421Y0092842D01*
X0482279Y0092784D01*
X0482136Y0092729D01*
X0481991Y0092678D01*
X0481845Y0092631D01*
X0481698Y0092588D01*
X0481550Y0092549D01*
X0481401Y0092513D01*
X0481251Y0092482D01*
X0481100Y0092454D01*
X0480949Y0092430D01*
X0480796Y0092410D01*
X0480644Y0092394D01*
X0480491Y0092382D01*
X0480338Y0092374D01*
X0480185Y0092370D01*
X0480031Y0092370D01*
X0479878Y0092374D01*
X0479725Y0092382D01*
X0479572Y0092394D01*
X0479420Y0092410D01*
X0479267Y0092430D01*
X0479116Y0092454D01*
X0478965Y0092482D01*
X0478815Y0092513D01*
X0478666Y0092549D01*
X0478518Y0092588D01*
X0478371Y0092631D01*
X0478225Y0092678D01*
X0478080Y0092729D01*
X0477937Y0092784D01*
X0477795Y0092842D01*
X0477655Y0092904D01*
X0477516Y0092969D01*
X0477379Y0093038D01*
X0477244Y0093111D01*
X0477111Y0093187D01*
X0476980Y0093267D01*
X0476851Y0093349D01*
X0476724Y0093436D01*
X0476599Y0093525D01*
X0476477Y0093618D01*
X0476358Y0093714D01*
X0476240Y0093813D01*
X0476126Y0093914D01*
X0476014Y0094019D01*
X0475905Y0094127D01*
X0475799Y0094238D01*
X0475695Y0094351D01*
X0475595Y0094467D01*
X0475497Y0094585D01*
X0475403Y0094706D01*
X0475312Y0094829D01*
X0475224Y0094955D01*
X0475140Y0095083D01*
X0475058Y0095213D01*
X0474981Y0095345D01*
X0474906Y0095479D01*
X0474835Y0095615D01*
X0474768Y0095753D01*
X0474704Y0095893D01*
X0474644Y0096034D01*
X0474588Y0096176D01*
X0474535Y0096320D01*
X0474486Y0096466D01*
X0474441Y0096612D01*
X0474400Y0096760D01*
X0474363Y0096908D01*
X0474329Y0097058D01*
X0474299Y0097209D01*
X0474274Y0097360D01*
X0474252Y0097511D01*
X0474234Y0097664D01*
X0474220Y0097816D01*
X0474210Y0097969D01*
X0474204Y0098123D01*
X0474202Y0098276D01*
M02*
