G75*
%MOIN*%
%OFA0B0*%
%FSLAX25Y25*%
%IPPOS*%
%LPD*%
%AMOC8*
5,1,8,0,0,1.08239X$1,22.5*
%
%ADD10R,0.01000X0.05800*%
%ADD11R,0.05512X0.07480*%
%ADD12R,0.05118X0.05906*%
%ADD13R,0.06299X0.05118*%
%ADD14R,0.05906X0.05118*%
%ADD15R,0.06102X0.05118*%
%ADD16R,0.05906X0.05906*%
%ADD17R,0.05118X0.06299*%
%ADD18R,0.01181X0.02362*%
%ADD19R,0.02362X0.01181*%
%ADD20R,0.01181X0.03150*%
%ADD21R,0.07874X0.07480*%
%ADD22R,0.01575X0.04724*%
%ADD23R,0.49606X0.28740*%
%ADD24R,0.06693X0.11417*%
%ADD25R,0.06299X0.11811*%
%ADD26R,0.03937X0.05512*%
%ADD27R,0.09843X0.07874*%
%ADD28R,0.12992X0.07874*%
%ADD29R,0.12205X0.01969*%
%ADD30R,0.08700X0.02400*%
%ADD31R,0.03543X0.03543*%
%ADD32R,0.12800X0.25400*%
D10*
G36*
X0296620Y0216255D02*
X0297327Y0215548D01*
X0293226Y0211447D01*
X0292519Y0212154D01*
X0296620Y0216255D01*
G37*
G36*
X0295277Y0217599D02*
X0295984Y0216892D01*
X0291883Y0212791D01*
X0291176Y0213498D01*
X0295277Y0217599D01*
G37*
G36*
X0298034Y0214841D02*
X0298741Y0214134D01*
X0294640Y0210033D01*
X0293933Y0210740D01*
X0298034Y0214841D01*
G37*
G36*
X0299449Y0213427D02*
X0300156Y0212720D01*
X0296055Y0208619D01*
X0295348Y0209326D01*
X0299449Y0213427D01*
G37*
G36*
X0300863Y0212013D02*
X0301570Y0211306D01*
X0297469Y0207205D01*
X0296762Y0207912D01*
X0300863Y0212013D01*
G37*
G36*
X0302206Y0210669D02*
X0302913Y0209962D01*
X0298812Y0205861D01*
X0298105Y0206568D01*
X0302206Y0210669D01*
G37*
G36*
X0303620Y0209255D02*
X0304327Y0208548D01*
X0300226Y0204447D01*
X0299519Y0205154D01*
X0303620Y0209255D01*
G37*
G36*
X0305035Y0207841D02*
X0305742Y0207134D01*
X0301641Y0203033D01*
X0300934Y0203740D01*
X0305035Y0207841D01*
G37*
G36*
X0306378Y0206497D02*
X0307085Y0205790D01*
X0302984Y0201689D01*
X0302277Y0202396D01*
X0306378Y0206497D01*
G37*
G36*
X0307792Y0205083D02*
X0308499Y0204376D01*
X0304398Y0200275D01*
X0303691Y0200982D01*
X0307792Y0205083D01*
G37*
G36*
X0309207Y0203669D02*
X0309914Y0202962D01*
X0305813Y0198861D01*
X0305106Y0199568D01*
X0309207Y0203669D01*
G37*
G36*
X0310550Y0202325D02*
X0311257Y0201618D01*
X0307156Y0197517D01*
X0306449Y0198224D01*
X0310550Y0202325D01*
G37*
G36*
X0311964Y0200911D02*
X0312671Y0200204D01*
X0308570Y0196103D01*
X0307863Y0196810D01*
X0311964Y0200911D01*
G37*
G36*
X0313379Y0199497D02*
X0314086Y0198790D01*
X0309985Y0194689D01*
X0309278Y0195396D01*
X0313379Y0199497D01*
G37*
G36*
X0314722Y0198154D02*
X0315429Y0197447D01*
X0311328Y0193346D01*
X0310621Y0194053D01*
X0314722Y0198154D01*
G37*
G36*
X0316136Y0196739D02*
X0316843Y0196032D01*
X0312742Y0191931D01*
X0312035Y0192638D01*
X0316136Y0196739D01*
G37*
G36*
X0317550Y0195325D02*
X0318257Y0194618D01*
X0314156Y0190517D01*
X0313449Y0191224D01*
X0317550Y0195325D01*
G37*
G36*
X0318894Y0193982D02*
X0319601Y0193275D01*
X0315500Y0189174D01*
X0314793Y0189881D01*
X0318894Y0193982D01*
G37*
G36*
X0320308Y0192567D02*
X0321015Y0191860D01*
X0316914Y0187759D01*
X0316207Y0188466D01*
X0320308Y0192567D01*
G37*
G36*
X0321722Y0191153D02*
X0322429Y0190446D01*
X0318328Y0186345D01*
X0317621Y0187052D01*
X0321722Y0191153D01*
G37*
G36*
X0323066Y0189810D02*
X0323773Y0189103D01*
X0319672Y0185002D01*
X0318965Y0185709D01*
X0323066Y0189810D01*
G37*
G36*
X0324480Y0188395D02*
X0325187Y0187688D01*
X0321086Y0183587D01*
X0320379Y0184294D01*
X0324480Y0188395D01*
G37*
G36*
X0325894Y0186981D02*
X0326601Y0186274D01*
X0322500Y0182173D01*
X0321793Y0182880D01*
X0325894Y0186981D01*
G37*
G36*
X0327309Y0185567D02*
X0328016Y0184860D01*
X0323915Y0180759D01*
X0323208Y0181466D01*
X0327309Y0185567D01*
G37*
G36*
X0328652Y0184224D02*
X0329359Y0183517D01*
X0325258Y0179416D01*
X0324551Y0180123D01*
X0328652Y0184224D01*
G37*
G36*
X0338976Y0180123D02*
X0338269Y0179416D01*
X0334168Y0183517D01*
X0334875Y0184224D01*
X0338976Y0180123D01*
G37*
G36*
X0340319Y0181466D02*
X0339612Y0180759D01*
X0335511Y0184860D01*
X0336218Y0185567D01*
X0340319Y0181466D01*
G37*
G36*
X0341733Y0182880D02*
X0341026Y0182173D01*
X0336925Y0186274D01*
X0337632Y0186981D01*
X0341733Y0182880D01*
G37*
G36*
X0343148Y0184294D02*
X0342441Y0183587D01*
X0338340Y0187688D01*
X0339047Y0188395D01*
X0343148Y0184294D01*
G37*
G36*
X0344562Y0185709D02*
X0343855Y0185002D01*
X0339754Y0189103D01*
X0340461Y0189810D01*
X0344562Y0185709D01*
G37*
G36*
X0345905Y0187052D02*
X0345198Y0186345D01*
X0341097Y0190446D01*
X0341804Y0191153D01*
X0345905Y0187052D01*
G37*
G36*
X0347320Y0188466D02*
X0346613Y0187759D01*
X0342512Y0191860D01*
X0343219Y0192567D01*
X0347320Y0188466D01*
G37*
G36*
X0348734Y0189881D02*
X0348027Y0189174D01*
X0343926Y0193275D01*
X0344633Y0193982D01*
X0348734Y0189881D01*
G37*
G36*
X0350077Y0191224D02*
X0349370Y0190517D01*
X0345269Y0194618D01*
X0345976Y0195325D01*
X0350077Y0191224D01*
G37*
G36*
X0351491Y0192638D02*
X0350784Y0191931D01*
X0346683Y0196032D01*
X0347390Y0196739D01*
X0351491Y0192638D01*
G37*
G36*
X0352906Y0194053D02*
X0352199Y0193346D01*
X0348098Y0197447D01*
X0348805Y0198154D01*
X0352906Y0194053D01*
G37*
G36*
X0354249Y0195396D02*
X0353542Y0194689D01*
X0349441Y0198790D01*
X0350148Y0199497D01*
X0354249Y0195396D01*
G37*
G36*
X0355663Y0196810D02*
X0354956Y0196103D01*
X0350855Y0200204D01*
X0351562Y0200911D01*
X0355663Y0196810D01*
G37*
G36*
X0357078Y0198224D02*
X0356371Y0197517D01*
X0352270Y0201618D01*
X0352977Y0202325D01*
X0357078Y0198224D01*
G37*
G36*
X0358421Y0199568D02*
X0357714Y0198861D01*
X0353613Y0202962D01*
X0354320Y0203669D01*
X0358421Y0199568D01*
G37*
G36*
X0359835Y0200982D02*
X0359128Y0200275D01*
X0355027Y0204376D01*
X0355734Y0205083D01*
X0359835Y0200982D01*
G37*
G36*
X0361250Y0202396D02*
X0360543Y0201689D01*
X0356442Y0205790D01*
X0357149Y0206497D01*
X0361250Y0202396D01*
G37*
G36*
X0362593Y0203740D02*
X0361886Y0203033D01*
X0357785Y0207134D01*
X0358492Y0207841D01*
X0362593Y0203740D01*
G37*
G36*
X0364007Y0205154D02*
X0363300Y0204447D01*
X0359199Y0208548D01*
X0359906Y0209255D01*
X0364007Y0205154D01*
G37*
G36*
X0365421Y0206568D02*
X0364714Y0205861D01*
X0360613Y0209962D01*
X0361320Y0210669D01*
X0365421Y0206568D01*
G37*
G36*
X0366765Y0207912D02*
X0366058Y0207205D01*
X0361957Y0211306D01*
X0362664Y0212013D01*
X0366765Y0207912D01*
G37*
G36*
X0368179Y0209326D02*
X0367472Y0208619D01*
X0363371Y0212720D01*
X0364078Y0213427D01*
X0368179Y0209326D01*
G37*
G36*
X0369593Y0210740D02*
X0368886Y0210033D01*
X0364785Y0214134D01*
X0365492Y0214841D01*
X0369593Y0210740D01*
G37*
G36*
X0371008Y0212154D02*
X0370301Y0211447D01*
X0366200Y0215548D01*
X0366907Y0216255D01*
X0371008Y0212154D01*
G37*
G36*
X0372351Y0213498D02*
X0371644Y0212791D01*
X0367543Y0216892D01*
X0368250Y0217599D01*
X0372351Y0213498D01*
G37*
G36*
X0371644Y0227216D02*
X0372351Y0226509D01*
X0368250Y0222408D01*
X0367543Y0223115D01*
X0371644Y0227216D01*
G37*
G36*
X0370301Y0228559D02*
X0371008Y0227852D01*
X0366907Y0223751D01*
X0366200Y0224458D01*
X0370301Y0228559D01*
G37*
G36*
X0368886Y0229973D02*
X0369593Y0229266D01*
X0365492Y0225165D01*
X0364785Y0225872D01*
X0368886Y0229973D01*
G37*
G36*
X0367472Y0231388D02*
X0368179Y0230681D01*
X0364078Y0226580D01*
X0363371Y0227287D01*
X0367472Y0231388D01*
G37*
G36*
X0366058Y0232802D02*
X0366765Y0232095D01*
X0362664Y0227994D01*
X0361957Y0228701D01*
X0366058Y0232802D01*
G37*
G36*
X0364714Y0234145D02*
X0365421Y0233438D01*
X0361320Y0229337D01*
X0360613Y0230044D01*
X0364714Y0234145D01*
G37*
G36*
X0363300Y0235559D02*
X0364007Y0234852D01*
X0359906Y0230751D01*
X0359199Y0231458D01*
X0363300Y0235559D01*
G37*
G36*
X0361886Y0236974D02*
X0362593Y0236267D01*
X0358492Y0232166D01*
X0357785Y0232873D01*
X0361886Y0236974D01*
G37*
G36*
X0360543Y0238317D02*
X0361250Y0237610D01*
X0357149Y0233509D01*
X0356442Y0234216D01*
X0360543Y0238317D01*
G37*
G36*
X0359128Y0239731D02*
X0359835Y0239024D01*
X0355734Y0234923D01*
X0355027Y0235630D01*
X0359128Y0239731D01*
G37*
G36*
X0357714Y0241146D02*
X0358421Y0240439D01*
X0354320Y0236338D01*
X0353613Y0237045D01*
X0357714Y0241146D01*
G37*
G36*
X0356371Y0242489D02*
X0357078Y0241782D01*
X0352977Y0237681D01*
X0352270Y0238388D01*
X0356371Y0242489D01*
G37*
G36*
X0354956Y0243903D02*
X0355663Y0243196D01*
X0351562Y0239095D01*
X0350855Y0239802D01*
X0354956Y0243903D01*
G37*
G36*
X0353542Y0245318D02*
X0354249Y0244611D01*
X0350148Y0240510D01*
X0349441Y0241217D01*
X0353542Y0245318D01*
G37*
G36*
X0352199Y0246661D02*
X0352906Y0245954D01*
X0348805Y0241853D01*
X0348098Y0242560D01*
X0352199Y0246661D01*
G37*
G36*
X0350784Y0248075D02*
X0351491Y0247368D01*
X0347390Y0243267D01*
X0346683Y0243974D01*
X0350784Y0248075D01*
G37*
G36*
X0349370Y0249489D02*
X0350077Y0248782D01*
X0345976Y0244681D01*
X0345269Y0245388D01*
X0349370Y0249489D01*
G37*
G36*
X0348027Y0250833D02*
X0348734Y0250126D01*
X0344633Y0246025D01*
X0343926Y0246732D01*
X0348027Y0250833D01*
G37*
G36*
X0346613Y0252247D02*
X0347320Y0251540D01*
X0343219Y0247439D01*
X0342512Y0248146D01*
X0346613Y0252247D01*
G37*
G36*
X0345198Y0253661D02*
X0345905Y0252954D01*
X0341804Y0248853D01*
X0341097Y0249560D01*
X0345198Y0253661D01*
G37*
G36*
X0343855Y0255005D02*
X0344562Y0254298D01*
X0340461Y0250197D01*
X0339754Y0250904D01*
X0343855Y0255005D01*
G37*
G36*
X0342441Y0256419D02*
X0343148Y0255712D01*
X0339047Y0251611D01*
X0338340Y0252318D01*
X0342441Y0256419D01*
G37*
G36*
X0341026Y0257833D02*
X0341733Y0257126D01*
X0337632Y0253025D01*
X0336925Y0253732D01*
X0341026Y0257833D01*
G37*
G36*
X0339612Y0259248D02*
X0340319Y0258541D01*
X0336218Y0254440D01*
X0335511Y0255147D01*
X0339612Y0259248D01*
G37*
G36*
X0338269Y0260591D02*
X0338976Y0259884D01*
X0334875Y0255783D01*
X0334168Y0256490D01*
X0338269Y0260591D01*
G37*
G36*
X0329359Y0256490D02*
X0328652Y0255783D01*
X0324551Y0259884D01*
X0325258Y0260591D01*
X0329359Y0256490D01*
G37*
G36*
X0328016Y0255147D02*
X0327309Y0254440D01*
X0323208Y0258541D01*
X0323915Y0259248D01*
X0328016Y0255147D01*
G37*
G36*
X0326601Y0253732D02*
X0325894Y0253025D01*
X0321793Y0257126D01*
X0322500Y0257833D01*
X0326601Y0253732D01*
G37*
G36*
X0325187Y0252318D02*
X0324480Y0251611D01*
X0320379Y0255712D01*
X0321086Y0256419D01*
X0325187Y0252318D01*
G37*
G36*
X0323773Y0250904D02*
X0323066Y0250197D01*
X0318965Y0254298D01*
X0319672Y0255005D01*
X0323773Y0250904D01*
G37*
G36*
X0322429Y0249560D02*
X0321722Y0248853D01*
X0317621Y0252954D01*
X0318328Y0253661D01*
X0322429Y0249560D01*
G37*
G36*
X0321015Y0248146D02*
X0320308Y0247439D01*
X0316207Y0251540D01*
X0316914Y0252247D01*
X0321015Y0248146D01*
G37*
G36*
X0319601Y0246732D02*
X0318894Y0246025D01*
X0314793Y0250126D01*
X0315500Y0250833D01*
X0319601Y0246732D01*
G37*
G36*
X0318257Y0245388D02*
X0317550Y0244681D01*
X0313449Y0248782D01*
X0314156Y0249489D01*
X0318257Y0245388D01*
G37*
G36*
X0316843Y0243974D02*
X0316136Y0243267D01*
X0312035Y0247368D01*
X0312742Y0248075D01*
X0316843Y0243974D01*
G37*
G36*
X0315429Y0242560D02*
X0314722Y0241853D01*
X0310621Y0245954D01*
X0311328Y0246661D01*
X0315429Y0242560D01*
G37*
G36*
X0314086Y0241217D02*
X0313379Y0240510D01*
X0309278Y0244611D01*
X0309985Y0245318D01*
X0314086Y0241217D01*
G37*
G36*
X0312671Y0239802D02*
X0311964Y0239095D01*
X0307863Y0243196D01*
X0308570Y0243903D01*
X0312671Y0239802D01*
G37*
G36*
X0311257Y0238388D02*
X0310550Y0237681D01*
X0306449Y0241782D01*
X0307156Y0242489D01*
X0311257Y0238388D01*
G37*
G36*
X0309914Y0237045D02*
X0309207Y0236338D01*
X0305106Y0240439D01*
X0305813Y0241146D01*
X0309914Y0237045D01*
G37*
G36*
X0308499Y0235630D02*
X0307792Y0234923D01*
X0303691Y0239024D01*
X0304398Y0239731D01*
X0308499Y0235630D01*
G37*
G36*
X0307085Y0234216D02*
X0306378Y0233509D01*
X0302277Y0237610D01*
X0302984Y0238317D01*
X0307085Y0234216D01*
G37*
G36*
X0305742Y0232873D02*
X0305035Y0232166D01*
X0300934Y0236267D01*
X0301641Y0236974D01*
X0305742Y0232873D01*
G37*
G36*
X0304327Y0231458D02*
X0303620Y0230751D01*
X0299519Y0234852D01*
X0300226Y0235559D01*
X0304327Y0231458D01*
G37*
G36*
X0302913Y0230044D02*
X0302206Y0229337D01*
X0298105Y0233438D01*
X0298812Y0234145D01*
X0302913Y0230044D01*
G37*
G36*
X0301570Y0228701D02*
X0300863Y0227994D01*
X0296762Y0232095D01*
X0297469Y0232802D01*
X0301570Y0228701D01*
G37*
G36*
X0300156Y0227287D02*
X0299449Y0226580D01*
X0295348Y0230681D01*
X0296055Y0231388D01*
X0300156Y0227287D01*
G37*
G36*
X0298741Y0225872D02*
X0298034Y0225165D01*
X0293933Y0229266D01*
X0294640Y0229973D01*
X0298741Y0225872D01*
G37*
G36*
X0297327Y0224458D02*
X0296620Y0223751D01*
X0292519Y0227852D01*
X0293226Y0228559D01*
X0297327Y0224458D01*
G37*
G36*
X0295984Y0223115D02*
X0295277Y0222408D01*
X0291176Y0226509D01*
X0291883Y0227216D01*
X0295984Y0223115D01*
G37*
D11*
X0377039Y0241342D03*
X0386488Y0241342D03*
X0386488Y0258665D03*
X0377039Y0258665D03*
D12*
X0394223Y0258403D03*
X0401704Y0258403D03*
X0402304Y0244403D03*
X0394823Y0244403D03*
X0447527Y0220696D03*
X0455007Y0220696D03*
X0388900Y0174192D03*
X0381420Y0174192D03*
G36*
X0321886Y0173656D02*
X0325505Y0170037D01*
X0321330Y0165862D01*
X0317711Y0169481D01*
X0321886Y0173656D01*
G37*
G36*
X0316597Y0178945D02*
X0320216Y0175326D01*
X0316041Y0171151D01*
X0312422Y0174770D01*
X0316597Y0178945D01*
G37*
G36*
X0278822Y0228837D02*
X0282441Y0232456D01*
X0286616Y0228281D01*
X0282997Y0224662D01*
X0278822Y0228837D01*
G37*
G36*
X0284111Y0234126D02*
X0287730Y0237745D01*
X0291905Y0233570D01*
X0288286Y0229951D01*
X0284111Y0234126D01*
G37*
D13*
X0396960Y0228732D03*
X0396960Y0221252D03*
X0416374Y0248060D03*
X0416374Y0255540D03*
X0489667Y0343756D03*
X0489667Y0351236D03*
X0485167Y0368256D03*
X0485167Y0375736D03*
X0474167Y0376736D03*
X0474167Y0369256D03*
X0444667Y0369256D03*
X0444667Y0376736D03*
X0433667Y0376736D03*
X0433667Y0369256D03*
X0406167Y0369256D03*
X0396167Y0369256D03*
X0396167Y0376736D03*
X0406167Y0376736D03*
X0368167Y0376736D03*
X0358167Y0376736D03*
X0358167Y0369256D03*
X0368167Y0369256D03*
X0347667Y0374756D03*
X0334667Y0373756D03*
X0334667Y0381236D03*
X0347667Y0382236D03*
X0323167Y0376736D03*
X0314167Y0376736D03*
X0314167Y0369256D03*
X0323167Y0369256D03*
X0284167Y0369256D03*
X0274167Y0369256D03*
X0274167Y0376736D03*
X0284167Y0376736D03*
X0245167Y0376736D03*
X0235167Y0376736D03*
X0235167Y0369256D03*
X0245167Y0369256D03*
X0205167Y0369256D03*
X0205167Y0376736D03*
X0195167Y0376736D03*
X0195167Y0369256D03*
X0411004Y0117578D03*
X0411004Y0110098D03*
D14*
X0379667Y0108236D03*
X0379667Y0100756D03*
X0301667Y0141756D03*
X0293667Y0133236D03*
X0293667Y0125756D03*
X0301667Y0149236D03*
X0269667Y0095236D03*
X0269667Y0087756D03*
X0383163Y0182063D03*
X0383163Y0189543D03*
X0425360Y0247852D03*
X0425360Y0255332D03*
D15*
X0486849Y0254764D03*
X0486618Y0244754D03*
X0486618Y0227038D03*
X0517917Y0227038D03*
X0517917Y0244754D03*
X0518148Y0254764D03*
X0518148Y0272480D03*
X0486849Y0272480D03*
D16*
X0502817Y0355106D03*
X0502817Y0368886D03*
X0502817Y0378606D03*
X0502817Y0392386D03*
X0361557Y0398646D03*
X0347778Y0398646D03*
X0334557Y0398646D03*
X0320778Y0398646D03*
X0177518Y0392386D03*
X0177518Y0378606D03*
X0177518Y0368386D03*
X0177518Y0354606D03*
X0177926Y0235288D03*
X0177926Y0221509D03*
X0396927Y0102345D03*
X0410707Y0102345D03*
D17*
X0381407Y0155496D03*
X0373927Y0155496D03*
X0393234Y0196000D03*
X0400715Y0196000D03*
X0401100Y0204992D03*
X0393620Y0204992D03*
X0268407Y0277496D03*
X0260927Y0277496D03*
X0247407Y0296496D03*
X0239927Y0296496D03*
X0195407Y0349496D03*
X0187927Y0349496D03*
X0186927Y0389496D03*
X0194407Y0389496D03*
X0478927Y0389496D03*
X0486407Y0389496D03*
D18*
X0374100Y0178921D03*
X0372132Y0178921D03*
X0370163Y0178921D03*
X0368195Y0178921D03*
X0366226Y0178921D03*
X0366226Y0168685D03*
X0368195Y0168685D03*
X0370163Y0168685D03*
X0372132Y0168685D03*
X0374100Y0168685D03*
D19*
X0375281Y0171835D03*
X0375281Y0173803D03*
X0375281Y0175772D03*
X0365045Y0175772D03*
X0365045Y0173803D03*
X0365045Y0171835D03*
D20*
X0357400Y0285654D03*
X0355431Y0285654D03*
X0353463Y0285654D03*
X0351494Y0285654D03*
X0349526Y0285654D03*
X0347557Y0285654D03*
X0345589Y0285654D03*
X0343620Y0285654D03*
X0341652Y0285654D03*
X0339683Y0285654D03*
X0337715Y0285654D03*
X0335746Y0285654D03*
X0333778Y0285654D03*
X0331809Y0285654D03*
X0329841Y0285654D03*
X0327872Y0285654D03*
X0325904Y0285654D03*
X0323935Y0285654D03*
X0323935Y0320339D03*
X0325904Y0320339D03*
X0327872Y0320339D03*
X0329841Y0320339D03*
X0331809Y0320339D03*
X0333778Y0320339D03*
X0335746Y0320339D03*
X0337715Y0320339D03*
X0339683Y0320339D03*
X0341652Y0320339D03*
X0343620Y0320339D03*
X0345589Y0320339D03*
X0347557Y0320339D03*
X0349526Y0320339D03*
X0351494Y0320339D03*
X0353463Y0320339D03*
X0355431Y0320339D03*
X0357400Y0320339D03*
D21*
X0367045Y0314040D03*
X0367045Y0291953D03*
X0314289Y0291953D03*
X0314289Y0314040D03*
D22*
X0313797Y0152071D03*
X0316356Y0152071D03*
X0318915Y0152071D03*
X0321474Y0152071D03*
X0324033Y0152071D03*
X0326593Y0152071D03*
X0329152Y0152071D03*
X0331711Y0152071D03*
X0334270Y0152071D03*
X0336829Y0152071D03*
X0339388Y0152071D03*
X0341947Y0152071D03*
X0344506Y0152071D03*
X0347065Y0152071D03*
X0349624Y0152071D03*
X0352183Y0152071D03*
X0354742Y0152071D03*
X0357301Y0152071D03*
X0359860Y0152071D03*
X0362419Y0152071D03*
X0364978Y0152071D03*
X0367537Y0152071D03*
X0367537Y0098921D03*
X0364978Y0098921D03*
X0362419Y0098921D03*
X0359860Y0098921D03*
X0357301Y0098921D03*
X0354742Y0098921D03*
X0352183Y0098921D03*
X0349624Y0098921D03*
X0347065Y0098921D03*
X0344506Y0098921D03*
X0341947Y0098921D03*
X0339388Y0098921D03*
X0336829Y0098921D03*
X0334270Y0098921D03*
X0331711Y0098921D03*
X0329152Y0098921D03*
X0326593Y0098921D03*
X0324033Y0098921D03*
X0321474Y0098921D03*
X0318915Y0098921D03*
X0316356Y0098921D03*
X0313797Y0098921D03*
D23*
X0340667Y0125496D03*
D24*
X0312518Y0125496D03*
X0368817Y0125496D03*
D25*
X0386667Y0127835D03*
X0386667Y0145158D03*
X0293667Y0111158D03*
X0293667Y0093835D03*
X0259467Y0131435D03*
X0259467Y0148758D03*
X0214667Y0276835D03*
X0214667Y0294158D03*
D26*
X0239927Y0288827D03*
X0247407Y0288827D03*
X0243667Y0280166D03*
X0260927Y0285166D03*
X0268407Y0285166D03*
X0264667Y0293827D03*
D27*
X0161856Y0279016D03*
X0161856Y0243977D03*
D28*
X0185085Y0243977D03*
X0185085Y0279016D03*
D29*
X0185478Y0267795D03*
X0185478Y0264646D03*
X0185478Y0261496D03*
X0185478Y0258347D03*
X0185478Y0255197D03*
D30*
X0438067Y0242796D03*
X0438067Y0237796D03*
X0438067Y0232796D03*
X0438067Y0227796D03*
X0464567Y0227796D03*
X0464567Y0232796D03*
X0464567Y0237796D03*
X0464567Y0242796D03*
D31*
X0499667Y0361996D03*
X0499667Y0385496D03*
X0354667Y0395496D03*
X0327667Y0395496D03*
X0180667Y0385496D03*
X0180667Y0361496D03*
D32*
X0229596Y0129874D03*
X0229596Y0169244D03*
X0452549Y0169142D03*
X0452549Y0129772D03*
M02*
