%
M48
M72
T01C0.01378
T02C0.02362
T03C0.03200
T04C0.03543
T05C0.03600
T06C0.04000
T07C0.11811
%
T01
X165267Y125096
X171267Y156296
X167667Y163496
X189267Y159896
X202467Y161096
X203667Y165896
X202467Y155096
X189267Y179096
X225267Y203096
X243267Y181496
X243267Y175496
X254067Y161096
X258867Y158696
X263667Y161096
X282867Y162296
X288867Y165896
X246867Y231896
X178467Y235496
X216867Y84296
X396867Y114296
X409730Y130559
X415667Y127496
X443667Y138296
X443667Y157496
X422067Y176696
X434067Y222296
X429267Y223496
X453267Y234296
X453267Y241496
X486867Y233096
X477267Y295496
X395667Y237896
X500067Y144296
X486867Y135896
X492867Y131096
X486867Y116696
X404067Y92696
T02
X404667Y83096
X393667Y93696
X367667Y92496
X361667Y92496
X347667Y91496
X331667Y93496
X319667Y107496
X301667Y106496
X300067Y121296
X307667Y131496
X333667Y134496
X346667Y134496
X358667Y143496
X369667Y143496
X372667Y149496
X349667Y156496
X341163Y169803
X333667Y172496
X333363Y188003
X332163Y195203
X348067Y207696
X358563Y218003
X362163Y222803
X349563Y229403
X348963Y236003
X340563Y238403
X329763Y243203
X338763Y246203
X330963Y250403
X355667Y257496
X360667Y259496
X365667Y259496
X355667Y269496
X360667Y273496
X364667Y277496
X369667Y282496
X360267Y304496
X356667Y304496
X352667Y304496
X348667Y304496
X344667Y304496
X340667Y304496
X336667Y304496
X332667Y304496
X328667Y304496
X324667Y304496
X320667Y304496
X336667Y297496
X328667Y291496
X302667Y261496
X275667Y262496
X266667Y270496
X249667Y250496
X243467Y245696
X241067Y232096
X251867Y232496
X253467Y225696
X272667Y225496
X274667Y215496
X286667Y220496
X300963Y220403
X308163Y221603
X280667Y201496
X285667Y197496
X294667Y181496
X298667Y176496
X276667Y173496
X276667Y179496
X265667Y175496
X260667Y181496
X242667Y207496
X235667Y218496
X264667Y242496
X268667Y239496
X238667Y277496
X230467Y286896
X221667Y296496
X200667Y297496
X199667Y280496
X162667Y283496
X160667Y293496
X196667Y247496
X166867Y222096
X188467Y201696
X165667Y188496
X211267Y187296
X211267Y170496
X186067Y130896
X212467Y114096
X235667Y108896
X240467Y108896
X245267Y108896
X250067Y108896
X264467Y108896
X269267Y108896
X269267Y102896
X264467Y102896
X275267Y108896
X275267Y113696
X275267Y118496
X275267Y123296
X275267Y128096
X275267Y132896
X275267Y137696
X275267Y142496
X275267Y147296
X271667Y152096
X307667Y152496
X319667Y158496
X332667Y156496
X360667Y183496
X366226Y185740
X376163Y184803
X370163Y173803
X390163Y188803
X382667Y197496
X385667Y202496
X384267Y227496
X402963Y232403
X420067Y232896
X403867Y251296
X425667Y267496
X452467Y253296
X504067Y219696
X516067Y184896
X469267Y184896
X436867Y208896
X405667Y180096
X396067Y165696
X428467Y130896
X428467Y115296
X427267Y96096
X374667Y120496
X346667Y118496
X333667Y118496
X311667Y91496
X187267Y88896
X452467Y290496
X457667Y358496
X444667Y360496
X437667Y358496
X415667Y357496
X406667Y360496
X398667Y358496
X380667Y361496
X367667Y360496
X360667Y360496
X351667Y361496
X346667Y365496
X334667Y366496
X335667Y359496
X326667Y360496
X313667Y360496
X300667Y360496
X287667Y359496
X273667Y360496
X260667Y360496
X248667Y358496
X234667Y360496
X222667Y360496
X207667Y356496
X195667Y359496
X188667Y356496
X181667Y347496
X200667Y345496
X185667Y371496
X205667Y384496
X211867Y386896
X219667Y393496
X244667Y393496
X245667Y385496
X284667Y385496
X294667Y394496
X306667Y393496
X323667Y384496
X355667Y384496
X361667Y386496
X371667Y399496
X385667Y394496
X395667Y384496
X433667Y384496
X462667Y393496
X469667Y383496
X473667Y357496
X485667Y358496
X493667Y361496
X357667Y338496
X315667Y333496
X314667Y326496
X306667Y336496
X493267Y87696
T03
X251667Y264496
X241667Y264496
X231667Y264496
X221667Y264496
X211667Y264496
X201667Y264496
T04
X173667Y270158
X173667Y252835
T05
X242867Y96496
X252867Y96496
X496574Y283674
X506574Y283674
T06
X419667Y285496
X419667Y275496
X419667Y295496
X218574Y226800
X208574Y226800
X198574Y226800
X188574Y226800
T07
X174478Y98378
X202037Y98378
X202037Y200740
X174478Y200740
X291667Y285496
X291667Y321496
X389667Y321496
X389667Y285496
X480108Y200638
X507667Y200638
X507667Y98276
X480108Y98276
M30
