G75*
%MOIN*%
%OFA0B0*%
%FSLAX24Y24*%
%IPPOS*%
%LPD*%
%AMOC8*
5,1,8,0,0,1.08239X$1,22.5*
%
%ADD10C,0.0640*%
%ADD11R,0.0592X0.0671*%
%ADD12R,0.0671X0.0592*%
%ADD13C,0.0680*%
%ADD14C,0.0595*%
%ADD15C,0.1182*%
%ADD16R,0.0930X0.0500*%
%ADD17R,0.4178X0.4332*%
%ADD18R,0.0592X0.0710*%
%ADD19C,0.0600*%
%ADD20R,0.0671X0.0671*%
%ADD21R,0.0710X0.0592*%
%ADD22R,0.1025X0.0789*%
%ADD23C,0.0434*%
%ADD24C,0.0050*%
%ADD25R,0.0710X0.0678*%
%ADD26C,0.1261*%
%ADD27C,0.0476*%
D10*
X012960Y008380D02*
X012960Y008940D01*
X013960Y008940D02*
X013960Y008380D01*
X041749Y026582D02*
X041749Y027142D01*
X042749Y027142D02*
X042749Y026582D01*
D11*
G36*
X027200Y021914D02*
X027619Y022333D01*
X028092Y021860D01*
X027673Y021441D01*
X027200Y021914D01*
G37*
G36*
X026727Y021441D02*
X027146Y021860D01*
X027619Y021387D01*
X027200Y020968D01*
X026727Y021441D01*
G37*
G36*
X024379Y022288D02*
X023960Y022707D01*
X024433Y023180D01*
X024852Y022761D01*
X024379Y022288D01*
G37*
G36*
X023906Y022761D02*
X023487Y023180D01*
X023960Y023653D01*
X024379Y023234D01*
X023906Y022761D01*
G37*
G36*
X023412Y020660D02*
X022993Y020241D01*
X022520Y020714D01*
X022939Y021133D01*
X023412Y020660D01*
G37*
G36*
X022939Y020187D02*
X022520Y019768D01*
X022047Y020241D01*
X022466Y020660D01*
X022939Y020187D01*
G37*
G36*
X026532Y017660D02*
X026113Y017241D01*
X025640Y017714D01*
X026059Y018133D01*
X026532Y017660D01*
G37*
G36*
X026059Y017187D02*
X025640Y016768D01*
X025167Y017241D01*
X025586Y017660D01*
X026059Y017187D01*
G37*
X026620Y015966D03*
X027289Y015966D03*
X034825Y009460D03*
X035495Y009460D03*
D12*
X010934Y011372D03*
X010934Y012041D03*
X010034Y011981D03*
X010034Y011312D03*
X009995Y013050D03*
X009995Y013720D03*
X010975Y013740D03*
X010975Y013070D03*
D13*
X011410Y019491D02*
X012010Y019491D01*
X012010Y020491D02*
X011410Y020491D01*
X011410Y021491D02*
X012010Y021491D01*
X012010Y022491D02*
X011410Y022491D01*
D14*
X019169Y014429D03*
X019169Y013641D03*
X019169Y012854D03*
X019169Y012066D03*
X019169Y011279D03*
X019169Y010491D03*
X032551Y010491D03*
X032551Y011279D03*
X032551Y012066D03*
X032551Y012854D03*
X032551Y013641D03*
X032551Y014429D03*
D15*
X009129Y008917D03*
X009129Y016003D03*
X042591Y016003D03*
X042591Y008917D03*
D16*
X011880Y011260D03*
X011880Y012260D03*
X011880Y013260D03*
D17*
X015160Y012260D03*
D18*
X022786Y009060D03*
X023534Y009060D03*
X027686Y014160D03*
X028434Y014160D03*
X034786Y010360D03*
X035534Y010360D03*
X039786Y008660D03*
X040534Y008660D03*
X040286Y028460D03*
X041034Y028460D03*
X011234Y028560D03*
X010486Y028560D03*
D19*
X011960Y025720D02*
X011960Y025200D01*
X012960Y025200D02*
X012960Y025720D01*
X013960Y025720D02*
X013960Y025200D01*
X014960Y025200D02*
X014960Y025720D01*
X015960Y025720D02*
X015960Y025200D01*
X016960Y025200D02*
X016960Y025720D01*
X033675Y008610D02*
X033675Y008090D01*
X034660Y008090D02*
X034660Y008610D01*
X035644Y008610D02*
X035644Y008090D01*
D20*
X039171Y007460D03*
X040549Y007460D03*
X041871Y028460D03*
X043249Y028460D03*
X039210Y035521D03*
X039210Y036899D03*
X035160Y036899D03*
X035160Y035521D03*
X031410Y035521D03*
X031410Y036899D03*
X027610Y036899D03*
X027610Y035521D03*
X024110Y035521D03*
X024110Y036899D03*
X020210Y036899D03*
X020210Y035521D03*
X016310Y035521D03*
X016310Y036899D03*
X012310Y036899D03*
X012310Y035521D03*
X009749Y028560D03*
X008371Y028560D03*
X011071Y007560D03*
X012449Y007560D03*
D21*
X011260Y008486D03*
X011260Y009234D03*
D22*
X008860Y010663D03*
X008860Y012257D03*
D23*
X009160Y024294D03*
X009160Y026026D03*
D24*
X014007Y019862D02*
X013958Y019813D01*
X013919Y019757D01*
X013890Y019695D01*
X013872Y019628D01*
X013866Y019560D01*
X013872Y019492D01*
X013890Y019425D01*
X013919Y019363D01*
X013958Y019307D01*
X014007Y019258D01*
X014063Y019219D01*
X014125Y019190D01*
X014192Y019172D01*
X014260Y019166D01*
X014328Y019172D01*
X014395Y019190D01*
X014457Y019219D01*
X014513Y019258D01*
X014562Y019307D01*
X014601Y019363D01*
X014630Y019425D01*
X014648Y019492D01*
X014654Y019560D01*
X014648Y019628D01*
X014630Y019695D01*
X014601Y019757D01*
X014562Y019813D01*
X014513Y019862D01*
X014457Y019901D01*
X014395Y019930D01*
X014328Y019948D01*
X014260Y019954D01*
X014192Y019948D01*
X014125Y019930D01*
X014063Y019901D01*
X014007Y019862D01*
X014006Y019861D02*
X014514Y019861D01*
X014562Y019813D02*
X013958Y019813D01*
X013924Y019764D02*
X014596Y019764D01*
X014620Y019716D02*
X013900Y019716D01*
X013883Y019667D02*
X014637Y019667D01*
X014649Y019619D02*
X013871Y019619D01*
X013867Y019570D02*
X014653Y019570D01*
X014650Y019522D02*
X013870Y019522D01*
X013877Y019473D02*
X014643Y019473D01*
X014630Y019425D02*
X013890Y019425D01*
X013913Y019376D02*
X014607Y019376D01*
X014576Y019328D02*
X013944Y019328D01*
X013986Y019279D02*
X014534Y019279D01*
X014473Y019231D02*
X014047Y019231D01*
X014155Y019182D02*
X014365Y019182D01*
X014438Y019910D02*
X014082Y019910D01*
X037019Y008557D02*
X037058Y008613D01*
X037107Y008662D01*
X037163Y008701D01*
X037225Y008730D01*
X037292Y008748D01*
X037360Y008754D01*
X037428Y008748D01*
X037495Y008730D01*
X037557Y008701D01*
X037613Y008662D01*
X037662Y008613D01*
X037701Y008557D01*
X037730Y008495D01*
X037748Y008428D01*
X037754Y008360D01*
X037748Y008292D01*
X037730Y008225D01*
X037701Y008163D01*
X037662Y008107D01*
X037613Y008058D01*
X037557Y008019D01*
X037495Y007990D01*
X037428Y007972D01*
X037360Y007966D01*
X037292Y007972D01*
X037225Y007990D01*
X037163Y008019D01*
X037107Y008058D01*
X037058Y008107D01*
X037019Y008163D01*
X036990Y008225D01*
X036972Y008292D01*
X036966Y008360D01*
X036972Y008428D01*
X036990Y008495D01*
X037019Y008557D01*
X037022Y008561D02*
X037698Y008561D01*
X037722Y008512D02*
X036998Y008512D01*
X036982Y008464D02*
X037738Y008464D01*
X037749Y008415D02*
X036971Y008415D01*
X036967Y008367D02*
X037753Y008367D01*
X037750Y008318D02*
X036970Y008318D01*
X036978Y008270D02*
X037742Y008270D01*
X037728Y008221D02*
X036992Y008221D01*
X037015Y008173D02*
X037705Y008173D01*
X037674Y008124D02*
X037046Y008124D01*
X037090Y008076D02*
X037630Y008076D01*
X037568Y008027D02*
X037152Y008027D01*
X037268Y007979D02*
X037452Y007979D01*
X037664Y008609D02*
X037056Y008609D01*
X037103Y008658D02*
X037617Y008658D01*
X037546Y008706D02*
X037174Y008706D01*
X038792Y026572D02*
X038725Y026590D01*
X038663Y026619D01*
X038607Y026658D01*
X038558Y026707D01*
X038519Y026763D01*
X038490Y026825D01*
X038472Y026892D01*
X038466Y026960D01*
X038472Y027028D01*
X038490Y027095D01*
X038519Y027157D01*
X038558Y027213D01*
X038607Y027262D01*
X038663Y027301D01*
X038725Y027330D01*
X038792Y027348D01*
X038860Y027354D01*
X038928Y027348D01*
X038995Y027330D01*
X039057Y027301D01*
X039113Y027262D01*
X039162Y027213D01*
X039201Y027157D01*
X039230Y027095D01*
X039248Y027028D01*
X039254Y026960D01*
X039248Y026892D01*
X039230Y026825D01*
X039201Y026763D01*
X039162Y026707D01*
X039113Y026658D01*
X039057Y026619D01*
X038995Y026590D01*
X038928Y026572D01*
X038860Y026566D01*
X038792Y026572D01*
X038698Y026603D02*
X039022Y026603D01*
X039103Y026651D02*
X038617Y026651D01*
X038566Y026700D02*
X039154Y026700D01*
X039190Y026748D02*
X038530Y026748D01*
X038503Y026797D02*
X039217Y026797D01*
X039235Y026845D02*
X038485Y026845D01*
X038472Y026894D02*
X039248Y026894D01*
X039252Y026942D02*
X038468Y026942D01*
X038469Y026991D02*
X039251Y026991D01*
X039245Y027039D02*
X038475Y027039D01*
X038488Y027088D02*
X039232Y027088D01*
X039211Y027136D02*
X038509Y027136D01*
X038538Y027185D02*
X039182Y027185D01*
X039142Y027233D02*
X038578Y027233D01*
X038636Y027282D02*
X039084Y027282D01*
X038994Y027330D02*
X038726Y027330D01*
D25*
X040310Y035562D03*
X040310Y036999D03*
X036260Y036999D03*
X036260Y035562D03*
X032410Y035562D03*
X032410Y036999D03*
X028610Y036999D03*
X028610Y035562D03*
X023210Y035562D03*
X023210Y036999D03*
X019210Y036999D03*
X019210Y035562D03*
X015310Y035562D03*
X015310Y036999D03*
X011310Y036999D03*
X011310Y035562D03*
D26*
X020960Y031160D03*
X020960Y027560D03*
X030760Y027560D03*
X030760Y031160D03*
D27*
X027560Y032860D03*
X027860Y035060D03*
X026960Y035160D03*
X026460Y035560D03*
X025260Y035660D03*
X025360Y034960D03*
X024460Y035060D03*
X023160Y035060D03*
X021860Y035060D03*
X020560Y034960D03*
X019160Y035060D03*
X017860Y035060D03*
X016660Y034860D03*
X015260Y035060D03*
X014060Y035060D03*
X012560Y034660D03*
X011360Y034960D03*
X010660Y034660D03*
X009960Y033760D03*
X011860Y033560D03*
X010360Y036160D03*
X012360Y037460D03*
X013760Y038360D03*
X016260Y038360D03*
X016360Y037560D03*
X020260Y037560D03*
X021260Y038460D03*
X022460Y038360D03*
X024160Y037460D03*
X027360Y037460D03*
X027960Y037660D03*
X028960Y038960D03*
X030360Y038460D03*
X031360Y037460D03*
X029860Y035160D03*
X028560Y035060D03*
X031660Y034860D03*
X032460Y035060D03*
X033360Y034760D03*
X035560Y034860D03*
X036260Y035060D03*
X037560Y034860D03*
X039160Y034760D03*
X040360Y034860D03*
X041160Y035160D03*
X038760Y037360D03*
X038060Y038360D03*
X035160Y037460D03*
X037960Y033060D03*
X037360Y028260D03*
X034360Y025760D03*
X032260Y026360D03*
X028760Y027260D03*
X028260Y026760D03*
X027860Y026360D03*
X027360Y025960D03*
X027860Y024960D03*
X028360Y024960D03*
X027360Y024760D03*
X025670Y023631D03*
X025850Y022851D03*
X026690Y022611D03*
X026750Y021951D03*
X028010Y021291D03*
X027650Y020811D03*
X030060Y018760D03*
X030360Y019260D03*
X030810Y017891D03*
X029410Y017491D03*
X028416Y017584D03*
X028410Y017591D03*
X027860Y017360D03*
X027610Y016791D03*
X028810Y016391D03*
X026760Y014660D03*
X025910Y015991D03*
X025160Y016260D03*
X025060Y014660D03*
X023760Y014860D03*
X022560Y014260D03*
X020760Y014960D03*
X019460Y016360D03*
X019460Y016960D03*
X018360Y016560D03*
X017860Y017160D03*
X016560Y018660D03*
X015160Y019060D03*
X016060Y019760D03*
X015360Y020860D03*
X014560Y021860D03*
X013960Y021060D03*
X015660Y022460D03*
X016260Y021860D03*
X017460Y022260D03*
X018260Y023260D03*
X018660Y022960D03*
X019060Y021560D03*
X019260Y020560D03*
X017860Y020860D03*
X019860Y019160D03*
X020360Y018760D03*
X021260Y017160D03*
X021660Y016660D03*
X025130Y017811D03*
X025010Y018531D03*
X022610Y021171D03*
X021890Y021051D03*
X020460Y021060D03*
X016760Y024060D03*
X018460Y026060D03*
X019360Y025260D03*
X022060Y025160D03*
X024890Y024051D03*
X024770Y023331D03*
X024660Y028160D03*
X025460Y028760D03*
X025460Y029460D03*
X025060Y029460D03*
X024660Y029460D03*
X024260Y029460D03*
X023860Y029460D03*
X025860Y029460D03*
X026260Y029460D03*
X026660Y029460D03*
X027060Y029460D03*
X027460Y029460D03*
X023260Y031660D03*
X023360Y032360D03*
X022460Y032660D03*
X015660Y026760D03*
X013960Y028660D03*
X011860Y028760D03*
X011760Y027060D03*
X008060Y027360D03*
X007860Y028360D03*
X011460Y023760D03*
X010560Y018760D03*
X011460Y017560D03*
X011060Y016160D03*
X013460Y017560D03*
X013960Y017760D03*
X014960Y014660D03*
X016860Y014660D03*
X012760Y010560D03*
X011160Y009960D03*
X012160Y008360D03*
X017560Y009460D03*
X017760Y008460D03*
X021960Y009660D03*
X022960Y008160D03*
X023760Y009760D03*
X025160Y010860D03*
X026460Y010860D03*
X026460Y012460D03*
X027660Y013360D03*
X028760Y013360D03*
X029060Y013960D03*
X031560Y015360D03*
X033460Y017160D03*
X034660Y015960D03*
X033960Y014660D03*
X036860Y013460D03*
X033860Y011460D03*
X031260Y008560D03*
X032260Y007560D03*
X028560Y008260D03*
X027960Y008260D03*
X026560Y008160D03*
X024960Y008360D03*
X022560Y012160D03*
X025160Y012460D03*
X029260Y011060D03*
X038760Y010860D03*
X039760Y009160D03*
X040260Y012160D03*
X043460Y010460D03*
X040160Y015760D03*
X043560Y017360D03*
X040160Y022260D03*
X037760Y021660D03*
X037560Y020860D03*
X036960Y019660D03*
X034160Y019260D03*
X032660Y020760D03*
X033060Y022160D03*
X032090Y022251D03*
X030860Y022460D03*
X030460Y021760D03*
X030460Y021160D03*
X040360Y025260D03*
X008660Y013060D03*
X008460Y018460D03*
M02*
