G75*
%MOIN*%
%OFA0B0*%
%FSLAX24Y24*%
%IPPOS*%
%LPD*%
%AMOC8*
5,1,8,0,0,1.08239X$1,22.5*
%
%ADD10R,0.0100X0.0580*%
%ADD11R,0.0551X0.0748*%
%ADD12R,0.0512X0.0591*%
%ADD13R,0.0630X0.0512*%
%ADD14R,0.0591X0.0512*%
%ADD15R,0.0610X0.0512*%
%ADD16R,0.0591X0.0591*%
%ADD17R,0.0512X0.0630*%
%ADD18R,0.0118X0.0236*%
%ADD19R,0.0236X0.0118*%
%ADD20R,0.0118X0.0315*%
%ADD21R,0.0787X0.0748*%
%ADD22R,0.0157X0.0472*%
%ADD23R,0.4961X0.2874*%
%ADD24R,0.0669X0.1142*%
%ADD25R,0.0630X0.1181*%
%ADD26R,0.1181X0.0630*%
%ADD27R,0.0394X0.0551*%
%ADD28R,0.0551X0.0394*%
%ADD29R,0.0984X0.0787*%
%ADD30R,0.1299X0.0787*%
%ADD31R,0.1220X0.0197*%
%ADD32R,0.0870X0.0240*%
%ADD33R,0.0354X0.0354*%
D10*
G36*
X022713Y019377D02*
X022784Y019306D01*
X022375Y018897D01*
X022304Y018968D01*
X022713Y019377D01*
G37*
G36*
X022572Y019518D02*
X022643Y019447D01*
X022234Y019038D01*
X022163Y019109D01*
X022572Y019518D01*
G37*
G36*
X022430Y019660D02*
X022501Y019589D01*
X022092Y019180D01*
X022021Y019251D01*
X022430Y019660D01*
G37*
G36*
X022296Y019794D02*
X022367Y019723D01*
X021958Y019314D01*
X021887Y019385D01*
X022296Y019794D01*
G37*
G36*
X022155Y019935D02*
X022226Y019864D01*
X021817Y019455D01*
X021746Y019526D01*
X022155Y019935D01*
G37*
G36*
X022013Y020077D02*
X022084Y020006D01*
X021675Y019597D01*
X021604Y019668D01*
X022013Y020077D01*
G37*
G36*
X021879Y020211D02*
X021950Y020140D01*
X021541Y019731D01*
X021470Y019802D01*
X021879Y020211D01*
G37*
G36*
X021737Y020353D02*
X021808Y020282D01*
X021399Y019873D01*
X021328Y019944D01*
X021737Y020353D01*
G37*
G36*
X021596Y020494D02*
X021667Y020423D01*
X021258Y020014D01*
X021187Y020085D01*
X021596Y020494D01*
G37*
G36*
X021455Y020636D02*
X021526Y020565D01*
X021117Y020156D01*
X021046Y020227D01*
X021455Y020636D01*
G37*
G36*
X021320Y020770D02*
X021391Y020699D01*
X020982Y020290D01*
X020911Y020361D01*
X021320Y020770D01*
G37*
G36*
X021391Y021323D02*
X021320Y021252D01*
X020911Y021661D01*
X020982Y021732D01*
X021391Y021323D01*
G37*
G36*
X021526Y021457D02*
X021455Y021386D01*
X021046Y021795D01*
X021117Y021866D01*
X021526Y021457D01*
G37*
G36*
X021667Y021598D02*
X021596Y021527D01*
X021187Y021936D01*
X021258Y022007D01*
X021667Y021598D01*
G37*
G36*
X021808Y021740D02*
X021737Y021669D01*
X021328Y022078D01*
X021399Y022149D01*
X021808Y021740D01*
G37*
G36*
X021950Y021881D02*
X021879Y021810D01*
X021470Y022219D01*
X021541Y022290D01*
X021950Y021881D01*
G37*
G36*
X022084Y022016D02*
X022013Y021945D01*
X021604Y022354D01*
X021675Y022425D01*
X022084Y022016D01*
G37*
G36*
X022226Y022157D02*
X022155Y022086D01*
X021746Y022495D01*
X021817Y022566D01*
X022226Y022157D01*
G37*
G36*
X022367Y022298D02*
X022296Y022227D01*
X021887Y022636D01*
X021958Y022707D01*
X022367Y022298D01*
G37*
G36*
X022501Y022433D02*
X022430Y022362D01*
X022021Y022771D01*
X022092Y022842D01*
X022501Y022433D01*
G37*
G36*
X022643Y022574D02*
X022572Y022503D01*
X022163Y022912D01*
X022234Y022983D01*
X022643Y022574D01*
G37*
G36*
X022784Y022716D02*
X022713Y022645D01*
X022304Y023054D01*
X022375Y023125D01*
X022784Y022716D01*
G37*
G36*
X022919Y022850D02*
X022848Y022779D01*
X022439Y023188D01*
X022510Y023259D01*
X022919Y022850D01*
G37*
G36*
X023060Y022991D02*
X022989Y022920D01*
X022580Y023329D01*
X022651Y023400D01*
X023060Y022991D01*
G37*
G36*
X023201Y023133D02*
X023130Y023062D01*
X022721Y023471D01*
X022792Y023542D01*
X023201Y023133D01*
G37*
G36*
X023336Y023267D02*
X023265Y023196D01*
X022856Y023605D01*
X022927Y023676D01*
X023336Y023267D01*
G37*
G36*
X023477Y023409D02*
X023406Y023338D01*
X022997Y023747D01*
X023068Y023818D01*
X023477Y023409D01*
G37*
G36*
X023619Y023550D02*
X023548Y023479D01*
X023139Y023888D01*
X023210Y023959D01*
X023619Y023550D01*
G37*
G36*
X023753Y023684D02*
X023682Y023613D01*
X023273Y024022D01*
X023344Y024093D01*
X023753Y023684D01*
G37*
G36*
X023894Y023826D02*
X023823Y023755D01*
X023414Y024164D01*
X023485Y024235D01*
X023894Y023826D01*
G37*
G36*
X024036Y023967D02*
X023965Y023896D01*
X023556Y024305D01*
X023627Y024376D01*
X024036Y023967D01*
G37*
G36*
X024170Y024101D02*
X024099Y024030D01*
X023690Y024439D01*
X023761Y024510D01*
X024170Y024101D01*
G37*
G36*
X024312Y024243D02*
X024241Y024172D01*
X023832Y024581D01*
X023903Y024652D01*
X024312Y024243D01*
G37*
G36*
X024453Y024384D02*
X024382Y024313D01*
X023973Y024722D01*
X024044Y024793D01*
X024453Y024384D01*
G37*
G36*
X024594Y024526D02*
X024523Y024455D01*
X024114Y024864D01*
X024185Y024935D01*
X024594Y024526D01*
G37*
G36*
X024729Y024660D02*
X024658Y024589D01*
X024249Y024998D01*
X024320Y025069D01*
X024729Y024660D01*
G37*
G36*
X025619Y025069D02*
X025690Y024998D01*
X025281Y024589D01*
X025210Y024660D01*
X025619Y025069D01*
G37*
G36*
X025754Y024935D02*
X025825Y024864D01*
X025416Y024455D01*
X025345Y024526D01*
X025754Y024935D01*
G37*
G36*
X025895Y024793D02*
X025966Y024722D01*
X025557Y024313D01*
X025486Y024384D01*
X025895Y024793D01*
G37*
G36*
X026037Y024652D02*
X026108Y024581D01*
X025699Y024172D01*
X025628Y024243D01*
X026037Y024652D01*
G37*
G36*
X026178Y024510D02*
X026249Y024439D01*
X025840Y024030D01*
X025769Y024101D01*
X026178Y024510D01*
G37*
G36*
X026312Y024376D02*
X026383Y024305D01*
X025974Y023896D01*
X025903Y023967D01*
X026312Y024376D01*
G37*
G36*
X026454Y024235D02*
X026525Y024164D01*
X026116Y023755D01*
X026045Y023826D01*
X026454Y024235D01*
G37*
G36*
X026595Y024093D02*
X026666Y024022D01*
X026257Y023613D01*
X026186Y023684D01*
X026595Y024093D01*
G37*
G36*
X026730Y023959D02*
X026801Y023888D01*
X026392Y023479D01*
X026321Y023550D01*
X026730Y023959D01*
G37*
G36*
X026871Y023818D02*
X026942Y023747D01*
X026533Y023338D01*
X026462Y023409D01*
X026871Y023818D01*
G37*
G36*
X027012Y023676D02*
X027083Y023605D01*
X026674Y023196D01*
X026603Y023267D01*
X027012Y023676D01*
G37*
G36*
X027147Y023542D02*
X027218Y023471D01*
X026809Y023062D01*
X026738Y023133D01*
X027147Y023542D01*
G37*
G36*
X027288Y023400D02*
X027359Y023329D01*
X026950Y022920D01*
X026879Y022991D01*
X027288Y023400D01*
G37*
G36*
X027430Y023259D02*
X027501Y023188D01*
X027092Y022779D01*
X027021Y022850D01*
X027430Y023259D01*
G37*
G36*
X027564Y023125D02*
X027635Y023054D01*
X027226Y022645D01*
X027155Y022716D01*
X027564Y023125D01*
G37*
G36*
X027705Y022983D02*
X027776Y022912D01*
X027367Y022503D01*
X027296Y022574D01*
X027705Y022983D01*
G37*
G36*
X027847Y022842D02*
X027918Y022771D01*
X027509Y022362D01*
X027438Y022433D01*
X027847Y022842D01*
G37*
G36*
X027981Y022707D02*
X028052Y022636D01*
X027643Y022227D01*
X027572Y022298D01*
X027981Y022707D01*
G37*
G36*
X028123Y022566D02*
X028194Y022495D01*
X027785Y022086D01*
X027714Y022157D01*
X028123Y022566D01*
G37*
G36*
X028264Y022425D02*
X028335Y022354D01*
X027926Y021945D01*
X027855Y022016D01*
X028264Y022425D01*
G37*
G36*
X028398Y022290D02*
X028469Y022219D01*
X028060Y021810D01*
X027989Y021881D01*
X028398Y022290D01*
G37*
G36*
X028540Y022149D02*
X028611Y022078D01*
X028202Y021669D01*
X028131Y021740D01*
X028540Y022149D01*
G37*
G36*
X028681Y022007D02*
X028752Y021936D01*
X028343Y021527D01*
X028272Y021598D01*
X028681Y022007D01*
G37*
G36*
X028823Y021866D02*
X028894Y021795D01*
X028485Y021386D01*
X028414Y021457D01*
X028823Y021866D01*
G37*
G36*
X028957Y021732D02*
X029028Y021661D01*
X028619Y021252D01*
X028548Y021323D01*
X028957Y021732D01*
G37*
G36*
X029028Y020361D02*
X028957Y020290D01*
X028548Y020699D01*
X028619Y020770D01*
X029028Y020361D01*
G37*
G36*
X028894Y020227D02*
X028823Y020156D01*
X028414Y020565D01*
X028485Y020636D01*
X028894Y020227D01*
G37*
G36*
X028752Y020085D02*
X028681Y020014D01*
X028272Y020423D01*
X028343Y020494D01*
X028752Y020085D01*
G37*
G36*
X028611Y019944D02*
X028540Y019873D01*
X028131Y020282D01*
X028202Y020353D01*
X028611Y019944D01*
G37*
G36*
X028469Y019802D02*
X028398Y019731D01*
X027989Y020140D01*
X028060Y020211D01*
X028469Y019802D01*
G37*
G36*
X028335Y019668D02*
X028264Y019597D01*
X027855Y020006D01*
X027926Y020077D01*
X028335Y019668D01*
G37*
G36*
X028194Y019526D02*
X028123Y019455D01*
X027714Y019864D01*
X027785Y019935D01*
X028194Y019526D01*
G37*
G36*
X028052Y019385D02*
X027981Y019314D01*
X027572Y019723D01*
X027643Y019794D01*
X028052Y019385D01*
G37*
G36*
X027918Y019251D02*
X027847Y019180D01*
X027438Y019589D01*
X027509Y019660D01*
X027918Y019251D01*
G37*
G36*
X027776Y019109D02*
X027705Y019038D01*
X027296Y019447D01*
X027367Y019518D01*
X027776Y019109D01*
G37*
G36*
X027635Y018968D02*
X027564Y018897D01*
X027155Y019306D01*
X027226Y019377D01*
X027635Y018968D01*
G37*
G36*
X027501Y018834D02*
X027430Y018763D01*
X027021Y019172D01*
X027092Y019243D01*
X027501Y018834D01*
G37*
G36*
X027359Y018692D02*
X027288Y018621D01*
X026879Y019030D01*
X026950Y019101D01*
X027359Y018692D01*
G37*
G36*
X027218Y018551D02*
X027147Y018480D01*
X026738Y018889D01*
X026809Y018960D01*
X027218Y018551D01*
G37*
G36*
X027083Y018416D02*
X027012Y018345D01*
X026603Y018754D01*
X026674Y018825D01*
X027083Y018416D01*
G37*
G36*
X026942Y018275D02*
X026871Y018204D01*
X026462Y018613D01*
X026533Y018684D01*
X026942Y018275D01*
G37*
G36*
X026801Y018133D02*
X026730Y018062D01*
X026321Y018471D01*
X026392Y018542D01*
X026801Y018133D01*
G37*
G36*
X026666Y017999D02*
X026595Y017928D01*
X026186Y018337D01*
X026257Y018408D01*
X026666Y017999D01*
G37*
G36*
X026525Y017858D02*
X026454Y017787D01*
X026045Y018196D01*
X026116Y018267D01*
X026525Y017858D01*
G37*
G36*
X026383Y017716D02*
X026312Y017645D01*
X025903Y018054D01*
X025974Y018125D01*
X026383Y017716D01*
G37*
G36*
X026249Y017582D02*
X026178Y017511D01*
X025769Y017920D01*
X025840Y017991D01*
X026249Y017582D01*
G37*
G36*
X026108Y017441D02*
X026037Y017370D01*
X025628Y017779D01*
X025699Y017850D01*
X026108Y017441D01*
G37*
G36*
X025966Y017299D02*
X025895Y017228D01*
X025486Y017637D01*
X025557Y017708D01*
X025966Y017299D01*
G37*
G36*
X025825Y017158D02*
X025754Y017087D01*
X025345Y017496D01*
X025416Y017567D01*
X025825Y017158D01*
G37*
G36*
X025690Y017023D02*
X025619Y016952D01*
X025210Y017361D01*
X025281Y017432D01*
X025690Y017023D01*
G37*
G36*
X024658Y017432D02*
X024729Y017361D01*
X024320Y016952D01*
X024249Y017023D01*
X024658Y017432D01*
G37*
G36*
X024523Y017567D02*
X024594Y017496D01*
X024185Y017087D01*
X024114Y017158D01*
X024523Y017567D01*
G37*
G36*
X024382Y017708D02*
X024453Y017637D01*
X024044Y017228D01*
X023973Y017299D01*
X024382Y017708D01*
G37*
G36*
X024241Y017850D02*
X024312Y017779D01*
X023903Y017370D01*
X023832Y017441D01*
X024241Y017850D01*
G37*
G36*
X024099Y017991D02*
X024170Y017920D01*
X023761Y017511D01*
X023690Y017582D01*
X024099Y017991D01*
G37*
G36*
X023965Y018125D02*
X024036Y018054D01*
X023627Y017645D01*
X023556Y017716D01*
X023965Y018125D01*
G37*
G36*
X023823Y018267D02*
X023894Y018196D01*
X023485Y017787D01*
X023414Y017858D01*
X023823Y018267D01*
G37*
G36*
X023682Y018408D02*
X023753Y018337D01*
X023344Y017928D01*
X023273Y017999D01*
X023682Y018408D01*
G37*
G36*
X023548Y018542D02*
X023619Y018471D01*
X023210Y018062D01*
X023139Y018133D01*
X023548Y018542D01*
G37*
G36*
X023406Y018684D02*
X023477Y018613D01*
X023068Y018204D01*
X022997Y018275D01*
X023406Y018684D01*
G37*
G36*
X023265Y018825D02*
X023336Y018754D01*
X022927Y018345D01*
X022856Y018416D01*
X023265Y018825D01*
G37*
G36*
X023130Y018960D02*
X023201Y018889D01*
X022792Y018480D01*
X022721Y018551D01*
X023130Y018960D01*
G37*
G36*
X022989Y019101D02*
X023060Y019030D01*
X022651Y018621D01*
X022580Y018692D01*
X022989Y019101D01*
G37*
G36*
X022848Y019243D02*
X022919Y019172D01*
X022510Y018763D01*
X022439Y018834D01*
X022848Y019243D01*
G37*
D11*
X029497Y023145D03*
X030442Y023145D03*
X030442Y024877D03*
X029497Y024877D03*
D12*
X031255Y024851D03*
X031924Y024851D03*
X031984Y023211D03*
X031315Y023211D03*
X036825Y017360D03*
X037495Y017360D03*
X030764Y016310D03*
X030095Y016310D03*
G36*
X023953Y016403D02*
X024315Y016041D01*
X023899Y015625D01*
X023537Y015987D01*
X023953Y016403D01*
G37*
G36*
X023480Y016876D02*
X023842Y016514D01*
X023426Y016098D01*
X023064Y016460D01*
X023480Y016876D01*
G37*
G36*
X019704Y021921D02*
X020066Y022283D01*
X020482Y021867D01*
X020120Y021505D01*
X019704Y021921D01*
G37*
G36*
X020177Y022394D02*
X020539Y022756D01*
X020955Y022340D01*
X020593Y021978D01*
X020177Y022394D01*
G37*
D13*
X015960Y017234D03*
X015960Y016486D03*
X010506Y019472D03*
X010506Y020220D03*
X010295Y021761D03*
X010295Y022509D03*
X011310Y035936D03*
X012310Y035936D03*
X012310Y036684D03*
X011310Y036684D03*
X015310Y036684D03*
X015310Y035936D03*
X016310Y035936D03*
X016310Y036684D03*
X019210Y036684D03*
X019210Y035936D03*
X020210Y035936D03*
X020210Y036684D03*
X023210Y036684D03*
X024110Y036684D03*
X024110Y035936D03*
X023210Y035936D03*
X025260Y036386D03*
X025260Y037134D03*
X026560Y037234D03*
X026560Y036486D03*
X027610Y036684D03*
X027610Y035936D03*
X028610Y035936D03*
X028610Y036684D03*
X031410Y036684D03*
X031410Y035936D03*
X032410Y035936D03*
X032410Y036684D03*
X035160Y036684D03*
X035160Y035936D03*
X036260Y035936D03*
X036260Y036684D03*
X039210Y036684D03*
X039210Y035936D03*
X040310Y035836D03*
X040310Y036584D03*
X040760Y034134D03*
X040760Y033386D03*
X033431Y024564D03*
X033431Y023816D03*
X031489Y021884D03*
X031489Y021136D03*
D14*
X018760Y007825D03*
X018760Y008495D03*
X021160Y011625D03*
X021160Y012295D03*
X021960Y013225D03*
X021960Y013895D03*
X029760Y009795D03*
X029760Y009125D03*
X030110Y017256D03*
X030110Y017925D03*
X034329Y023835D03*
X034329Y024504D03*
D15*
X040718Y024818D03*
X040718Y023047D03*
X040695Y021446D03*
X040695Y019674D03*
X043825Y019674D03*
X043825Y021446D03*
X043848Y023047D03*
X043848Y024818D03*
D16*
X042075Y034521D03*
X042075Y035899D03*
X042075Y036871D03*
X042075Y038249D03*
X027949Y038875D03*
X026571Y038875D03*
X025249Y038875D03*
X023871Y038875D03*
X009545Y038249D03*
X009545Y036871D03*
X009545Y035849D03*
X009545Y034471D03*
X009466Y022179D03*
X009466Y020801D03*
X009515Y019864D03*
X009515Y018486D03*
D17*
X017886Y026760D03*
X018634Y026760D03*
X016534Y028660D03*
X015786Y028660D03*
X011334Y033960D03*
X010586Y033960D03*
X010486Y037960D03*
X011234Y037960D03*
X031155Y019510D03*
X031903Y019510D03*
X031865Y018610D03*
X031117Y018610D03*
X029934Y014560D03*
X029186Y014560D03*
X039686Y037960D03*
X040434Y037960D03*
D18*
X029203Y016903D03*
X029006Y016903D03*
X028810Y016903D03*
X028613Y016903D03*
X028416Y016903D03*
X028416Y015879D03*
X028613Y015879D03*
X028810Y015879D03*
X029006Y015879D03*
X029203Y015879D03*
D19*
X029321Y016194D03*
X029321Y016391D03*
X029321Y016588D03*
X028298Y016588D03*
X028298Y016391D03*
X028298Y016194D03*
D20*
X027533Y027576D03*
X027336Y027576D03*
X027140Y027576D03*
X026943Y027576D03*
X026746Y027576D03*
X026549Y027576D03*
X026352Y027576D03*
X026155Y027576D03*
X025958Y027576D03*
X025762Y027576D03*
X025565Y027576D03*
X025368Y027576D03*
X025171Y027576D03*
X024974Y027576D03*
X024777Y027576D03*
X024580Y027576D03*
X024384Y027576D03*
X024187Y027576D03*
X024187Y031044D03*
X024384Y031044D03*
X024580Y031044D03*
X024777Y031044D03*
X024974Y031044D03*
X025171Y031044D03*
X025368Y031044D03*
X025565Y031044D03*
X025762Y031044D03*
X025958Y031044D03*
X026155Y031044D03*
X026352Y031044D03*
X026549Y031044D03*
X026746Y031044D03*
X026943Y031044D03*
X027140Y031044D03*
X027336Y031044D03*
X027533Y031044D03*
D21*
X028498Y030414D03*
X028498Y028206D03*
X023222Y028206D03*
X023222Y030414D03*
D22*
X023173Y014217D03*
X023429Y014217D03*
X023685Y014217D03*
X023941Y014217D03*
X024197Y014217D03*
X024453Y014217D03*
X024708Y014217D03*
X024964Y014217D03*
X025220Y014217D03*
X025476Y014217D03*
X025732Y014217D03*
X025988Y014217D03*
X026244Y014217D03*
X026500Y014217D03*
X026756Y014217D03*
X027012Y014217D03*
X027267Y014217D03*
X027523Y014217D03*
X027779Y014217D03*
X028035Y014217D03*
X028291Y014217D03*
X028547Y014217D03*
X028547Y008903D03*
X028291Y008903D03*
X028035Y008903D03*
X027779Y008903D03*
X027523Y008903D03*
X027267Y008903D03*
X027012Y008903D03*
X026756Y008903D03*
X026500Y008903D03*
X026244Y008903D03*
X025988Y008903D03*
X025732Y008903D03*
X025476Y008903D03*
X025220Y008903D03*
X024964Y008903D03*
X024708Y008903D03*
X024453Y008903D03*
X024197Y008903D03*
X023941Y008903D03*
X023685Y008903D03*
X023429Y008903D03*
X023173Y008903D03*
D23*
X025860Y011560D03*
D24*
X028675Y011560D03*
X023045Y011560D03*
D25*
X021160Y010126D03*
X021160Y008394D03*
X030460Y011794D03*
X030460Y013526D03*
X013260Y026694D03*
X013260Y028426D03*
D26*
X013326Y016860D03*
X011594Y016860D03*
D27*
X016160Y027027D03*
X015786Y027893D03*
X016534Y027893D03*
X017886Y027527D03*
X018634Y027527D03*
X018260Y028393D03*
D28*
X015193Y017234D03*
X015193Y016486D03*
X014327Y016860D03*
D29*
X007979Y023408D03*
X007979Y026912D03*
D30*
X010302Y026912D03*
X010302Y023408D03*
D31*
X010341Y024530D03*
X010341Y024845D03*
X010341Y025160D03*
X010341Y025475D03*
X010341Y025790D03*
D32*
X035840Y019810D03*
X035840Y019310D03*
X035840Y018810D03*
X035840Y018310D03*
X038490Y018310D03*
X038490Y018810D03*
X038490Y019310D03*
X038490Y019810D03*
D33*
X041760Y035210D03*
X041760Y037560D03*
X027260Y038560D03*
X024560Y038560D03*
X009860Y037560D03*
X009860Y035160D03*
M02*
