G75*
%MOIN*%
%OFA0B0*%
%FSLAX24Y24*%
%IPPOS*%
%LPD*%
%AMOC8*
5,1,8,0,0,1.08239X$1,22.5*
%
%ADD10C,0.0000*%
D10*
X008560Y006960D02*
X043460Y006960D01*
X043524Y006974D01*
X043586Y006991D01*
X043648Y007011D01*
X043708Y007036D01*
X043767Y007064D01*
X043824Y007095D01*
X043879Y007129D01*
X043932Y007167D01*
X043983Y007207D01*
X044032Y007251D01*
X044077Y007297D01*
X044120Y007346D01*
X044160Y007397D01*
X044197Y007451D01*
X044231Y007506D01*
X044262Y007564D01*
X044289Y007623D01*
X044313Y007683D01*
X044333Y007745D01*
X044349Y007808D01*
X044362Y007872D01*
X044371Y007936D01*
X044376Y008001D01*
X044378Y008066D01*
X044376Y008131D01*
X044370Y008196D01*
X044360Y008260D01*
X044460Y028260D01*
X043660Y029260D01*
X027860Y029260D01*
X027860Y029560D01*
X031760Y029560D01*
X032360Y030060D01*
X032360Y032760D01*
X041560Y032760D01*
X042760Y033860D01*
X043260Y036360D01*
X043260Y039160D01*
X042760Y039460D01*
X008960Y039460D01*
X008460Y039060D01*
X008460Y036260D01*
X008960Y033860D01*
X010160Y032760D01*
X019360Y032760D01*
X019360Y030060D01*
X019660Y029560D01*
X023560Y029560D01*
X023560Y029260D01*
X008160Y029260D01*
X007360Y028260D01*
X007360Y008160D01*
X007362Y008093D01*
X007368Y008026D01*
X007377Y007959D01*
X007390Y007893D01*
X007407Y007828D01*
X007427Y007764D01*
X007451Y007701D01*
X007479Y007639D01*
X007510Y007580D01*
X007544Y007522D01*
X007581Y007466D01*
X007622Y007412D01*
X007665Y007360D01*
X007711Y007311D01*
X007760Y007265D01*
X007812Y007222D01*
X007866Y007181D01*
X007922Y007144D01*
X007980Y007110D01*
X008039Y007079D01*
X008101Y007051D01*
X008164Y007027D01*
X008228Y007007D01*
X008293Y006990D01*
X008359Y006977D01*
X008426Y006968D01*
X008493Y006962D01*
X008560Y006960D01*
X008578Y008917D02*
X008580Y008964D01*
X008586Y009010D01*
X008596Y009056D01*
X008609Y009101D01*
X008627Y009144D01*
X008648Y009186D01*
X008672Y009226D01*
X008700Y009263D01*
X008731Y009298D01*
X008765Y009331D01*
X008801Y009360D01*
X008840Y009386D01*
X008881Y009409D01*
X008924Y009428D01*
X008968Y009444D01*
X009013Y009456D01*
X009059Y009464D01*
X009106Y009468D01*
X009152Y009468D01*
X009199Y009464D01*
X009245Y009456D01*
X009290Y009444D01*
X009334Y009428D01*
X009377Y009409D01*
X009418Y009386D01*
X009457Y009360D01*
X009493Y009331D01*
X009527Y009298D01*
X009558Y009263D01*
X009586Y009226D01*
X009610Y009186D01*
X009631Y009144D01*
X009649Y009101D01*
X009662Y009056D01*
X009672Y009010D01*
X009678Y008964D01*
X009680Y008917D01*
X009678Y008870D01*
X009672Y008824D01*
X009662Y008778D01*
X009649Y008733D01*
X009631Y008690D01*
X009610Y008648D01*
X009586Y008608D01*
X009558Y008571D01*
X009527Y008536D01*
X009493Y008503D01*
X009457Y008474D01*
X009418Y008448D01*
X009377Y008425D01*
X009334Y008406D01*
X009290Y008390D01*
X009245Y008378D01*
X009199Y008370D01*
X009152Y008366D01*
X009106Y008366D01*
X009059Y008370D01*
X009013Y008378D01*
X008968Y008390D01*
X008924Y008406D01*
X008881Y008425D01*
X008840Y008448D01*
X008801Y008474D01*
X008765Y008503D01*
X008731Y008536D01*
X008700Y008571D01*
X008672Y008608D01*
X008648Y008648D01*
X008627Y008690D01*
X008609Y008733D01*
X008596Y008778D01*
X008586Y008824D01*
X008580Y008870D01*
X008578Y008917D01*
X008578Y016003D02*
X008580Y016050D01*
X008586Y016096D01*
X008596Y016142D01*
X008609Y016187D01*
X008627Y016230D01*
X008648Y016272D01*
X008672Y016312D01*
X008700Y016349D01*
X008731Y016384D01*
X008765Y016417D01*
X008801Y016446D01*
X008840Y016472D01*
X008881Y016495D01*
X008924Y016514D01*
X008968Y016530D01*
X009013Y016542D01*
X009059Y016550D01*
X009106Y016554D01*
X009152Y016554D01*
X009199Y016550D01*
X009245Y016542D01*
X009290Y016530D01*
X009334Y016514D01*
X009377Y016495D01*
X009418Y016472D01*
X009457Y016446D01*
X009493Y016417D01*
X009527Y016384D01*
X009558Y016349D01*
X009586Y016312D01*
X009610Y016272D01*
X009631Y016230D01*
X009649Y016187D01*
X009662Y016142D01*
X009672Y016096D01*
X009678Y016050D01*
X009680Y016003D01*
X009678Y015956D01*
X009672Y015910D01*
X009662Y015864D01*
X009649Y015819D01*
X009631Y015776D01*
X009610Y015734D01*
X009586Y015694D01*
X009558Y015657D01*
X009527Y015622D01*
X009493Y015589D01*
X009457Y015560D01*
X009418Y015534D01*
X009377Y015511D01*
X009334Y015492D01*
X009290Y015476D01*
X009245Y015464D01*
X009199Y015456D01*
X009152Y015452D01*
X009106Y015452D01*
X009059Y015456D01*
X009013Y015464D01*
X008968Y015476D01*
X008924Y015492D01*
X008881Y015511D01*
X008840Y015534D01*
X008801Y015560D01*
X008765Y015589D01*
X008731Y015622D01*
X008700Y015657D01*
X008672Y015694D01*
X008648Y015734D01*
X008627Y015776D01*
X008609Y015819D01*
X008596Y015864D01*
X008586Y015910D01*
X008580Y015956D01*
X008578Y016003D01*
X008983Y024294D02*
X008985Y024320D01*
X008991Y024346D01*
X009001Y024371D01*
X009014Y024394D01*
X009030Y024414D01*
X009050Y024432D01*
X009072Y024447D01*
X009095Y024459D01*
X009121Y024467D01*
X009147Y024471D01*
X009173Y024471D01*
X009199Y024467D01*
X009225Y024459D01*
X009249Y024447D01*
X009270Y024432D01*
X009290Y024414D01*
X009306Y024394D01*
X009319Y024371D01*
X009329Y024346D01*
X009335Y024320D01*
X009337Y024294D01*
X009335Y024268D01*
X009329Y024242D01*
X009319Y024217D01*
X009306Y024194D01*
X009290Y024174D01*
X009270Y024156D01*
X009248Y024141D01*
X009225Y024129D01*
X009199Y024121D01*
X009173Y024117D01*
X009147Y024117D01*
X009121Y024121D01*
X009095Y024129D01*
X009071Y024141D01*
X009050Y024156D01*
X009030Y024174D01*
X009014Y024194D01*
X009001Y024217D01*
X008991Y024242D01*
X008985Y024268D01*
X008983Y024294D01*
X008983Y026026D02*
X008985Y026052D01*
X008991Y026078D01*
X009001Y026103D01*
X009014Y026126D01*
X009030Y026146D01*
X009050Y026164D01*
X009072Y026179D01*
X009095Y026191D01*
X009121Y026199D01*
X009147Y026203D01*
X009173Y026203D01*
X009199Y026199D01*
X009225Y026191D01*
X009249Y026179D01*
X009270Y026164D01*
X009290Y026146D01*
X009306Y026126D01*
X009319Y026103D01*
X009329Y026078D01*
X009335Y026052D01*
X009337Y026026D01*
X009335Y026000D01*
X009329Y025974D01*
X009319Y025949D01*
X009306Y025926D01*
X009290Y025906D01*
X009270Y025888D01*
X009248Y025873D01*
X009225Y025861D01*
X009199Y025853D01*
X009173Y025849D01*
X009147Y025849D01*
X009121Y025853D01*
X009095Y025861D01*
X009071Y025873D01*
X009050Y025888D01*
X009030Y025906D01*
X009014Y025926D01*
X009001Y025949D01*
X008991Y025974D01*
X008985Y026000D01*
X008983Y026026D01*
X020369Y027560D02*
X020371Y027608D01*
X020377Y027656D01*
X020387Y027703D01*
X020400Y027749D01*
X020418Y027794D01*
X020438Y027838D01*
X020463Y027880D01*
X020491Y027919D01*
X020521Y027956D01*
X020555Y027990D01*
X020592Y028022D01*
X020630Y028051D01*
X020671Y028076D01*
X020714Y028098D01*
X020759Y028116D01*
X020805Y028130D01*
X020852Y028141D01*
X020900Y028148D01*
X020948Y028151D01*
X020996Y028150D01*
X021044Y028145D01*
X021092Y028136D01*
X021138Y028124D01*
X021183Y028107D01*
X021227Y028087D01*
X021269Y028064D01*
X021309Y028037D01*
X021347Y028007D01*
X021382Y027974D01*
X021414Y027938D01*
X021444Y027900D01*
X021470Y027859D01*
X021492Y027816D01*
X021512Y027772D01*
X021527Y027727D01*
X021539Y027680D01*
X021547Y027632D01*
X021551Y027584D01*
X021551Y027536D01*
X021547Y027488D01*
X021539Y027440D01*
X021527Y027393D01*
X021512Y027348D01*
X021492Y027304D01*
X021470Y027261D01*
X021444Y027220D01*
X021414Y027182D01*
X021382Y027146D01*
X021347Y027113D01*
X021309Y027083D01*
X021269Y027056D01*
X021227Y027033D01*
X021183Y027013D01*
X021138Y026996D01*
X021092Y026984D01*
X021044Y026975D01*
X020996Y026970D01*
X020948Y026969D01*
X020900Y026972D01*
X020852Y026979D01*
X020805Y026990D01*
X020759Y027004D01*
X020714Y027022D01*
X020671Y027044D01*
X020630Y027069D01*
X020592Y027098D01*
X020555Y027130D01*
X020521Y027164D01*
X020491Y027201D01*
X020463Y027240D01*
X020438Y027282D01*
X020418Y027326D01*
X020400Y027371D01*
X020387Y027417D01*
X020377Y027464D01*
X020371Y027512D01*
X020369Y027560D01*
X020369Y031160D02*
X020371Y031208D01*
X020377Y031256D01*
X020387Y031303D01*
X020400Y031349D01*
X020418Y031394D01*
X020438Y031438D01*
X020463Y031480D01*
X020491Y031519D01*
X020521Y031556D01*
X020555Y031590D01*
X020592Y031622D01*
X020630Y031651D01*
X020671Y031676D01*
X020714Y031698D01*
X020759Y031716D01*
X020805Y031730D01*
X020852Y031741D01*
X020900Y031748D01*
X020948Y031751D01*
X020996Y031750D01*
X021044Y031745D01*
X021092Y031736D01*
X021138Y031724D01*
X021183Y031707D01*
X021227Y031687D01*
X021269Y031664D01*
X021309Y031637D01*
X021347Y031607D01*
X021382Y031574D01*
X021414Y031538D01*
X021444Y031500D01*
X021470Y031459D01*
X021492Y031416D01*
X021512Y031372D01*
X021527Y031327D01*
X021539Y031280D01*
X021547Y031232D01*
X021551Y031184D01*
X021551Y031136D01*
X021547Y031088D01*
X021539Y031040D01*
X021527Y030993D01*
X021512Y030948D01*
X021492Y030904D01*
X021470Y030861D01*
X021444Y030820D01*
X021414Y030782D01*
X021382Y030746D01*
X021347Y030713D01*
X021309Y030683D01*
X021269Y030656D01*
X021227Y030633D01*
X021183Y030613D01*
X021138Y030596D01*
X021092Y030584D01*
X021044Y030575D01*
X020996Y030570D01*
X020948Y030569D01*
X020900Y030572D01*
X020852Y030579D01*
X020805Y030590D01*
X020759Y030604D01*
X020714Y030622D01*
X020671Y030644D01*
X020630Y030669D01*
X020592Y030698D01*
X020555Y030730D01*
X020521Y030764D01*
X020491Y030801D01*
X020463Y030840D01*
X020438Y030882D01*
X020418Y030926D01*
X020400Y030971D01*
X020387Y031017D01*
X020377Y031064D01*
X020371Y031112D01*
X020369Y031160D01*
X030169Y031160D02*
X030171Y031208D01*
X030177Y031256D01*
X030187Y031303D01*
X030200Y031349D01*
X030218Y031394D01*
X030238Y031438D01*
X030263Y031480D01*
X030291Y031519D01*
X030321Y031556D01*
X030355Y031590D01*
X030392Y031622D01*
X030430Y031651D01*
X030471Y031676D01*
X030514Y031698D01*
X030559Y031716D01*
X030605Y031730D01*
X030652Y031741D01*
X030700Y031748D01*
X030748Y031751D01*
X030796Y031750D01*
X030844Y031745D01*
X030892Y031736D01*
X030938Y031724D01*
X030983Y031707D01*
X031027Y031687D01*
X031069Y031664D01*
X031109Y031637D01*
X031147Y031607D01*
X031182Y031574D01*
X031214Y031538D01*
X031244Y031500D01*
X031270Y031459D01*
X031292Y031416D01*
X031312Y031372D01*
X031327Y031327D01*
X031339Y031280D01*
X031347Y031232D01*
X031351Y031184D01*
X031351Y031136D01*
X031347Y031088D01*
X031339Y031040D01*
X031327Y030993D01*
X031312Y030948D01*
X031292Y030904D01*
X031270Y030861D01*
X031244Y030820D01*
X031214Y030782D01*
X031182Y030746D01*
X031147Y030713D01*
X031109Y030683D01*
X031069Y030656D01*
X031027Y030633D01*
X030983Y030613D01*
X030938Y030596D01*
X030892Y030584D01*
X030844Y030575D01*
X030796Y030570D01*
X030748Y030569D01*
X030700Y030572D01*
X030652Y030579D01*
X030605Y030590D01*
X030559Y030604D01*
X030514Y030622D01*
X030471Y030644D01*
X030430Y030669D01*
X030392Y030698D01*
X030355Y030730D01*
X030321Y030764D01*
X030291Y030801D01*
X030263Y030840D01*
X030238Y030882D01*
X030218Y030926D01*
X030200Y030971D01*
X030187Y031017D01*
X030177Y031064D01*
X030171Y031112D01*
X030169Y031160D01*
X030169Y027560D02*
X030171Y027608D01*
X030177Y027656D01*
X030187Y027703D01*
X030200Y027749D01*
X030218Y027794D01*
X030238Y027838D01*
X030263Y027880D01*
X030291Y027919D01*
X030321Y027956D01*
X030355Y027990D01*
X030392Y028022D01*
X030430Y028051D01*
X030471Y028076D01*
X030514Y028098D01*
X030559Y028116D01*
X030605Y028130D01*
X030652Y028141D01*
X030700Y028148D01*
X030748Y028151D01*
X030796Y028150D01*
X030844Y028145D01*
X030892Y028136D01*
X030938Y028124D01*
X030983Y028107D01*
X031027Y028087D01*
X031069Y028064D01*
X031109Y028037D01*
X031147Y028007D01*
X031182Y027974D01*
X031214Y027938D01*
X031244Y027900D01*
X031270Y027859D01*
X031292Y027816D01*
X031312Y027772D01*
X031327Y027727D01*
X031339Y027680D01*
X031347Y027632D01*
X031351Y027584D01*
X031351Y027536D01*
X031347Y027488D01*
X031339Y027440D01*
X031327Y027393D01*
X031312Y027348D01*
X031292Y027304D01*
X031270Y027261D01*
X031244Y027220D01*
X031214Y027182D01*
X031182Y027146D01*
X031147Y027113D01*
X031109Y027083D01*
X031069Y027056D01*
X031027Y027033D01*
X030983Y027013D01*
X030938Y026996D01*
X030892Y026984D01*
X030844Y026975D01*
X030796Y026970D01*
X030748Y026969D01*
X030700Y026972D01*
X030652Y026979D01*
X030605Y026990D01*
X030559Y027004D01*
X030514Y027022D01*
X030471Y027044D01*
X030430Y027069D01*
X030392Y027098D01*
X030355Y027130D01*
X030321Y027164D01*
X030291Y027201D01*
X030263Y027240D01*
X030238Y027282D01*
X030218Y027326D01*
X030200Y027371D01*
X030187Y027417D01*
X030177Y027464D01*
X030171Y027512D01*
X030169Y027560D01*
X042040Y016003D02*
X042042Y016050D01*
X042048Y016096D01*
X042058Y016142D01*
X042071Y016187D01*
X042089Y016230D01*
X042110Y016272D01*
X042134Y016312D01*
X042162Y016349D01*
X042193Y016384D01*
X042227Y016417D01*
X042263Y016446D01*
X042302Y016472D01*
X042343Y016495D01*
X042386Y016514D01*
X042430Y016530D01*
X042475Y016542D01*
X042521Y016550D01*
X042568Y016554D01*
X042614Y016554D01*
X042661Y016550D01*
X042707Y016542D01*
X042752Y016530D01*
X042796Y016514D01*
X042839Y016495D01*
X042880Y016472D01*
X042919Y016446D01*
X042955Y016417D01*
X042989Y016384D01*
X043020Y016349D01*
X043048Y016312D01*
X043072Y016272D01*
X043093Y016230D01*
X043111Y016187D01*
X043124Y016142D01*
X043134Y016096D01*
X043140Y016050D01*
X043142Y016003D01*
X043140Y015956D01*
X043134Y015910D01*
X043124Y015864D01*
X043111Y015819D01*
X043093Y015776D01*
X043072Y015734D01*
X043048Y015694D01*
X043020Y015657D01*
X042989Y015622D01*
X042955Y015589D01*
X042919Y015560D01*
X042880Y015534D01*
X042839Y015511D01*
X042796Y015492D01*
X042752Y015476D01*
X042707Y015464D01*
X042661Y015456D01*
X042614Y015452D01*
X042568Y015452D01*
X042521Y015456D01*
X042475Y015464D01*
X042430Y015476D01*
X042386Y015492D01*
X042343Y015511D01*
X042302Y015534D01*
X042263Y015560D01*
X042227Y015589D01*
X042193Y015622D01*
X042162Y015657D01*
X042134Y015694D01*
X042110Y015734D01*
X042089Y015776D01*
X042071Y015819D01*
X042058Y015864D01*
X042048Y015910D01*
X042042Y015956D01*
X042040Y016003D01*
X042040Y008917D02*
X042042Y008964D01*
X042048Y009010D01*
X042058Y009056D01*
X042071Y009101D01*
X042089Y009144D01*
X042110Y009186D01*
X042134Y009226D01*
X042162Y009263D01*
X042193Y009298D01*
X042227Y009331D01*
X042263Y009360D01*
X042302Y009386D01*
X042343Y009409D01*
X042386Y009428D01*
X042430Y009444D01*
X042475Y009456D01*
X042521Y009464D01*
X042568Y009468D01*
X042614Y009468D01*
X042661Y009464D01*
X042707Y009456D01*
X042752Y009444D01*
X042796Y009428D01*
X042839Y009409D01*
X042880Y009386D01*
X042919Y009360D01*
X042955Y009331D01*
X042989Y009298D01*
X043020Y009263D01*
X043048Y009226D01*
X043072Y009186D01*
X043093Y009144D01*
X043111Y009101D01*
X043124Y009056D01*
X043134Y009010D01*
X043140Y008964D01*
X043142Y008917D01*
X043140Y008870D01*
X043134Y008824D01*
X043124Y008778D01*
X043111Y008733D01*
X043093Y008690D01*
X043072Y008648D01*
X043048Y008608D01*
X043020Y008571D01*
X042989Y008536D01*
X042955Y008503D01*
X042919Y008474D01*
X042880Y008448D01*
X042839Y008425D01*
X042796Y008406D01*
X042752Y008390D01*
X042707Y008378D01*
X042661Y008370D01*
X042614Y008366D01*
X042568Y008366D01*
X042521Y008370D01*
X042475Y008378D01*
X042430Y008390D01*
X042386Y008406D01*
X042343Y008425D01*
X042302Y008448D01*
X042263Y008474D01*
X042227Y008503D01*
X042193Y008536D01*
X042162Y008571D01*
X042134Y008608D01*
X042110Y008648D01*
X042089Y008690D01*
X042071Y008733D01*
X042058Y008778D01*
X042048Y008824D01*
X042042Y008870D01*
X042040Y008917D01*
M02*
