%
M48
M72
T01C0.0236
T02C0.0315
T03C0.0320
T04C0.0354
T05C0.0360
T06C0.0400
T07C0.1102
T08C0.1181
%
T01
X11160Y9960
X12760Y10560
X12160Y8360
X17560Y9460
X17760Y8460
X21960Y9660
X22960Y8160
X23760Y9760
X25160Y10860
X26460Y10860
X26460Y12460
X27660Y13360
X28760Y13360
X29060Y13960
X31560Y15360
X33460Y17160
X34660Y15960
X33960Y14660
X36860Y13460
X33860Y11460
X31260Y8560
X32260Y7560
X28560Y8260
X27960Y8260
X26560Y8160
X24960Y8360
X22560Y12160
X22560Y14260
X23760Y14860
X25060Y14660
X25910Y15991
X25160Y16260
X26760Y14660
X27610Y16791
X27860Y17360
X28410Y17591
X28416Y17584
X29410Y17491
X28810Y16391
X30810Y17891
X30060Y18760
X30360Y19260
X30460Y21160
X30460Y21760
X30860Y22460
X32090Y22251
X33060Y22160
X32660Y20760
X34160Y19260
X36960Y19660
X37560Y20860
X37760Y21660
X40160Y22260
X40360Y25260
X37360Y28260
X34360Y25760
X32260Y26360
X28760Y27260
X28260Y26760
X27860Y26360
X27360Y25960
X27860Y24960
X28360Y24960
X27360Y24760
X25670Y23631
X25850Y22851
X26690Y22611
X26750Y21951
X28010Y21291
X27650Y20811
X25010Y18531
X25130Y17811
X21660Y16660
X21260Y17160
X19460Y16960
X19460Y16360
X18360Y16560
X17860Y17160
X16560Y18660
X15160Y19060
X16060Y19760
X15360Y20860
X14560Y21860
X13960Y21060
X15660Y22460
X16260Y21860
X17460Y22260
X18260Y23260
X18660Y22960
X19060Y21560
X19260Y20560
X17860Y20860
X19860Y19160
X20360Y18760
X20460Y21060
X21890Y21051
X22610Y21171
X24770Y23331
X24890Y24051
X22060Y25160
X19360Y25260
X18460Y26060
X16760Y24060
X15660Y26760
X13960Y28660
X11860Y28760
X11760Y27060
X8060Y27360
X7860Y28360
X11460Y23760
X10560Y18760
X11460Y17560
X11060Y16160
X13460Y17560
X13960Y17760
X14960Y14660
X16860Y14660
X20760Y14960
X25160Y12460
X29260Y11060
X38760Y10860
X39760Y9160
X40260Y12160
X43460Y10460
X40160Y15760
X43560Y17360
X27460Y29460
X27060Y29460
X26660Y29460
X26260Y29460
X25860Y29460
X25460Y29460
X25060Y29460
X24660Y29460
X24260Y29460
X23860Y29460
X24660Y28160
X25460Y28760
X23260Y31660
X23360Y32360
X22460Y32660
X21860Y35060
X20560Y34960
X19160Y35060
X17860Y35060
X16660Y34860
X15260Y35060
X14060Y35060
X12560Y34660
X11360Y34960
X10660Y34660
X9960Y33760
X11860Y33560
X10360Y36160
X12360Y37460
X13760Y38360
X16260Y38360
X16360Y37560
X20260Y37560
X21260Y38460
X22460Y38360
X24160Y37460
X25260Y35660
X25360Y34960
X24460Y35060
X23160Y35060
X26460Y35560
X26960Y35160
X27860Y35060
X28560Y35060
X29860Y35160
X31660Y34860
X32460Y35060
X33360Y34760
X35560Y34860
X36260Y35060
X37560Y34860
X39160Y34760
X40360Y34860
X41160Y35160
X38760Y37360
X38060Y38360
X35160Y37460
X31360Y37460
X30360Y38460
X28960Y38960
X27960Y37660
X27360Y37460
X27560Y32860
X37960Y33060
X8660Y13060
X8460Y18460
T02
X19169Y14429
X19169Y13641
X19169Y12854
X19169Y12066
X19169Y11279
X19169Y10491
X32551Y10491
X32551Y11279
X32551Y12066
X32551Y12854
X32551Y13641
X32551Y14429
T03
X33675Y8350
X34660Y8350
X35644Y8350
X16960Y25460
X15960Y25460
X14960Y25460
X13960Y25460
X12960Y25460
X11960Y25460
T04
X9160Y26026
X9160Y24294
T05
X12960Y8660
X13960Y8660
X41749Y26862
X42749Y26862
T06
X11710Y22491
X11710Y21491
X11710Y20491
X11710Y19491
T07
X9129Y8917
X9129Y16003
X42591Y16003
X42591Y8917
T08
X30760Y27560
X30760Y31160
X20960Y31160
X20960Y27560
M30
