<?xml version="1.0" standalone="no"?>
<!DOCTYPE svg PUBLIC "-//W3C//DTD SVG 20010904//EN"
 "http://www.w3.org/TR/2001/REC-SVG-20010904/DTD/svg10.dtd">
<svg version="1.0" xmlns="http://www.w3.org/2000/svg"
 width="932.000000pt" height="542.000000pt" viewBox="0 0 932.000000 542.000000"
 preserveAspectRatio="xMidYMid meet">
<metadata>
Created by potrace 1.14, written by Peter Selinger 2001-2017
</metadata>
<g transform="translate(0.000000,542.000000) scale(0.100000,-0.100000)"
fill="#000000" stroke="none">
<path d="M2413 4837 l-33 -22 0 -195 c0 -181 2 -205 31 -340 17 -80 34 -150
38 -157 3 -6 40 -41 81 -77 l75 -66 603 0 602 0 0 -210 0 -210 265 0 c170 0
265 -4 265 -10 0 -7 -357 -10 -1050 -10 l-1050 0 0 -795 0 -795 -50 0 -50 0 0
205 0 205 -80 0 -80 0 0 75 0 75 -875 0 -875 0 0 -980 0 -980 875 0 875 0 0
75 0 75 80 0 80 0 0 210 0 210 50 0 50 0 0 -260 0 -260 2410 0 2410 0 0 255 0
255 65 0 65 0 0 -205 0 -205 80 0 80 0 0 -75 0 -75 875 0 875 0 0 980 0 980
-875 0 -875 0 0 -75 0 -75 -80 0 -80 0 0 -205 0 -205 -65 0 -65 0 0 795 0 795
-1040 0 c-687 0 -1040 3 -1040 10 0 6 97 10 270 10 l270 0 0 210 0 210 598 0
597 0 75 66 c41 36 78 71 81 77 4 7 21 80 38 162 29 138 31 165 31 346 l0 195
-35 17 c-33 16 -193 17 -2248 16 l-2212 0 -32 -22z m1660 -1019 c31 -36 20
-81 -24 -104 -26 -13 -32 -13 -59 1 -34 18 -47 56 -31 91 21 46 79 52 114 12z
m1280 0 c31 -36 20 -81 -24 -104 -26 -13 -32 -13 -59 1 -34 18 -47 56 -31 91
21 46 79 52 114 12z m-1288 -463 c39 -38 32 -86 -16 -111 -26 -13 -32 -13 -58
0 -48 25 -55 73 -16 111 31 32 59 32 90 0z m1288 -7 c30 -36 20 -81 -24 -104
-26 -13 -32 -13 -58 0 -48 26 -55 73 -15 112 29 30 67 27 97 -8z m-2816 -1100
c29 -27 29 -65 1 -95 -29 -31 -71 -30 -97 3 -27 35 -26 59 4 89 30 31 62 32
92 3z m360 0 c29 -27 29 -65 1 -95 -27 -29 -65 -29 -95 -1 -31 29 -30 71 3 97
34 27 62 27 91 -1z m3628 -3 c31 -30 32 -62 3 -92 -27 -29 -65 -29 -95 -1 -31
29 -30 71 3 97 35 27 59 26 89 -4z m360 0 c31 -30 32 -62 3 -92 -27 -29 -65
-29 -95 -1 -31 29 -30 71 3 97 35 27 59 26 89 -4z m-4365 -1320 c76 -39 27
-156 -53 -126 -55 21 -61 97 -9 125 34 19 28 19 62 1z m360 0 c53 -27 50 -102
-5 -127 -76 -35 -131 86 -57 126 34 19 28 19 62 1z m3647 -17 c13 -12 23 -32
23 -45 0 -29 -42 -73 -68 -73 -33 0 -72 38 -72 71 0 61 71 90 117 47z m360 0
c13 -12 23 -32 23 -45 0 -29 -42 -73 -68 -73 -33 0 -72 38 -72 71 0 61 71 90
117 47z"/>
</g>
</svg>
