<?xml version="1.0" standalone="no"?>
<!DOCTYPE svg PUBLIC "-//W3C//DTD SVG 20010904//EN"
 "http://www.w3.org/TR/2001/REC-SVG-20010904/DTD/svg10.dtd">
<svg version="1.0" xmlns="http://www.w3.org/2000/svg"
 width="932.000000pt" height="542.000000pt" viewBox="0 0 932.000000 542.000000"
 preserveAspectRatio="xMidYMid meet">
<metadata>
Created by potrace 1.14, written by Peter Selinger 2001-2017
</metadata>
<g transform="translate(0.000000,542.000000) scale(0.100000,-0.100000)"
fill="#000000" stroke="none">
<path d="M2413 4837 l-33 -22 0 -195 c0 -181 2 -205 31 -340 17 -80 34 -150
38 -157 3 -6 40 -41 81 -77 l75 -66 603 0 602 0 0 -210 0 -210 265 0 c170 0
265 -4 265 -10 0 -7 -357 -10 -1050 -10 l-1050 0 0 -170 0 -170 -35 0 -35 0 0
-205 0 -205 35 0 35 0 0 -420 0 -420 -50 0 -50 0 0 205 0 205 -80 0 -80 0 0
75 0 75 -875 0 -875 0 0 -980 0 -980 875 0 875 0 0 75 0 75 80 0 80 0 0 210 0
210 50 0 50 0 0 -260 0 -260 2410 0 2410 0 0 255 0 255 65 0 65 0 0 -205 0
-205 80 0 80 0 0 -75 0 -75 875 0 875 0 0 980 0 980 -875 0 -875 0 0 -75 0
-75 -80 0 -80 0 0 -205 0 -205 -65 0 -65 0 0 795 0 795 -1040 0 c-687 0 -1040
3 -1040 10 0 6 97 10 270 10 l270 0 0 210 0 210 598 0 597 0 75 66 c41 36 78
71 81 77 4 7 21 80 38 162 29 138 31 165 31 346 l0 195 -35 17 c-33 16 -193
17 -2248 16 l-2212 0 -32 -22z m2444 7 c-3 -3 -12 -4 -19 -1 -8 3 -5 6 6 6 11
1 17 -2 13 -5z m-227 -64 l0 -50 -45 0 c-25 0 -45 -4 -45 -10 0 -5 -22 -10
-50 -10 -27 0 -50 5 -50 10 0 6 -20 10 -45 10 l-45 0 0 50 0 50 140 0 140 0 0
-50z m350 0 l0 -50 -45 0 c-25 0 -45 -4 -45 -10 0 -5 -20 -10 -45 -10 -25 0
-45 5 -45 10 0 6 -22 10 -50 10 l-50 0 0 50 0 50 140 0 140 0 0 -50z m-2390
-75 c0 -25 5 -45 10 -45 6 0 10 -22 10 -50 0 -27 -4 -50 -10 -50 -5 0 -10 -20
-10 -45 l0 -45 -55 0 -55 0 0 140 0 140 55 0 55 0 0 -45z m4230 -95 l0 -140
-50 0 -50 0 0 45 c0 25 -4 45 -10 45 -5 0 -10 23 -10 50 0 28 5 50 10 50 6 0
10 20 10 45 l0 45 50 0 50 0 0 -140z m17 -22 c-2 -13 -4 -3 -4 22 0 25 2 35 4
23 2 -13 2 -33 0 -45z m-4027 -148 l0 -140 -50 0 -50 0 0 140 0 140 50 0 50 0
0 -140z m520 0 l0 -140 -45 0 -45 0 0 140 0 140 45 0 45 0 0 -140z m510 0 l0
-140 -45 0 -45 0 0 140 0 140 45 0 45 0 0 -140z m520 0 l0 -140 -45 0 -45 0 0
140 0 140 45 0 45 0 0 -140z m700 0 l0 -140 -45 0 -45 0 0 140 0 140 45 0 45
0 0 -140z m500 0 l0 -140 -45 0 -45 0 0 140 0 140 45 0 45 0 0 -140z m500 0
l0 -140 -45 0 -45 0 0 140 0 140 45 0 45 0 0 -140z m530 0 l0 -140 -45 0 -45
0 0 140 0 140 45 0 45 0 0 -140z m-4000 -50 c0 -27 5 -50 10 -50 6 0 10 -20
10 -45 0 -25 -4 -45 -10 -45 -5 0 -10 -20 -10 -45 l0 -45 -55 0 -55 0 0 140 0
140 55 0 55 0 0 -50z m4230 -85 l0 -135 -50 0 -50 0 0 45 c0 25 -4 45 -10 45
-5 0 -10 20 -10 45 0 25 5 45 10 45 6 0 10 20 10 45 l0 45 50 0 50 0 0 -135z
m17 -17 c-2 -13 -4 -5 -4 17 -1 22 1 32 4 23 2 -10 2 -28 0 -40z m-2725 -374
c76 -49 98 -143 53 -221 -103 -175 -373 -47 -300 142 39 104 154 140 247 79z
m1281 0 c104 -68 95 -227 -15 -285 -83 -43 -176 -15 -223 65 -43 74 -27 161
41 212 65 50 129 52 197 8z m-433 -379 l0 -25 -300 0 -300 0 0 25 0 25 300 0
300 0 0 -25z m-848 -91 c76 -49 98 -143 53 -221 -103 -175 -373 -47 -300 142
39 104 154 140 247 79z m1281 0 c104 -68 95 -227 -15 -285 -79 -41 -171 -16
-219 60 -48 75 -33 164 37 217 65 50 129 52 197 8z m-3157 -449 l0 -195 -28 0
-28 0 0 195 0 195 28 0 27 0 1 -195z m-266 -1465 l0 -970 -865 0 -865 0 0 970
0 970 865 0 865 0 0 -970z m7120 0 l0 -970 -865 0 -865 0 0 970 0 970 865 0
865 0 0 -970z m-5990 690 l0 -180 130 0 130 0 0 -250 0 -250 -150 0 -150 0 0
410 0 410 -385 0 c-378 0 -385 0 -385 20 0 20 7 20 405 20 l405 0 0 -180z
m3940 160 c0 -20 -7 -20 -385 -20 l-385 0 0 -410 0 -410 -150 0 -150 0 0 250
0 250 130 0 130 0 0 180 0 180 405 0 c398 0 405 0 405 -20z m-4910 -105 l0
-75 -30 0 c-30 0 -30 -1 -30 -55 0 -54 0 -55 30 -55 l30 0 0 -560 0 -560 -30
0 c-30 0 -30 -1 -30 -55 0 -54 0 -55 30 -55 l30 0 0 -75 0 -75 -75 0 -75 0 0
820 0 820 75 0 75 0 0 -75z m920 -75 l0 -150 -380 0 -380 0 0 150 0 150 380 0
380 0 0 -150z m3990 0 l0 -150 -380 0 -380 0 0 150 0 150 380 0 380 0 0 -150z
m310 -670 l0 -820 -75 0 -75 0 0 75 0 75 30 0 c30 0 30 1 30 55 0 54 0 55 -30
55 l-30 0 0 560 0 560 30 0 c30 0 30 1 30 55 0 54 0 55 -30 55 l-30 0 0 75 0
75 75 0 75 0 0 -820z m-5220 615 c0 -41 -2 -45 -25 -45 -23 0 -25 4 -25 45 0
41 2 45 25 45 23 0 25 -4 25 -45z m5120 0 c0 -41 -2 -45 -25 -45 -23 0 -25 4
-25 45 0 41 2 45 25 45 23 0 25 -4 25 -45z m-4200 -355 l0 -250 -380 0 -380 0
0 250 0 250 380 0 380 0 0 -250z m3990 0 l0 -250 -380 0 -380 0 0 250 0 250
380 0 380 0 0 -250z m-4800 15 l0 -135 -45 0 -45 0 0 -135 0 -135 45 0 45 0 0
-135 0 -135 -50 0 -50 0 0 405 0 405 50 0 50 0 0 -135z m40 -270 c0 -353 -2
-405 -15 -405 -13 0 -15 22 -15 140 l0 140 -45 0 -45 0 0 125 0 125 45 0 45 0
0 140 c0 118 2 140 15 140 13 0 15 -52 15 -405z m4910 -5 l0 -410 -65 0 -65 0
0 140 0 140 60 0 60 0 0 135 0 135 -60 0 -60 0 0 135 0 135 65 0 65 0 0 -410z
m-20 5 l0 -125 -60 0 -60 0 0 125 0 125 60 0 60 0 0 -125z m-4120 -260 l0
-255 -380 0 -380 0 0 255 0 255 380 0 380 0 0 -255z m310 0 l0 -255 -130 0
-130 0 0 -150 c0 -113 -3 -150 -12 -151 -10 0 -10 -2 0 -6 6 -2 12 -16 12 -29
l0 -24 -405 0 c-398 0 -405 0 -405 20 0 20 7 20 385 20 l385 0 0 415 0 415
150 0 150 0 0 -255z m2910 -160 l0 -415 385 0 c378 0 385 0 385 -20 0 -20 -7
-20 -405 -20 l-405 0 0 180 0 180 -130 0 -130 0 0 255 0 255 150 0 150 0 0
-415z m770 160 l0 -255 -380 0 -380 0 0 255 0 255 380 0 380 0 0 -255z m-3990
-415 l0 -150 -380 0 -380 0 0 150 0 150 380 0 380 0 0 -150z m3990 0 l0 -150
-380 0 -380 0 0 150 0 150 380 0 380 0 0 -150z m-4910 55 c0 -41 -2 -45 -25
-45 -23 0 -25 4 -25 45 0 41 2 45 25 45 23 0 25 -4 25 -45z m5120 0 c0 -41 -2
-45 -25 -45 -23 0 -25 4 -25 45 0 41 2 45 25 45 23 0 25 -4 25 -45z"/>
<path d="M3960 3840 c-27 -27 -35 -65 -20 -101 15 -35 37 -49 79 -49 43 0 60
9 77 42 20 39 11 92 -19 113 -31 22 -93 19 -117 -5z m113 -22 c31 -36 20 -81
-24 -104 -26 -13 -32 -13 -59 1 -34 18 -47 56 -31 91 21 46 79 52 114 12z"/>
<path d="M5243 3845 c-44 -31 -35 -131 12 -149 56 -21 118 7 131 59 8 31 -12
82 -37 95 -27 15 -82 12 -106 -5z m110 -27 c31 -36 20 -81 -24 -104 -26 -13
-32 -13 -59 1 -34 18 -47 56 -31 91 21 46 79 52 114 12z"/>
<path d="M3969 3380 c-23 -14 -42 -65 -35 -95 14 -55 93 -86 137 -52 45 34 48
112 6 142 -24 17 -83 20 -108 5z m96 -25 c39 -38 32 -86 -16 -111 -26 -13 -32
-13 -58 0 -48 25 -55 73 -16 111 31 32 59 32 90 0z"/>
<path d="M5243 3375 c-42 -30 -39 -108 6 -142 44 -34 123 -3 137 52 8 31 -12
82 -37 95 -27 15 -82 12 -106 -5z m110 -27 c30 -36 20 -81 -24 -104 -26 -13
-32 -13 -58 0 -48 26 -55 73 -15 112 29 30 67 27 97 -8z"/>
<path d="M2432 2257 c-50 -53 -13 -137 59 -137 47 0 79 34 79 81 0 71 -90 107
-138 56z m105 -9 c29 -27 29 -65 1 -95 -29 -31 -71 -30 -97 3 -27 35 -26 59 4
89 30 31 62 32 92 3z"/>
<path d="M2792 2257 c-50 -53 -13 -137 59 -137 47 0 79 34 79 81 0 71 -90 107
-138 56z m105 -9 c29 -27 29 -65 1 -95 -27 -29 -65 -29 -95 -1 -31 29 -30 71
3 97 34 27 62 27 91 -1z"/>
<path d="M6422 2257 c-29 -30 -30 -89 -2 -117 49 -49 140 -10 140 59 0 70 -91
109 -138 58z m103 -12 c31 -30 32 -62 3 -92 -27 -29 -65 -29 -95 -1 -31 29
-30 71 3 97 35 27 59 26 89 -4z"/>
<path d="M6782 2257 c-29 -30 -30 -89 -2 -117 49 -49 140 -10 140 59 0 70 -91
109 -138 58z m103 -12 c31 -30 32 -62 3 -92 -27 -29 -65 -29 -95 -1 -31 29
-30 71 3 97 35 27 59 26 89 -4z"/>
<path d="M2455 939 c-52 -30 -62 -93 -20 -134 50 -51 135 -17 135 55 0 21 -8
47 -17 59 -22 25 -71 35 -98 20z m65 -14 c76 -39 27 -156 -53 -126 -55 21 -61
97 -9 125 34 19 28 19 62 1z"/>
<path d="M2813 940 c-48 -20 -58 -95 -18 -135 50 -51 135 -17 135 55 0 21 -8
47 -17 59 -21 24 -68 35 -100 21z m67 -15 c53 -27 50 -102 -5 -127 -76 -35
-131 86 -57 126 34 19 28 19 62 1z"/>
<path d="M6420 920 c-31 -31 -27 -93 6 -119 57 -45 134 -8 134 64 0 48 -29 75
-80 75 -27 0 -47 -7 -60 -20z m107 -12 c13 -12 23 -32 23 -45 0 -29 -42 -73
-68 -73 -33 0 -72 38 -72 71 0 61 71 90 117 47z"/>
<path d="M6780 920 c-31 -31 -27 -93 6 -119 57 -45 134 -8 134 64 0 48 -29 75
-80 75 -27 0 -47 -7 -60 -20z m107 -12 c13 -12 23 -32 23 -45 0 -29 -42 -73
-68 -73 -33 0 -72 38 -72 71 0 61 71 90 117 47z"/>
</g>
</svg>
