<?xml version="1.0" standalone="no"?>
<!DOCTYPE svg PUBLIC "-//W3C//DTD SVG 20010904//EN"
 "http://www.w3.org/TR/2001/REC-SVG-20010904/DTD/svg10.dtd">
<svg version="1.0" xmlns="http://www.w3.org/2000/svg"
 width="932.000000pt" height="542.000000pt" viewBox="0 0 932.000000 542.000000"
 preserveAspectRatio="xMidYMid meet">
<metadata>
Created by potrace 1.14, written by Peter Selinger 2001-2017
</metadata>
<g transform="translate(0.000000,542.000000) scale(0.100000,-0.100000)"
fill="#000000" stroke="none">
<path d="M1937 5263 l-37 -26 1 -251 0 -251 38 -174 37 -174 94 -84 94 -83
733 0 733 0 0 -255 0 -255 320 0 c278 0 320 -2 320 -15 0 -13 -148 -15 -1270
-15 l-1270 0 0 -1130 0 -1130 -60 0 -60 0 0 -165 0 -165 60 0 60 0 0 -485 0
-485 2920 0 2920 0 0 485 0 485 75 0 75 0 0 165 0 165 -75 0 -75 0 0 1130 0
1130 -1265 0 c-1118 0 -1265 2 -1265 15 0 13 43 15 330 15 l330 0 0 255 0 255
728 0 728 0 94 84 95 84 38 193 c37 192 38 197 37 429 l0 235 -35 23 -35 22
-2687 0 -2688 0 -38 -27z m2004 -1232 c47 -47 36 -111 -24 -136 -89 -37 -160
77 -86 139 40 34 74 33 110 -3z m1550 0 c47 -47 36 -111 -24 -136 -89 -37
-160 77 -86 139 40 34 74 33 110 -3z m-1550 -570 c33 -33 37 -69 13 -106 -22
-34 -63 -46 -101 -30 -88 37 -60 163 35 165 13 0 37 -13 53 -29z m1550 0 c33
-33 37 -69 13 -106 -22 -34 -63 -46 -101 -30 -88 37 -60 163 35 165 13 0 37
-13 53 -29z m-3453 -298 c5 -17 -26 -29 -40 -15 -6 6 -7 15 -3 22 9 14 37 9
43 -7z m2 -273 c0 -4 -6 -13 -14 -19 -18 -15 -41 10 -25 26 12 12 39 7 39 -7z
m25 -752 c70 -32 63 -130 -12 -159 -50 -19 -113 32 -113 91 0 27 52 80 79 80
11 0 32 -5 46 -12z m456 -17 c36 -37 38 -79 5 -117 -49 -58 -146 -20 -146 57
0 39 48 89 85 89 16 0 38 -12 56 -29z m4400 0 c36 -37 38 -79 5 -117 -67 -79
-189 19 -130 104 33 48 84 53 125 13z m418 14 c16 -8 34 -28 41 -45 17 -42 -5
-91 -50 -110 -28 -12 -36 -11 -66 5 -61 33 -64 112 -6 148 33 20 45 21 81 2z
m-5274 -1617 c70 -32 63 -130 -12 -159 -50 -19 -113 32 -113 91 0 27 52 80 79
80 11 0 32 -5 46 -12z m456 -17 c46 -47 37 -106 -22 -137 -26 -13 -36 -13 -60
-3 -64 26 -78 92 -30 140 18 17 40 29 56 29 16 0 38 -12 56 -29z m4400 0 c36
-37 38 -79 5 -117 -67 -79 -189 19 -130 104 33 48 84 53 125 13z m418 14 c16
-8 34 -28 41 -45 17 -42 -5 -91 -50 -110 -28 -12 -36 -11 -66 5 -61 33 -64
112 -6 148 33 20 45 21 81 2z"/>
</g>
</svg>
